<?xml version="1.0" standalone="no"?>
<!DOCTYPE svg PUBLIC "-//W3C//DTD SVG 1.1//EN" "http://www.w3.org/Graphics/SVG/1.1/DTD/svg11.dtd" >
<svg xmlns="http://www.w3.org/2000/svg" xmlns:xlink="http://www.w3.org/1999/xlink" version="1.1">
<metadata>
Created by FontForge 20180221 at Tue Nov 12 09:41:35 2013
 By convertio
Copyright (c) 2009 by Hannes von Doehren. All rights reserved.
</metadata>
<defs>
<font id="BrandonGrotesque-Light" horiz-adv-x="486" >
  <font-face 
    font-family="BrandonGrotesque-Light"
    font-weight="400"
    font-stretch="normal"
    units-per-em="1000"
    panose-1="2 11 3 3 2 2 3 6 2 2"
    ascent="696"
    descent="-304"
    x-height="400"
    cap-height="700"
    bbox="-143.083 -345.5 1036 1027"
    underline-thickness="50"
    underline-position="-100"
    unicode-range="U+0020-FB02"
  />
<missing-glyph horiz-adv-x="599" 
d="M50 670q0 30 30 30h439q30 0 30 -30v-640q0 -30 -30 -30h-439q-30 0 -30 30v640zM262 314q0 -5 4.5 -8.5t9.5 -3.5h36q15 0 15 13v26q0 18 16.5 31.5t36 29t36 36t16.5 53.5q0 24 -9.5 44.5t-26.5 35.5t-39.5 23t-49.5 8q-33 0 -57 -10t-41 -21q-19 -13 -32 -30
q-3 -5 -4 -9.5t4 -8.5l22 -22q8 -6 17 0q5 4 12 11t17 14t23.5 11.5t31.5 4.5q30 0 45.5 -16t15.5 -36q0 -24 -15.5 -39t-34 -30t-34 -32.5t-15.5 -45.5v-29zM245 156q0 -20 14 -34t34 -14t34.5 14t14.5 34t-14.5 34t-34.5 14t-34 -14t-14 -34z" />
    <glyph glyph-name="fi" unicode="fi" horiz-adv-x="517" 
d="M102 361h-65q-8 0 -10.5 4.5t-2.5 10.5v11q0 13 13 13h65v133q0 44 13.5 77.5t36 55.5t52.5 33t62 11q28 0 52 -6t42.5 -15t32 -18t19.5 -15q3 -2 3 -6.5t-2 -8.5l-11 -16q-5 -8 -16 -1q-7 4 -18 12t-26 15.5t-34 13t-42 5.5t-44.5 -8.5t-38.5 -25.5t-27.5 -43t-10.5 -60
v-133h283q13 0 13 -13v-374q0 -6 -4.5 -9.5t-9.5 -3.5h-17q-13 0 -13 13v348h-252v-348q0 -13 -13 -13h-17q-13 0 -13 13v348z" />
    <glyph glyph-name="fl" unicode="fl" horiz-adv-x="522" 
d="M103 361h-66q-7 0 -10 4t-3 9v13q0 13 13 13h66v138q0 44 13.5 76.5t36 53.5t52 31.5t61.5 10.5q29 0 53 -7t41.5 -16t28.5 -18t16 -13l4 32q2 5 5 8.5t12 3.5h7q13 0 13 -13v-674q0 -6 -4.5 -9.5t-9.5 -3.5h-17q-13 0 -13 13v592q-4 3 -14.5 13.5t-27 21t-39.5 19
t-52 8.5q-23 0 -45 -7t-39.5 -23t-28 -40.5t-10.5 -58.5v-138h148q13 0 13 -12v-15q0 -12 -13 -12h-148v-348q0 -13 -13 -13h-18q-12 0 -12 13v348z" />
    <glyph glyph-name="f_f" unicode="ff" horiz-adv-x="582" 
d="M101 361h-61q-7 0 -10 4t-3 9v13q0 13 13 13h61v113q0 49 14 84.5t37.5 58.5t55 33.5t67.5 10.5q50 0 82 -17t46 -29q20 29 50 42.5t68 13.5q19 0 37 -4t32.5 -10.5t25.5 -14t17 -14.5q7 -9 2 -16l-10 -14q-7 -11 -17 -1q-11 11 -35 22.5t-52 11.5q-47 0 -77 -32
t-30 -101v-137h148q13 0 13 -12v-15q0 -12 -13 -12h-148v-348q0 -6 -4.5 -9.5t-9.5 -3.5h-16q-13 0 -13 13v348h-227v-348q0 -6 -4.5 -9.5t-9.5 -3.5h-16q-13 0 -13 13v348zM371 400v137q0 46 12 79q-6 6 -16.5 14t-25 14.5t-32 11t-35.5 4.5q-59 0 -94.5 -35t-35.5 -113
v-112h227z" />
    <glyph glyph-name="f_f_i" unicode="ffi" horiz-adv-x="786" 
d="M101 361h-61q-7 0 -10 4t-3 9v13q0 13 13 13h61v113q0 49 14 84.5t37.5 58t54.5 33.5t66 11q27 0 48.5 -5.5t38 -13t28.5 -15.5t19 -14q23 29 56 43.5t71 14.5q28 0 52 -6t43 -15t32.5 -18t19.5 -15q3 -2 3 -6.5t-2 -8.5l-11 -16q-5 -8 -16 -1q-7 4 -18 12t-26 15.5
t-34 13t-42 5.5q-53 0 -87 -36t-34 -102v-132h283q13 0 13 -13v-374q0 -6 -4.5 -9.5t-9.5 -3.5h-17q-13 0 -13 13v348h-252v-348q0 -6 -4.5 -9.5t-9.5 -3.5h-16q-13 0 -13 13v348h-227v-348q0 -6 -4.5 -9.5t-9.5 -3.5h-16q-13 0 -13 13v348zM371 400v133q0 44 16 81
q-6 6 -17.5 14t-26.5 15t-33 12t-37 5q-56 0 -92.5 -35.5t-36.5 -111.5v-113h227z" />
    <glyph glyph-name="f_f_l" unicode="ffl" horiz-adv-x="790" 
d="M101 361h-60q-7 0 -10 4t-3 9v13q0 13 13 13h60v113q0 49 14 84.5t37.5 58.5t55 33.5t67.5 10.5q25 0 46 -5t37 -12.5t28 -15.5t19 -14q23 29 56.5 43t74.5 14q28 0 51.5 -7t41 -16t29 -18t16.5 -13l4 32q1 5 4.5 8.5t12.5 3.5h6q13 0 13 -13v-674q0 -13 -13 -13
q-9 0 -19.5 1t-10.5 12v592q-4 3 -14.5 13.5t-27.5 21t-40 19t-52 8.5q-23 0 -45 -7t-39.5 -23t-28 -40.5t-10.5 -58.5v-138h148q13 0 13 -12v-15q0 -12 -13 -12h-148v-348q0 -6 -4.5 -9.5t-9.5 -3.5h-16q-13 0 -13 13v348h-226l-1 -348q0 -6 -4.5 -9.5t-9.5 -3.5h-16
q-13 0 -13 13v348zM371 400v138q0 43 14 76q-6 7 -17 15t-26 15t-32 11.5t-35 4.5q-60 0 -95 -35.5t-35 -113.5v-111h226z" />
    <glyph glyph-name="f_f_h" unicode="ffh" horiz-adv-x="1090" 
d="M101 361h-60q-7 0 -10 4t-3 9v13q0 13 13 13h60v113q0 49 14 84.5t37.5 58.5t55 33.5t67.5 10.5q25 0 46 -5t37 -12.5t28 -15.5t19 -14q23 29 56.5 43t74.5 14q28 0 51.5 -7t41 -16t29 -18t16.5 -13l4 32q1 5 4 8.5t10 3.5h9q13 0 13 -13v-341q5 5 17 15.5t30.5 21.5
t43 19t54.5 8q84 0 122.5 -49.5t38.5 -133.5v-214q0 -13 -13 -13h-18q-13 0 -13 13v214q0 69 -31 104.5t-88 35.5q-31 0 -56.5 -10t-44.5 -23t-30 -24t-12 -13v-284q0 -6 -4.5 -9.5t-9.5 -3.5h-16q-13 0 -13 13v592q-4 3 -14.5 13.5t-27.5 21t-40 19t-52 8.5q-23 0 -45 -7
t-39.5 -23t-28 -40.5t-10.5 -58.5v-138h148q13 0 13 -12v-15q0 -12 -13 -12h-148v-348q0 -6 -4.5 -9.5t-9.5 -3.5h-16q-13 0 -13 13v348h-226v-348q0 -13 -13 -13h-20q-11 0 -11 13v348zM371 400v138q0 43 14 76q-6 7 -17 15t-26 15t-32 11.5t-35 4.5q-60 0 -95 -35
t-35 -111v-114h226z" />
    <glyph glyph-name="f_k" unicode="fk" horiz-adv-x="753" 
d="M103 361h-66q-7 0 -10 4t-3 9v13q0 13 13 13h66v138q0 44 13.5 76.5t36 53.5t52 31.5t61.5 10.5q29 0 53 -7t41.5 -16t28.5 -18t16 -13l4 32q1 5 4 8.5t9 3.5h9q13 0 13 -13v-448l213 155q7 6 16 6h29q8 0 8.5 -7t-5.5 -11l-215 -158l241 -207q6 -5 3.5 -11t-8.5 -6h-31
q-5 0 -9 1.5t-11 6.5l-231 199v-194q0 -13 -13 -13h-18q-11 0 -11 13v592q-4 3 -14.5 13.5t-27 21t-39.5 19t-52 8.5q-23 0 -45 -7t-39.5 -23t-28 -40.5t-10.5 -58.5v-138h148q13 0 13 -12v-15q0 -12 -13 -12h-148v-348q0 -6 -4.5 -9.5t-9.5 -3.5h-16q-13 0 -13 13v348z" />
    <glyph glyph-name="f_j" unicode="fj" horiz-adv-x="517" 
d="M102 361h-65q-7 0 -10 4t-3 9v13q0 13 13 13h65v133q0 44 13.5 77.5t36 55.5t52.5 33t62 11q28 0 52 -6t42.5 -15t32 -18t19.5 -15q3 -2 3 -6.5t-2 -8.5l-11 -16q-5 -8 -16 -1q-7 4 -18 12t-26 15.5t-34 13t-42 5.5q-52 0 -86.5 -35.5t-34.5 -101.5v-133h283q13 0 13 -13
l-1 -524q0 -89 -40 -131t-106 -42q-39 0 -69 15t-43 28q-7 7 -2 14l10 16q7 10 17 0q13 -10 35.5 -21.5t51.5 -11.5q48 0 75.5 31.5t27.5 101.5v498h-252v-348q0 -6 -4.5 -9.5t-9.5 -3.5h-16q-13 0 -13 13v348z" />
    <glyph glyph-name="f_f_j" unicode="ffj" horiz-adv-x="786" 
d="M101 361h-61q-7 0 -10 4t-3 9v13q0 13 13 13h61v113q0 49 14 84.5t37.5 58t54.5 33.5t66 11q27 0 48.5 -5.5t38 -13t28.5 -15.5t19 -14q23 29 56 43.5t71 14.5q28 0 52 -6t43 -15t32.5 -18t19.5 -15q3 -2 3 -6.5t-2 -8.5l-11 -16q-5 -8 -16 -1q-5 4 -16 12t-26.5 15.5
t-35 13t-42.5 5.5q-56 0 -88.5 -39.5t-32.5 -115.5v-115h283q13 0 13 -13v-524q0 -89 -40.5 -131t-106.5 -42q-39 0 -69 15t-43 28q-7 7 -2 14l10 16q7 10 17 0q13 -10 35.5 -21.5t51.5 -11.5q48 0 75.5 31.5t27.5 101.5v498h-252v-348q0 -6 -4.5 -9.5t-9.5 -3.5h-16
q-13 0 -13 13v348h-227v-348q0 -6 -4.5 -9.5t-9.5 -3.5h-16q-13 0 -13 13v348zM371 400v122q0 32 4 53.5t12 38.5q-6 6 -17.5 14t-26.5 15t-33 12t-37 5q-56 0 -92.5 -35.5t-36.5 -111.5v-113h227z" />
    <glyph glyph-name="f_b" unicode="fb" horiz-adv-x="812" 
d="M103 361h-66q-7 0 -10 4t-3 9v13q0 13 13 13h66v138q0 44 13.5 76.5t36 53.5t52 31.5t61.5 10.5q29 0 53 -7t41.5 -16t28.5 -18t16 -13l4 32q1 5 4 8.5t9 3.5h10q13 0 13 -13v-317q14 11 33 20q16 8 39 14t52 6q42 0 78 -16t62.5 -44t41 -66.5t14.5 -82.5t-14.5 -82.5
t-39 -67t-58 -45t-72.5 -16.5q-29 0 -52.5 7t-41.5 17t-29.5 20t-15.5 15l-3 -36q-1 -13 -14 -13h-10q-13 0 -13 13v592q-4 3 -14.5 13.5t-27 21t-39.5 19t-52 8.5q-23 0 -45 -7t-39.5 -23t-28 -40.5t-10.5 -58.5v-138h148q13 0 13 -12v-15q0 -12 -13 -12h-148v-348
q0 -6 -4.5 -9.5t-9.5 -3.5h-16q-13 0 -13 13v348zM446 101q1 -2 9.5 -13t24.5 -24t40.5 -23.5t56.5 -10.5q31 0 58 13.5t46 36.5t30 54t11 66q0 36 -12 66.5t-33 53t-50 35t-63 12.5q-27 0 -49 -6.5t-37 -14.5q-18 -10 -32 -21v-224z" />
    <glyph glyph-name="f_f_k" unicode="ffk" horiz-adv-x="1023" 
d="M101 361h-60q-7 0 -10 4t-3 9v13q0 13 13 13h60v113q0 49 14 84.5t37.5 58.5t55 33.5t67.5 10.5q25 0 46 -5t37 -12.5t28 -15.5t19 -14q23 29 56.5 43t74.5 14q28 0 51.5 -7t41 -16t29 -18t16.5 -13l4 32q1 5 4 8.5t9 3.5h10q13 0 13 -13v-448l213 155q7 6 16 6h29
q8 0 8.5 -7t-5.5 -11l-215 -158l241 -207q6 -5 3.5 -11t-8.5 -6h-31q-5 0 -9 1.5t-11 6.5l-231 199v-194q0 -13 -13 -13h-19q-11 0 -11 13v592q-4 3 -14.5 13.5t-27.5 21t-40 19t-52 8.5q-23 0 -45 -7t-39.5 -23t-28 -40.5t-10.5 -58.5v-138h148q13 0 13 -12v-15
q0 -12 -13 -12h-148v-348q0 -6 -4.5 -9.5t-9.5 -3.5h-16q-13 0 -13 13v348h-226l-1 -348q0 -6 -4.5 -9.5t-9.5 -3.5h-16q-13 0 -13 13v348zM371 400v138q0 43 14 76q-6 7 -17 15t-26 15t-32 11.5t-35 4.5q-60 0 -95 -35t-35 -112v-113h226z" />
    <glyph glyph-name="f_h" unicode="fh" horiz-adv-x="821" 
d="M103 361h-66q-7 0 -10 4t-3 9v13q0 13 13 13h66v138q0 44 13.5 76.5t36 53.5t52 31.5t61.5 10.5q29 0 53 -7t41.5 -16t28.5 -18t16 -13l4 32q1 5 4 8.5t10 3.5h10q13 0 13 -13v-341q5 5 17 15.5t30.5 21.5t42.5 19t54 8q78 0 119.5 -46.5t41.5 -136.5v-214q0 -13 -13 -13
h-18q-13 0 -13 13v214q0 69 -31 104.5t-88 35.5q-31 0 -56.5 -10t-44 -23t-29.5 -24t-12 -13v-284q0 -13 -13 -13h-20q-11 0 -11 13v592q-4 3 -14.5 13.5t-27 21t-39.5 19t-52 8.5q-23 0 -45 -7t-39.5 -23t-28 -40.5t-10.5 -58.5v-138h148q13 0 13 -12v-15q0 -12 -13 -12
h-148v-348q0 -6 -4.5 -9.5t-9.5 -3.5h-16q-13 0 -13 13v348z" />
    <glyph glyph-name="f_f_b" unicode="ffb" horiz-adv-x="1083" 
d="M101 361h-60q-7 0 -10 4t-3 9v13q0 13 13 13h60v113q0 49 14 84.5t37.5 58.5t55 33.5t67.5 10.5q25 0 46 -5t37 -12.5t28 -15.5t19 -14q23 29 56.5 43t74.5 14q28 0 51.5 -7t41 -16t29 -18t16.5 -13l4 32q1 5 3.5 8.5t8.5 3.5h11q13 0 13 -13v-317q15 11 33 20
q16 8 38.5 14t51.5 6q43 0 79.5 -16t63 -44t41.5 -66t15 -82t-14.5 -82.5t-40 -67.5t-59 -45.5t-72.5 -16.5q-29 0 -52.5 7t-41.5 16.5t-29.5 19.5t-15.5 15l-3 -35q-1 -13 -14 -13h-10q-13 0 -13 13v592q-4 3 -14.5 13.5t-27.5 21t-40 19t-52 8.5q-23 0 -45 -7t-39.5 -23
t-28 -40.5t-10.5 -58.5v-138h148q13 0 13 -12v-15q0 -12 -13 -12h-148v-348q0 -6 -4.5 -9.5t-9.5 -3.5h-16q-13 0 -13 13v348h-226l-1 -348q0 -6 -4.5 -9.5t-9.5 -3.5h-16q-13 0 -13 13v348zM371 400v138q0 43 14 76q-6 7 -17 15t-26 15t-32 11.5t-35 4.5q-60 0 -95 -35
t-35 -112v-113h226zM714 103q1 -2 9.5 -13.5t25 -24.5t41 -24t56.5 -11q31 0 57.5 13.5t46 36.5t30 54t10.5 66q0 36 -11.5 66.5t-32.5 53t-50 35t-63 12.5q-28 0 -49.5 -6.5t-37.5 -14.5q-18 -10 -32 -21v-222z" />
    <glyph glyph-name=".notdef" horiz-adv-x="599" 
d="M50 670q0 30 30 30h439q30 0 30 -30v-640q0 -30 -30 -30h-439q-30 0 -30 30v640zM262 314q0 -5 4.5 -8.5t9.5 -3.5h36q15 0 15 13v26q0 18 16.5 31.5t36 29t36 36t16.5 53.5q0 24 -9.5 44.5t-26.5 35.5t-39.5 23t-49.5 8q-33 0 -57 -10t-41 -21q-19 -13 -32 -30
q-3 -5 -4 -9.5t4 -8.5l22 -22q8 -6 17 0q5 4 12 11t17 14t23.5 11.5t31.5 4.5q30 0 45.5 -16t15.5 -36q0 -24 -15.5 -39t-34 -30t-34 -32.5t-15.5 -45.5v-29zM245 156q0 -20 14 -34t34 -14t34.5 14t14.5 34t-14.5 34t-34.5 14t-34 -14t-14 -34z" />
    <glyph glyph-name=".null" horiz-adv-x="0" 
 />
    <glyph glyph-name="nonmarkingreturn" horiz-adv-x="0" 
 />
    <glyph glyph-name="space" unicode=" " horiz-adv-x="217" 
 />
    <glyph glyph-name="exclam" unicode="!" horiz-adv-x="296" 
d="M144 269q-5 0 -9 3.5t-4 8.5l-10 284v122q0 8 5 10.5t10 2.5h25q13 0 13 -13v-121l-9 -285q0 -5 -4 -8.5t-9 -3.5h-8zM107 30q0 17 12 28.5t29 11.5t28.5 -11.5t11.5 -28.5t-11.5 -28.5t-28.5 -11.5t-29 11.5t-12 28.5z" />
    <glyph glyph-name="quotedbl" unicode="&#x22;" horiz-adv-x="299" 
d="M215 496q-9 0 -9 11v180q0 13 13 13h21q14 0 12 -16l-16 -177q-2 -11 -10 -11h-11zM65 496q-9 0 -9 11v180q0 13 13 13h21q14 0 12 -16l-16 -177q-2 -11 -10 -11h-11z" />
    <glyph glyph-name="numbersign" unicode="#" horiz-adv-x="550" 
d="M142 206h-84q-12 0 -12 13v5q0 13 12 13h88l31 182h-90q-13 0 -13 13v6q0 13 13 13h95l40 238q1 6 4.5 8.5t8.5 2.5h6q6 0 9 -4.5t2 -10.5l-39 -234h163l40 238q1 6 4.5 8.5t8.5 2.5h7q6 0 8.5 -4.5t1.5 -10.5l-39 -234h83q12 0 12 -13v-6q0 -13 -11 -13h-88l-31 -182h89
q13 0 13 -13v-5q0 -13 -12 -13h-95l-33 -195q-2 -11 -13 -11h-6q-15 0 -12 15l33 191h-164l-32 -195q-2 -11 -13 -11h-6q-15 0 -12 15zM341 237l30 182h-162l-31 -182h163z" />
    <glyph glyph-name="dollar" unicode="$" horiz-adv-x="533" 
d="M61 72q-5 4 -7 8.5t4 12.5l11 14q6 8 12 5t13 -8q6 -5 20 -16t35 -22.5t48.5 -21t59.5 -11.5v300q-46 15 -83 32t-63.5 39.5t-41 53.5t-14.5 75q0 27 11 57t35 55.5t62.5 43t93.5 20.5v37q0 7 4.5 10t9.5 3h4q13 0 13 -13v-38q34 -2 62 -10t49 -17q24 -11 44 -23
q4 -3 7 -7.5t-2 -12.5l-10 -15q-5 -8 -10.5 -7t-10.5 3q-1 1 -11.5 7.5t-28 14t-40.5 15t-49 9.5q0 -74 -0.5 -147t-0.5 -147q47 -17 85 -35t64.5 -42t40.5 -55t14 -72q0 -36 -16.5 -67.5t-44.5 -55t-65 -38t-78 -16.5v-108q0 -6 -4.5 -9t-9.5 -3q-6 0 -11 2.5t-5 9.5v108
q-41 2 -75 13.5t-59.5 25.5t-41 26.5t-20.5 16.5zM257 666q-43 -2 -72.5 -15t-48 -32t-27 -41.5t-8.5 -43.5q0 -31 11 -54t31.5 -40.5t49 -31t64.5 -25.5v283zM287 33q32 2 60 13t49 29t33.5 41.5t12.5 49.5q0 59 -41.5 93.5t-113.5 60.5v-287z" />
    <glyph glyph-name="percent" unicode="%" horiz-adv-x="688" 
d="M179 434q-29 0 -54 10.5t-43.5 29.5t-29.5 44t-11 54t11 54t29.5 44t43.5 29.5t54 10.5q28 0 53.5 -10.5t44 -29.5t29.5 -44t11 -54t-11 -54t-29.5 -44t-44 -29.5t-53.5 -10.5zM500 695q2 4 5.5 4.5t6.5 0.5h18q7 0 9.5 -6t-1.5 -13l-381 -674q-4 -7 -12 -7h-18
q-7 0 -9 5.5t2 11.5zM179 471q21 0 39 8t31.5 21.5t21.5 32t8 39.5q0 42 -29 71t-71 29q-21 0 -39.5 -8t-32 -21.5t-21 -31.5t-7.5 -39t7.5 -39.5t21 -32t32 -21.5t39.5 -8zM354 127q0 29 10.5 54.5t29.5 44t44 29.5t54 11q28 0 53.5 -11t44 -29.5t29.5 -44t11 -54.5
t-11 -54t-29.5 -43.5t-44 -29.5t-53.5 -11q-29 0 -54 11t-44 29.5t-29.5 43.5t-10.5 54zM391 127q0 -21 8 -39.5t21.5 -32t32 -21t39.5 -7.5t39 7.5t31.5 21t21.5 32t8 39.5q0 42 -29 71t-71 29q-21 0 -39.5 -8t-32 -21.5t-21.5 -31.5t-8 -39z" />
    <glyph glyph-name="ampersand" unicode="&#x26;" horiz-adv-x="678" 
d="M90 173q0 39 13 70.5t34 56t47.5 43.5t53.5 33l-15 16l-32 36t-28 38t-19.5 42t-6.5 47q0 26 10 53.5t31 50t53 37t77 14.5q40 0 70.5 -12.5t50.5 -33.5t30.5 -48.5t10.5 -56.5q0 -31 -14.5 -59t-38 -52t-53 -44t-59.5 -35l204 -202q29 46 44.5 98.5t15.5 105.5
q0 4 -0.5 10t-0.5 10q0 9 8 9h21q9 0 12 -9q2 -5 2 -10.5v-9.5q0 -60 -19 -120.5t-53 -112.5l104 -103q6 -5 8 -11.5t-4 -11.5l-16 -15q-6 -6 -11 -4t-9 6l-100 101q-43 -51 -101 -80.5t-130 -29.5q-45 0 -80.5 15t-59.5 40t-37 58t-13 70zM276 398q27 14 54 30.5t48.5 36.5
t34.5 43t13 50q0 21 -7.5 41.5t-22.5 36t-38 25.5t-53 10q-32 0 -56 -10.5t-39.5 -27t-23 -37.5t-7.5 -42q-1 -35 20 -67t48 -60q8 -7 14.5 -14t14.5 -15zM134 173q0 -30 11 -56t30.5 -45.5t46.5 -30.5t59 -11q63 0 113.5 27t88.5 72l-217 220q-24 -13 -48 -30t-42.5 -38.5
t-30 -48t-11.5 -59.5z" />
    <glyph glyph-name="quotesingle" unicode="'" horiz-adv-x="149" 
d="M65 496q-9 0 -9 11v180q0 13 13 13h21q14 0 12 -16l-16 -177q-2 -11 -10 -11h-11v0z" />
    <glyph glyph-name="parenleft" unicode="(" horiz-adv-x="344" 
d="M307 -43q10 0 8 -12l-1 -15q0 -10 -12 -8q-43 2 -86 22t-77 66t-55 120.5t-21 184.5t21 184.5t55 120.5t77 66.5t86 22.5q12 0 12 -9l1 -15q2 -12 -8 -12q-44 -6 -80.5 -29t-63 -66.5t-41.5 -108t-15 -154.5t15 -154.5t41.5 -108t63 -66.5t80.5 -29z" />
    <glyph glyph-name="parenright" unicode=")" horiz-adv-x="344" 
d="M38 -43q44 6 80.5 29t63 66.5t41 108t14.5 154.5t-14.5 154.5t-41 108t-63 66.5t-80.5 29q-11 0 -9 12l1 15q1 9 13 9q43 -2 85.5 -22.5t76.5 -66.5t55 -120.5t21 -184.5t-21 -184.5t-55 -120.5t-76.5 -66t-85.5 -22q-11 -1 -13 8l-1 15q-2 12 9 12z" />
    <glyph glyph-name="asterisk" unicode="*" horiz-adv-x="340" 
d="M166 410q-13 0 -13 13l1 103l-88 -55q-10 -7 -17 4l-5 8q-3 5 -1.5 10t5.5 7l91 55l-92 55q-4 2 -5 7t1 10l6 10q5 8 16 2l89 -55l-1 103q0 13 13 13h8q13 0 13 -13l-1 -103l88 56q9 5 17 -4l5 -8q5 -11 -4 -17l-92 -56l93 -56q4 -2 5 -7t-1 -9l-5 -9q-7 -11 -18 -4
l-88 56l1 -103q0 -13 -13 -13h-8v0z" />
    <glyph glyph-name="plus" unicode="+" horiz-adv-x="505" 
d="M232 326h-172q-13 0 -13 13v15q0 13 13 13h172v173q0 12 13 12h16q13 0 13 -12v-173h171q13 0 13 -13v-15q0 -13 -13 -13h-171v-171q0 -13 -13 -13h-16q-13 0 -13 13v171z" />
    <glyph glyph-name="comma" unicode="," horiz-adv-x="231" 
d="M71 30q0 18 11.5 28.5t30.5 10.5q22 0 39 -22t17 -72q0 -30 -8.5 -54t-20.5 -41.5t-24 -28.5t-19 -15q-12 -7 -17 0l-8 10q-7 8 4 16q2 1 10 7.5t17.5 18.5t18 29t10.5 40q1 22 -5 38q-8 -5 -16 -5q-20 0 -30 12t-10 28z" />
    <glyph glyph-name="hyphen" unicode="-" horiz-adv-x="478" 
d="M126 231q-12 0 -12 13v11q0 13 12 13h226q13 0 13 -13v-11q0 -13 -13 -13h-226v0z" />
    <glyph glyph-name="period" unicode="." horiz-adv-x="223" 
d="M71 30q0 17 12 28.5t29 11.5t28.5 -11.5t11.5 -28.5t-11.5 -28.5t-28.5 -11.5t-29 11.5t-12 28.5z" />
    <glyph glyph-name="slash" unicode="/" horiz-adv-x="327" 
d="M262 692q3 8 13 8h14q7 0 10.5 -4t1.5 -10l-221 -677q-3 -9 -13 -9h-15q-6 0 -9.5 3.5t-1.5 10.5z" />
    <glyph glyph-name="zero" unicode="0" horiz-adv-x="644" 
d="M322 -10q-59 0 -104.5 24t-76.5 69.5t-47.5 110.5t-16.5 147t16.5 147t47.5 110.5t76.5 69.5t104.5 24q58 0 104 -24t77 -69.5t47.5 -110.5t16.5 -147t-16.5 -147t-47.5 -110.5t-77 -69.5t-104 -24zM322 31q97 0 148.5 80.5t51.5 229.5q0 147 -51.5 228t-148.5 81
t-149 -81t-52 -228q0 -149 52 -229.5t149 -80.5z" />
    <glyph glyph-name="one" unicode="1" horiz-adv-x="322" 
d="M166 614l-119 -98q-9 -7 -15 1l-12 14q-7 8 2 15l160 135h15q6 0 10.5 -3t4.5 -9v-656q0 -13 -13 -13h-20q-13 0 -13 13v601z" />
    <glyph glyph-name="two" unicode="2" horiz-adv-x="524" 
d="M40 30l265 266q53 53 82 101t29 97q0 28 -10 56t-31 49.5t-52.5 35t-74.5 13.5q-34 0 -60.5 -10.5t-45 -24.5t-30 -27.5t-16.5 -18.5q-9 -11 -20 -3l-12 10q-9 9 -2 18q19 27 46 49q23 19 58 34.5t82 15.5q53 0 93 -16t67 -43t41 -62.5t14 -74.5q0 -66 -36 -119.5
t-90 -107.5l-228 -227h336q13 0 13 -13v-15q0 -13 -13 -13h-392q-6 0 -9.5 3.5t-3.5 8.5v18z" />
    <glyph glyph-name="three" unicode="3" horiz-adv-x="546" 
d="M52 79q-9 10 0 17l16 13q5 5 9 3.5t9 -6.5q9 -8 21.5 -21t32 -25t47.5 -21t69 -9q39 0 71.5 10.5t56 30t36.5 47.5t13 62q0 36 -16 63.5t-41.5 46t-57.5 27.5t-65 9h-93q-13 0 -13 13v18q0 12 14 12h92q27 0 56 7.5t52.5 24t38.5 43t15 64.5q0 31 -12 57t-32.5 45t-48 29
t-59.5 10q-36 0 -63.5 -9.5t-47 -22.5t-31 -25t-15.5 -17q-3 -4 -7.5 -5t-9.5 3l-15 12q-5 3 -5 8t4 9q21 25 50 44q24 17 59.5 31t80.5 14q43 0 79.5 -13t63 -36.5t41.5 -56t15 -72.5q0 -29 -10 -55t-25.5 -47t-36 -36t-41.5 -23v-2q24 -8 47.5 -23.5t42 -37.5t30 -49
t11.5 -57q0 -41 -16 -76.5t-45 -61.5t-71 -40.5t-94 -14.5q-46 0 -80.5 10.5t-58.5 24.5t-39.5 29.5t-23.5 24.5z" />
    <glyph glyph-name="four" unicode="4" horiz-adv-x="583" 
d="M32 156q-17 0 -17 15v17l409 504h18q11 0 11 -11q0 -122 0.5 -243t0.5 -243h76q13 0 13 -12v-13q0 -13 -13 -13h-76v-144q0 -13 -13 -13q-9 0 -20.5 0.5t-11.5 12.5v143h-377zM411 196v416l-340 -416h340z" />
    <glyph glyph-name="five" unicode="5" horiz-adv-x="545" 
d="M71 74q-6 8 -6.5 12t5.5 10q4 3 7 6.5t7 6.5q10 8 17 -2q6 -8 19 -21t33 -25t48 -21t65 -9q42 0 76.5 15.5t59.5 42t38.5 60.5t13.5 71q0 75 -47 120.5t-141 45.5h-166q-9 0 -14 6.5t-5 14.5v261q0 13 13 13h314q13 0 13 -13v-16q0 -13 -13 -13h-285v-211h143
q115 0 174.5 -54t59.5 -154q0 -47 -17.5 -89t-48.5 -73.5t-74.5 -49.5t-94.5 -18q-42 0 -74 9t-55.5 22t-39.5 27.5t-25 25.5z" />
    <glyph glyph-name="six" unicode="6" horiz-adv-x="554" 
d="M58 275q0 68 18 124t47 100.5t65.5 79t72.5 59.5t69 41t55 25q12 3 15 -7l7 -15q5 -13 -11 -19q-22 -8 -64.5 -30.5t-87.5 -61t-83 -91.5t-50 -122q6 8 21.5 21.5t39.5 27t56 23t70 9.5q43 0 82 -15.5t69 -44t48 -69t18 -90.5q0 -48 -18 -89.5t-48.5 -73t-71 -49.5
t-85.5 -18q-59 0 -102.5 22t-73 60.5t-44 90.5t-14.5 112zM101 268q0 -46 12 -89t35.5 -76t59.5 -53t84 -20q37 0 69.5 15t57 40.5t38.5 60t14 72.5q0 40 -14.5 73t-38.5 57t-56 37t-68 13q-45 0 -80 -15t-59.5 -33.5t-37.5 -34.5t-14 -17q-1 -8 -1.5 -15t-0.5 -15z" />
    <glyph glyph-name="seven" unicode="7" horiz-adv-x="473" 
d="M402 639h-369q-8 0 -10.5 4t-2.5 10v15q0 13 13 13h414q7 0 10.5 -3.5t3.5 -8.5v-5l-294 -648q-5 -10 -8 -13t-11 -3h-24q-8 0 -8.5 5.5t1.5 10.5z" />
    <glyph glyph-name="eight" unicode="8" horiz-adv-x="574" 
d="M63 179q0 33 12.5 60.5t33 49.5t47.5 37t57 22v2q-26 7 -50 21.5t-42 35t-29 46t-11 55.5q0 37 13 70t39 57.5t64 39t88 14.5t89 -14.5t65.5 -39t40 -57.5t13.5 -70q0 -30 -11 -55.5t-29 -46t-42 -35t-50 -21.5v-2q30 -7 57 -21.5t47.5 -36t33 -49.5t12.5 -62
q0 -45 -16.5 -80t-46.5 -59t-71.5 -37t-91.5 -13q-49 0 -90 13t-70 37t-45.5 59t-16.5 80zM287 372q75 5 118 41t43 94q0 29 -10.5 55t-31.5 46t-51.5 31.5t-70.5 11.5q-39 0 -68.5 -11.5t-49.5 -31.5t-30 -46t-10 -55q0 -58 43 -94t118 -41zM109 175q0 -36 14 -63.5t38 -46
t56 -28t68 -9.5q38 0 71 9t57 27.5t38 46t14 64.5q0 28 -12.5 53.5t-35.5 45.5t-56 33t-74 16q-84 -7 -131 -48t-47 -100z" />
    <glyph glyph-name="nine" unicode="9" horiz-adv-x="553" 
d="M147 4q-5 14 11 19q14 5 38.5 17t53.5 30.5t59.5 44t57.5 57.5t47 71t28 85q-6 -8 -21.5 -21.5t-39.5 -27t-55.5 -23t-69.5 -9.5q-43 0 -82 15.5t-69 44t-48 69t-18 90.5q0 48 18 89.5t48.5 73t71 49.5t85.5 18q58 0 102 -22t73 -60.5t44 -90.5t15 -112q0 -68 -18 -124
t-47 -100.5t-65.5 -79t-73 -59.5t-69.5 -41.5t-55 -24.5q-10 -3 -15 7zM259 288q45 0 80.5 15t59.5 33.5t37 34t14 17.5q1 8 1.5 15t0.5 15q0 46 -11.5 89t-35.5 76t-59.5 53t-83.5 20q-37 0 -69.5 -15t-57 -40.5t-38.5 -60t-14 -72.5q0 -40 14 -73t38 -57t56 -37t68 -13z
" />
    <glyph glyph-name="colon" unicode=":" horiz-adv-x="263" 
d="M132 329q-17 0 -29 12t-12 28q0 17 12 29t29 12t28.5 -12t11.5 -29q0 -16 -11.5 -28t-28.5 -12zM91 30q0 17 12 28.5t29 11.5t28.5 -11.5t11.5 -28.5t-11.5 -28.5t-28.5 -11.5t-29 11.5t-12 28.5z" />
    <glyph glyph-name="semicolon" unicode=";" horiz-adv-x="267" 
d="M131 329q-17 0 -28.5 12t-11.5 28q0 17 11.5 29t28.5 12t28.5 -12t11.5 -29q0 -16 -11.5 -28t-28.5 -12zM91 30q0 18 11.5 28.5t30.5 10.5q22 0 39 -22t17 -72q0 -30 -8.5 -54t-20.5 -41.5t-24 -28.5t-19 -15q-12 -7 -17 0l-8 10q-7 8 4 16q2 1 10 7.5t17.5 18.5t18 29
t10.5 40q1 22 -5 38q-8 -5 -16 -5q-20 0 -30 12t-10 28z" />
    <glyph glyph-name="less" unicode="&#x3c;" horiz-adv-x="433" 
d="M36 215q-10 6 -10 16v1q0 8 10 14l353 224q5 4 9.5 1t4.5 -11v-23q0 -3 -1.5 -7.5t-6.5 -7.5l-304 -191l304 -185q5 -3 6.5 -7.5t1.5 -7.5v-23q0 -8 -4.5 -11t-9.5 1l-353 217v0z" />
    <glyph glyph-name="equal" unicode="=" horiz-adv-x="561" 
d="M123 366q-8 0 -10.5 4t-2.5 9v17q0 5 2.5 9t10.5 4h315q13 0 13 -13v-17q0 -13 -13 -13h-315zM123 158q-8 0 -10.5 4t-2.5 9v17q0 5 2.5 9t10.5 4h315q13 0 13 -13v-17q0 -13 -13 -13h-315z" />
    <glyph glyph-name="greater" unicode="&#x3e;" horiz-adv-x="433" 
d="M30 31q0 3 1.5 7.5t6.5 7.5l304 185l-304 191q-5 3 -6.5 7.5t-1.5 7.5v23q0 8 4.5 11t9.5 -1l353 -224q10 -6 10 -14v-1q0 -10 -10 -16l-353 -217q-5 -4 -9.5 -1t-4.5 11v23z" />
    <glyph glyph-name="question" unicode="?" horiz-adv-x="469" 
d="M203 273q-7 0 -9.5 4.5t-2.5 9.5v58q0 24 12.5 43t31 35t40 31t40 31.5t31 36t12.5 44.5q0 19 -8 38t-24 33.5t-38.5 23.5t-52.5 9q-35 0 -60 -9.5t-42.5 -21.5t-27.5 -23.5t-14 -15.5q-3 -3 -6.5 -4.5t-10.5 3.5l-10 7q-8 5 -7 9.5t4 9.5q17 24 43 42q22 16 55 29.5
t79 13.5q76 0 120.5 -39.5t44.5 -101.5q0 -33 -12.5 -57.5t-31 -43.5t-40.5 -34t-40.5 -29t-31 -28.5t-12.5 -32.5v-57q0 -14 -13 -14h-19zM172 30q0 17 11.5 28.5t28.5 11.5t29 -11.5t12 -28.5t-12 -28.5t-29 -11.5t-28.5 11.5t-11.5 28.5z" />
    <glyph glyph-name="at" unicode="@" horiz-adv-x="990" 
d="M48 224q0 106 32.5 195.5t92.5 154t145 100.5t190 36q100 0 178.5 -32t132.5 -88t82.5 -133.5t28.5 -167.5q0 -50 -9.5 -102.5t-32.5 -96.5t-63 -72t-100 -28q-50 0 -77 23t-35 56q-6 -10 -18 -23.5t-30 -26t-41.5 -21t-53.5 -8.5q-41 0 -74.5 15.5t-58.5 44t-38.5 67
t-13.5 85.5t15.5 85.5t42.5 65.5t62.5 42t75.5 15q30 0 53 -7t39 -15q18 -10 31 -22l3 22q1 12 14 12h10q13 0 13 -13v-251q0 -57 21.5 -83t61.5 -26q42 0 72.5 21t51 57t30 83.5t9.5 100.5q0 82 -25 152.5t-73.5 122t-120 80.5t-164.5 29q-96 0 -173.5 -32t-132 -91
t-84 -142t-29.5 -184q0 -75 20.5 -138.5t57.5 -115.5t88.5 -92t112.5 -66q11 -5 6 -16l-7 -16q-4 -10 -14 -6q-66 28 -122 71.5t-96.5 100.5t-63 127t-22.5 151zM328 202q0 -38 11 -69.5t30 -54t45.5 -34.5t58.5 -12q33 0 56.5 11.5t39 27t23.5 30.5t10 23v189
q-1 1 -8.5 10.5t-22.5 19.5t-37 18.5t-51 8.5q-32 0 -60 -12t-49 -34t-33.5 -53t-12.5 -69z" />
    <glyph glyph-name="A" unicode="A" horiz-adv-x="653" 
d="M13 0q-12 0 -7 12l308 696q3 7 12 7h3q9 0 13 -7l305 -696q2 -5 0.5 -8.5t-9.5 -3.5h-26q-5 0 -8.5 3t-5.5 6l-81 184h-382l-80 -184q-2 -3 -5.5 -6t-8.5 -3h-28zM500 232l-171 403h-2l-174 -403h347z" />
    <glyph glyph-name="B" unicode="B" horiz-adv-x="623" 
d="M106 687q0 13 13 13h213q46 0 84 -13t65.5 -36.5t42.5 -57t15 -74.5q0 -60 -31.5 -101.5t-78.5 -60.5q27 -7 51 -20.5t42 -34t28.5 -48.5t10.5 -64q0 -42 -16 -77t-45 -60t-69.5 -39t-89.5 -14h-222q-13 0 -13 13v674zM339 376q71 0 110 39.5t39 101.5q0 66 -42 102.5
t-114 36.5h-179v-280h186zM345 42q36 0 66.5 11t52.5 31t34 47t12 60t-13.5 59.5t-36.5 45t-54 28t-67 9.5h-187v-291h193z" />
    <glyph glyph-name="C" unicode="C" horiz-adv-x="718" 
d="M56 349q0 75 28.5 141t77.5 114.5t115 77t141 28.5q77 0 135.5 -24t107.5 -69q4 -4 4.5 -9t-3.5 -9l-16 -17q-8 -8 -17 1q-43 38 -96 60t-115 22q-66 0 -123 -25t-99 -68t-66 -100.5t-24 -122.5t24 -122t66 -99.5t99 -67.5t123 -25q65 0 115.5 23t95.5 61q9 7 16 2
l17 -17q9 -8 0 -17q-51 -50 -114 -73.5t-130 -23.5q-75 0 -141 28t-115 76.5t-77.5 114t-28.5 140.5z" />
    <glyph glyph-name="D" unicode="D" horiz-adv-x="738" 
d="M106 687q0 5 3.5 9t8.5 4h212q73 0 137 -27.5t112 -75t75.5 -111t27.5 -135.5q0 -73 -27.5 -137t-75.5 -111.5t-112 -75t-137 -27.5h-212q-5 0 -8.5 4t-3.5 9v674zM322 43q66 0 122.5 23.5t98 65t65.5 97.5t24 122q0 65 -24 121t-65.5 97t-98 64.5t-122.5 23.5h-169v-614
h169z" />
    <glyph glyph-name="E" unicode="E" horiz-adv-x="598" 
d="M106 687q0 13 13 13h401q13 0 13 -13v-17q0 -13 -13 -13h-366v-276h317q13 0 13 -13v-17q0 -13 -13 -13h-317v-296h366q13 0 13 -13v-16q0 -13 -13 -13h-401q-13 0 -13 13v674z" />
    <glyph glyph-name="F" unicode="F" horiz-adv-x="573" 
d="M106 687q0 13 13 13h401q13 0 13 -13v-17q0 -13 -13 -13h-366v-304h317q13 0 13 -13q0 -8 -1 -18.5t-12 -10.5h-317l-1 -298q0 -13 -16 -13h-18q-13 0 -13 13v674z" />
    <glyph glyph-name="G" unicode="G" horiz-adv-x="743" 
d="M56 349q0 75 28.5 141t77.5 114.5t115 77t141 28.5q76 0 134.5 -24t107.5 -69q4 -4 4.5 -9t-3.5 -9q-4 -5 -8 -9l-8 -8q-8 -9 -17 0q-42 39 -95.5 61.5t-115.5 22.5q-65 0 -122 -25t-99 -67.5t-66 -100t-24 -122.5t24 -122.5t66 -100t99 -67.5t122 -25q46 0 82.5 7.5
t63.5 17t42.5 18.5t19.5 12v188h-171q-8 0 -10.5 3t-2.5 10v20q0 6 2.5 9t10.5 3h205q5 0 9 -3.5t4 -8.5v-232q0 -11 -4 -16t-10 -10q-7 -5 -27 -15.5t-51 -21t-72 -19t-90 -8.5q-75 0 -141 28t-115 76.5t-77.5 114t-28.5 140.5z" />
    <glyph glyph-name="H" unicode="H" horiz-adv-x="755" 
d="M106 687q0 13 13 13h21q13 0 13 -13v-307h449v307q0 13 13 13h21q13 0 13 -13v-674q0 -13 -13 -13h-21q-13 0 -13 13v325h-449v-325q0 -13 -13 -13h-21q-13 0 -13 13v674z" />
    <glyph glyph-name="I" unicode="I" horiz-adv-x="260" 
d="M106 687q0 13 13 13h22q13 0 13 -13v-674q0 -6 -4.5 -9.5t-9.5 -3.5h-21q-13 0 -13 13v674z" />
    <glyph glyph-name="J" unicode="J" horiz-adv-x="391" 
d="M-25 65q-6 10 1 17l13 12q4 4 8 4.5t9 -4.5l19 -19t26 -20.5t34 -16t44 -6.5q64 0 105 44t41 134v477q0 13 14 13h20q13 0 13 -13v-476q0 -106 -52 -163.5t-142 -57.5q-33 0 -58.5 9t-44.5 21t-31.5 24.5t-18.5 20.5z" />
    <glyph glyph-name="K" unicode="K" horiz-adv-x="590" 
d="M106 685q0 15 15 15h18q15 0 15 -15v-309l340 317q6 5 9.5 6t10.5 1h28q8 0 9.5 -6t-3.5 -11l-348 -323l359 -343q5 -4 3 -10.5t-12 -6.5h-32q-7 0 -11.5 2t-10.5 8l-342 332v-329q0 -8 -4.5 -10.5t-10.5 -2.5h-20q-13 0 -13 13v672z" />
    <glyph glyph-name="L" unicode="L" horiz-adv-x="489" 
d="M106 687q0 13 13 13h22q5 0 8.5 -4t3.5 -9v-645h319q9 0 11 -4t2 -9v-18q0 -11 -13 -11h-353q-13 0 -13 13v674z" />
    <glyph glyph-name="M" unicode="M" horiz-adv-x="859" 
d="M192 703q2 7 9 7h11q7 0 10 -7l206 -614h2l207 614q3 7 10 7h11q7 0 9 -7l142 -690q3 -13 -11 -13h-24q-10 0 -12 11l-113 586h-2l-202 -599q-3 -8 -14 -8h-4q-4 0 -7.5 1.5t-5.5 6.5l-202 599h-2l-113 -586q-2 -11 -12 -11h-24q-14 0 -11 13z" />
    <glyph glyph-name="N" unicode="N" horiz-adv-x="771" 
d="M106 697q0 6 4.5 9.5t10.5 3.5h17l480 -625h1v602q0 13 13 13h20q13 0 13 -13v-684q0 -7 -5 -10t-11 -3h-13l-3 3t-17.5 21t-44 56t-83 108t-135.5 178t-201 265h-1v-608q0 -13 -13 -13h-19q-13 0 -13 13v684z" />
    <glyph glyph-name="O" unicode="O" horiz-adv-x="833" 
d="M56 349q0 75 28 141t77 114.5t114.5 77t140.5 28.5t141 -28.5t115 -77t77 -114.5t28 -141t-28 -140.5t-77 -114t-115 -76.5t-141 -28t-140.5 28t-114.5 76.5t-77 114t-28 140.5zM100 349q0 -66 25 -123t67.5 -100t100 -67.5t123.5 -24.5t123.5 24.5t100.5 67.5t68 100
t25 123t-25 123.5t-68 100.5t-100.5 68t-123.5 25t-123.5 -25t-100 -68t-67.5 -100.5t-25 -123.5z" />
    <glyph glyph-name="P" unicode="P" horiz-adv-x="594" 
d="M106 687q0 13 13 13h215q46 0 87.5 -17.5t72 -48t48.5 -71.5t18 -87q0 -47 -18 -88.5t-48.5 -72t-71.5 -48.5t-87 -18h-182v-236q0 -13 -16 -13h-18q-13 0 -13 13v674zM332 295q37 0 69.5 14t57.5 39t39.5 58t14.5 71q0 37 -14.5 69t-39.5 56t-58 37.5t-70 13.5h-178
v-358h179z" />
    <glyph glyph-name="Q" unicode="Q" horiz-adv-x="834" 
d="M56 349q0 75 28 141t77 114.5t114.5 77t140.5 28.5t141 -28.5t115 -77t77 -114.5t28 -141q0 -57 -16.5 -109t-46 -95t-71 -76t-91.5 -53l119 -194q2 -4 0.5 -9.5t-7.5 -5.5h-33q-7 0 -13 10l-111 184q-44 -11 -91 -11q-75 0 -140.5 28t-114.5 76.5t-77 114t-28 140.5z
M100 349q0 -66 25 -123t67.5 -100t100 -67.5t123.5 -24.5t123.5 24.5t100.5 67.5t68 100t25 123t-25 123.5t-68 100.5t-100.5 68t-123.5 25t-123.5 -25t-100 -68t-67.5 -100.5t-25 -123.5z" />
    <glyph glyph-name="R" unicode="R" horiz-adv-x="650" 
d="M106 687q0 13 13 13h248q46 0 86.5 -16.5t71 -45t48 -67.5t17.5 -85q0 -38 -12.5 -71.5t-34.5 -60.5t-52 -47t-66 -30l146 -259q4 -6 2.5 -12t-9.5 -6h-31q-10 0 -14 9l-145 262q-10 -1 -18.5 -1h-18.5h-184v-257q0 -13 -16 -13h-18q-13 0 -13 13v674zM365 312
q36 0 68 13.5t56.5 36.5t38.5 55t14 69q0 36 -14 66.5t-38.5 53t-57 35.5t-68.5 13h-210v-342h211z" />
    <glyph glyph-name="S" unicode="S" horiz-adv-x="543" 
d="M67 72q-5 4 -7 8.5t4 12.5l9 12q12 13 22 4q4 -3 19 -15.5t39.5 -26t56.5 -24.5t70 -11q34 0 64.5 10.5t53.5 29t36.5 43t13.5 51.5q0 33 -13.5 58t-38.5 45t-61 36t-81 31q-44 15 -79.5 31.5t-60.5 39t-39 53t-14 73.5q0 28 12 59t37.5 57.5t66.5 43.5t100 17
q37 0 68.5 -8t54.5 -18q27 -11 49 -25q3 -2 6 -7.5t-2 -13.5q-5 -6 -8 -13q-9 -13 -22 -5q-1 1 -13.5 8.5t-32.5 16t-46 15.5t-55 7q-46 0 -78 -13t-52.5 -32.5t-29.5 -43t-9 -44.5q0 -32 11.5 -55.5t33.5 -41.5t52.5 -32t68.5 -26q51 -18 92.5 -36.5t71 -43t45 -56.5
t15.5 -75q0 -38 -18 -70.5t-48 -56.5t-69.5 -37.5t-82.5 -13.5q-45 0 -81.5 11t-64 25.5t-44.5 27.5t-22 18z" />
    <glyph glyph-name="T" unicode="T" horiz-adv-x="472" 
d="M212 657h-191q-13 0 -13 15v15q0 13 13 13h430q13 0 13 -13v-17q0 -13 -13 -13h-192v-644q0 -13 -16 -13h-18q-13 0 -13 13v644z" />
    <glyph glyph-name="U" unicode="U" horiz-adv-x="720" 
d="M98 687q0 13 13 13h21q13 0 13 -13v-427q0 -48 14.5 -89t42.5 -71t67.5 -47t89.5 -17t90 16.5t68 46.5t43 71t15 89v428q0 13 14 13h20q13 0 13 -13v-432q0 -57 -18.5 -106t-53 -84t-83 -55t-108.5 -20q-59 0 -107.5 20t-82.5 55t-52.5 84t-18.5 106v432z" />
    <glyph glyph-name="V" unicode="V" horiz-adv-x="651" 
d="M6 687q-7 13 8 13h27q9 0 11 -7l270 -621h2l273 621q2 7 11 7h26q16 0 9 -14l-307 -687q-4 -9 -12 -9h-5q-5 0 -7.5 3.5t-3.5 5.5z" />
    <glyph glyph-name="W" unicode="W" horiz-adv-x="896" 
d="M39 687q-3 13 11 13h24q10 0 12 -11l168 -586h2l176 598q2 5 6 7t9 2h2q5 0 9 -2t6 -7l177 -598h2l167 586q2 11 12 11h24q14 0 11 -13l-198 -690q-2 -7 -9 -7h-11q-7 0 -10 7l-180 609h-2l-180 -609q-3 -7 -10 -7h-11q-7 0 -9 7z" />
    <glyph glyph-name="X" unicode="X" horiz-adv-x="565" 
d="M252 358l-205 327q-4 6 -2 10.5t10 4.5h32q8 0 13 -6l181 -294h1l183 294q4 6 13 6h32q8 0 10 -4.5t-2 -10.5l-206 -327l219 -343q4 -6 2 -10.5t-10 -4.5h-32q-9 0 -13 6l-196 309h-1l-193 -309q-5 -6 -13 -6h-32q-8 0 -10 4.5t2 10.5z" />
    <glyph glyph-name="Y" unicode="Y" horiz-adv-x="560" 
d="M253 340l-255 345q-5 6 -2.5 10.5t10.5 4.5h30q8 0 13 -6l228 -311l232 311q4 6 13 6h30q8 0 10.5 -4.5t-2.5 -10.5l-260 -344v-328q0 -13 -13 -13q-10 0 -22 0.5t-12 12.5v327z" />
    <glyph glyph-name="Z" unicode="Z" horiz-adv-x="533" 
d="M30 30l406 624v2h-362q-13 0 -13 15v16q0 13 13 13h412q13 0 13 -13v-16l-407 -626v-1h373q13 0 13 -13v-18q0 -13 -13 -13h-421q-14 0 -14 12v18z" />
    <glyph glyph-name="bracketleft" unicode="[" horiz-adv-x="330" 
d="M291 -260q13 0 13 -13v-15q0 -13 -13 -13h-195q-13 0 -13 13v975q0 13 13 13h195q13 0 13 -13v-15q0 -13 -13 -13h-165v-919h165z" />
    <glyph glyph-name="backslash" unicode="\" horiz-adv-x="327" 
d="M26 686q-2 6 1.5 10t10.5 4h14q10 0 13 -8l221 -678q2 -7 -1.5 -10.5t-9.5 -3.5h-15q-10 0 -13 9z" />
    <glyph glyph-name="bracketright" unicode="]" horiz-adv-x="329" 
d="M203 -260v919h-164q-13 0 -13 13v15q0 13 13 13h194q13 0 13 -13v-975q0 -13 -13 -13h-194q-13 0 -13 13v15q0 13 13 13h164z" />
    <glyph glyph-name="asciicircum" unicode="^" horiz-adv-x="524" 
d="M46 400q-8 0 -9.5 5t3.5 11l211 291q5 7 11 7h3q6 0 11 -7l210 -291q5 -6 3.5 -11t-9.5 -5h-23q-10 0 -16 8l-178 247l-178 -247q-6 -8 -16 -8h-23v0z" />
    <glyph glyph-name="underscore" unicode="_" horiz-adv-x="393" 
d="M26 -23q0 13 13 13h315q13 0 13 -13v-10q0 -12 -13 -12h-315q-13 0 -13 12v10v0z" />
    <glyph glyph-name="grave" unicode="`" horiz-adv-x="302" 
d="M76 638q-9 5 -4 15l10 20q3 5 8.5 5t8.5 -2l164 -90q9 -5 6 -14l-5 -10q-4 -8 -16 -3z" />
    <glyph glyph-name="a" unicode="a" horiz-adv-x="427" 
d="M44 123q0 58 44.5 96.5t123.5 38.5q17 0 33.5 -2.5t30 -5.5t23.5 -6t14 -4q0 33 -2.5 57.5t-11.5 41t-26.5 25t-47.5 8.5q-25 0 -45.5 -4t-36 -8.5t-25.5 -9t-13 -5.5q-11 -4 -15 8l-5 12q-4 11 6 15q1 1 11 5.5t27.5 10t42.5 10t56 4.5q46 0 71.5 -13t38 -36.5t15 -55.5
t2.5 -70v-222q0 -13 -13 -13h-12q-9 0 -12 11l-4 36q-20 -18 -55.5 -37.5t-83.5 -19.5q-56 0 -93.5 35.5t-37.5 97.5zM85 124q0 -44 26.5 -69.5t68.5 -25.5q23 0 44 6t38.5 15.5t30.5 20.5t20 20v110q-10 5 -37.5 13t-63.5 8q-57 0 -92 -26.5t-35 -71.5z" />
    <glyph glyph-name="b" unicode="b" 
d="M76 687q0 13 13 13h17q13 0 13 -13v-317q14 11 33 20q16 8 39 14t52 6q42 0 78 -16t62.5 -44t41 -66.5t14.5 -82.5t-14.5 -82.5t-39 -67t-58 -45t-72.5 -16.5q-29 0 -52.5 7t-41.5 17t-29.5 20t-15.5 15l-3 -36q-1 -13 -14 -13h-10q-13 0 -13 13v674zM120 101
q1 -2 9.5 -13t24.5 -24t40.5 -23.5t56.5 -10.5q31 0 58 13.5t46 36.5t30 54t11 66q0 36 -12 66.5t-33 53t-50 35t-63 12.5q-27 0 -49 -6.5t-37 -14.5q-18 -10 -32 -21v-224z" />
    <glyph glyph-name="c" unicode="c" horiz-adv-x="459" 
d="M46 200q0 45 17 83.5t45.5 66.5t67 44t80.5 16q29 0 53.5 -6.5t43 -16.5t31.5 -20.5t20 -19.5q8 -10 -2 -18l-10 -10q-5 -5 -10.5 -4t-10.5 6q-4 4 -13.5 12t-24 15.5t-34 13t-43.5 5.5q-34 0 -64 -12.5t-52.5 -35t-35.5 -52.5t-13 -66t13 -67t35.5 -53.5t52.5 -35.5
t63 -13q28 0 49.5 7.5t37 17.5t25 19.5t13.5 14.5q10 11 19 2l11 -10q8 -8 3 -16q-6 -9 -19.5 -22t-33.5 -25.5t-46.5 -21t-57.5 -8.5q-42 0 -80.5 16t-67 44t-45.5 66.5t-17 83.5z" />
    <glyph glyph-name="d" unicode="d" 
d="M47 200q0 44 14.5 82.5t41 67t62.5 44.5t79 16q29 0 51.5 -6t38.5 -14q18 -9 33 -20v317q0 13 13 13h18q5 0 8.5 -4t3.5 -9v-674q0 -13 -13 -13h-10q-13 0 -14 13l-3 35q-5 -5 -16 -14.5t-28.5 -19.5t-41 -17t-52.5 -7q-39 0 -73 16.5t-58.5 45t-39 66.5t-14.5 82z
M91 200q0 -35 10.5 -66t30 -54t45.5 -36.5t58 -13.5q33 0 57 10.5t40.5 23.5t25 24t9.5 13v224q-14 11 -32 21q-16 8 -38 14.5t-49 6.5q-35 0 -63.5 -12.5t-49.5 -35t-32.5 -53t-11.5 -66.5z" />
    <glyph glyph-name="e" unicode="e" horiz-adv-x="467" 
d="M47 201q0 43 13.5 81t39 66.5t62 45t82.5 16.5q39 0 72.5 -13.5t57.5 -38t37.5 -58t13.5 -73.5q0 -12 -2 -25.5t-13 -13.5h-319q1 -32 13 -61t32.5 -50.5t48.5 -34t62 -12.5q40 0 70 12.5t48 24.5q7 5 10.5 5t7.5 -5l10 -14q5 -7 -4 -16q-8 -8 -22.5 -16t-34 -15
t-42.5 -11.5t-46 -4.5q-46 0 -82.5 16.5t-62 45t-39 67t-13.5 82.5zM381 224q0 29 -9 55.5t-26 46.5t-42.5 32t-59.5 12q-33 0 -60 -11.5t-47 -31t-31.5 -46t-13.5 -57.5h289z" />
    <glyph glyph-name="f" unicode="f" horiz-adv-x="313" 
d="M101 361h-60q-7 0 -10 4t-3 9v13q0 13 13 13h60v137q0 44 11.5 76.5t31.5 54t47.5 32t60.5 10.5q19 0 37 -4t32.5 -10.5t25.5 -14t17 -14.5q7 -9 2 -16l-10 -14q-7 -11 -17 -1q-11 11 -35 22.5t-52 11.5q-48 0 -77.5 -32t-29.5 -101v-137h148q13 0 13 -12v-15
q0 -12 -13 -12h-148v-348q0 -13 -13 -13h-18q-13 0 -13 13v348z" />
    <glyph glyph-name="g" unicode="g" horiz-adv-x="462" 
d="M35 34q0 25 9 44t20 32.5t22 21t15 9.5q-8 11 -19.5 37.5t-11.5 62.5t12 67t35 53.5t55 35.5t73 13h164q13 0 13 -13v-11q0 -4 -2 -7.5t-7 -4.5l-72 -5q7 -4 17.5 -12.5t20.5 -24t17 -38t7 -53.5q0 -33 -11.5 -63.5t-33 -53t-52.5 -36t-69 -13.5q-45 0 -72 12.5t-37 23.5
q-3 -1 -11.5 -6t-17 -13.5t-15.5 -21.5t-7 -31t7 -29t18 -17.5t25 -9t29 -2.5h145q32 0 59.5 -7.5t47 -23t30.5 -40t11 -57.5q0 -32 -14.5 -61.5t-41.5 -52t-64.5 -36t-83.5 -13.5q-51 0 -88 13.5t-60.5 35t-35 47.5t-11.5 52q0 22 7 39.5t16.5 30.5t20.5 21.5t19 13.5
q-8 1 -21 7t-25.5 17.5t-22 27.5t-9.5 39zM238 114q28 0 51 10t39 27.5t24.5 40.5t8.5 50q0 31 -10 55t-27 40.5t-39 24.5t-47 8q-29 0 -52.5 -10t-40 -27t-25.5 -40.5t-9 -50.5q0 -26 8 -49.5t24 -41t39.5 -27.5t55.5 -10zM94 -157q0 -21 10 -41t29 -35.5t47 -25.5t64 -10
q34 0 63 9.5t50.5 25.5t33.5 38t12 48q0 17 -5.5 33t-17.5 28t-31.5 19.5t-47.5 7.5h-126q-4 0 -17 -6t-27.5 -17.5t-25.5 -30t-11 -43.5z" />
    <glyph glyph-name="h" unicode="h" horiz-adv-x="495" 
d="M76 687q0 13 14 13h16q13 0 13 -13v-341q5 5 17 15.5t30.5 21.5t43 19t54.5 8q78 0 119.5 -46.5t41.5 -136.5v-214q0 -13 -13 -13h-18q-13 0 -13 13v214q0 69 -31 104.5t-88 35.5q-31 0 -56.5 -10t-44.5 -23t-30 -24t-12 -13v-284q0 -13 -13 -13h-19q-11 0 -11 13v674z
" />
    <glyph glyph-name="i" unicode="i" horiz-adv-x="196" 
d="M98 596q-14 0 -24 9.5t-10 23.5t10 24.5t24 10.5t24 -10.5t10 -24.5t-10 -23.5t-24 -9.5zM76 387q0 13 13 13h18q13 0 13 -13v-374q0 -13 -13 -13h-20q-11 0 -11 13v374z" />
    <glyph glyph-name="j" unicode="j" horiz-adv-x="195" 
d="M97 596q-14 0 -24 9.5t-10 23.5t10 24.5t24 10.5t24 -10.5t10 -24.5t-10 -23.5t-24 -9.5zM76 387q0 13 13 13h17q13 0 13 -13v-524q0 -89 -40 -131t-106 -42q-39 0 -69 15t-43 28q-7 7 -2 14l10 16q7 10 17 0q13 -10 35.5 -21.5t51.5 -11.5q48 0 75.5 31.5t27.5 101.5
v524z" />
    <glyph glyph-name="k" unicode="k" horiz-adv-x="428" 
d="M76 687q0 13 13 13h17q13 0 13 -13v-448l213 155q7 6 16 6h29q8 0 8.5 -7t-5.5 -11l-215 -158l241 -207q6 -5 3.5 -11t-8.5 -6h-31q-5 0 -9 1.5t-11 6.5l-231 199v-194q0 -13 -13 -13h-19q-11 0 -11 13v674z" />
    <glyph glyph-name="l" unicode="l" horiz-adv-x="196" 
d="M76 687q0 13 13 13h18q13 0 13 -13v-674q0 -13 -13 -13h-20q-11 0 -11 13v674z" />
    <glyph glyph-name="m" unicode="m" horiz-adv-x="763" 
d="M76 387q0 13 13 13h12q9 0 11 -10l5 -43q4 6 14.5 16.5t28 21t41.5 18t54 7.5q46 0 79 -19t52 -54q4 6 16.5 18t32 24.5t45 21.5t56.5 9q82 0 119 -49t37 -134v-214q0 -13 -13 -13h-20q-11 0 -11 13v214q0 140 -115 140q-28 0 -50.5 -8.5t-39 -19.5t-27 -22.5
t-15.5 -17.5q9 -32 9 -72v-214q0 -13 -13 -13h-19q-12 0 -12 13v214q0 69 -29.5 104.5t-86.5 35.5q-30 0 -53.5 -9.5t-40 -22t-25.5 -23.5t-11 -14v-285q0 -13 -13 -13h-20q-11 0 -11 13v374z" />
    <glyph glyph-name="n" unicode="n" horiz-adv-x="495" 
d="M76 387q0 13 14 13h10q10 0 12 -10l4 -43q5 5 17.5 15.5t31.5 21t44 18.5t55 8q84 0 122.5 -49.5t38.5 -133.5v-214q0 -13 -13 -13h-18q-13 0 -13 13v214q0 69 -31 104.5t-88 35.5q-31 0 -56.5 -10t-44.5 -22.5t-30 -23.5t-12 -13v-285q0 -13 -13 -13h-19q-11 0 -11 13
v374z" />
    <glyph glyph-name="o" unicode="o" horiz-adv-x="494" 
d="M46 201q0 43 15.5 81t42.5 66.5t64 45t79 16.5t78.5 -16.5t64 -45t43 -66.5t15.5 -81q0 -44 -15.5 -82.5t-43 -67t-64 -45t-78.5 -16.5t-79 16.5t-64 45t-42.5 67t-15.5 82.5zM89 201q0 -36 12 -67t33.5 -54t50.5 -36t62 -13t61.5 13t50 36t33.5 54t12 67q0 34 -12 64.5
t-33.5 53.5t-50 36t-61.5 13t-62 -13t-50.5 -36t-33.5 -53.5t-12 -64.5z" />
    <glyph glyph-name="p" unicode="p" horiz-adv-x="487" 
d="M119 -287q0 -13 -13 -13h-17q-13 0 -13 13v674q0 6 4.5 9.5t9.5 3.5h11q11 0 12 -10l3 -28q4 4 15 12t27.5 16t39 14t49.5 6q42 0 77 -16.5t61 -45t40.5 -66.5t14.5 -82t-15 -82.5t-42 -67t-64 -44.5t-81 -16q-25 0 -45 5t-35 11.5t-25 13.5t-14 11v-318zM120 79
q1 -2 9 -9.5t22.5 -15.5t35 -15t46.5 -7q36 0 66 13t51.5 36t33.5 53.5t12 66.5q0 35 -11 65.5t-31 53.5t-48 36t-62 13q-29 0 -51.5 -8t-38.5 -18t-24.5 -19t-9.5 -11v-234z" />
    <glyph glyph-name="q" unicode="q" 
d="M47 200q0 44 14.5 82t40 66.5t60.5 45t77 16.5q27 0 49.5 -6t39 -14t27 -16t15.5 -12l4 27q1 11 13 11h11q5 0 8.5 -4t3.5 -9v-674q0 -5 -3.5 -9t-8.5 -4h-18q-13 0 -13 13v319q-4 -4 -13.5 -11t-24.5 -14t-35 -12t-45 -5q-45 0 -82 16t-63.5 44.5t-41.5 67t-15 82.5z
M91 201q0 -36 11.5 -66.5t33 -53.5t51.5 -36t66 -13q25 0 45.5 6.5t35.5 14.5t23 15.5t10 9.5v235q-1 1 -9.5 10t-24.5 19.5t-38.5 18.5t-51.5 8q-35 0 -63 -13t-47.5 -36t-30.5 -53.5t-11 -65.5z" />
    <glyph glyph-name="r" unicode="r" horiz-adv-x="324" 
d="M76 387q0 13 13 13h12q10 0 12 -11l4 -41q4 5 13.5 15.5t25 21t37 18t49.5 7.5q24 0 40 -5t22 -7q16 -5 11 -18l-8 -20q-4 -10 -16 -5q-4 2 -18 7t-34 5q-29 0 -51 -10t-36.5 -22.5t-22.5 -23.5t-9 -13v-285q0 -13 -13 -13h-20q-11 0 -11 13v374z" />
    <glyph glyph-name="s" unicode="s" horiz-adv-x="370" 
d="M57 35q-3 2 -4.5 6t0.5 8l10 16q2 4 7.5 5t10.5 -4q4 -3 13 -9.5t23 -13t32 -11.5t39 -5q43 0 69.5 21t26.5 50q0 17 -8 30t-23 23t-35.5 19t-45.5 18q-27 9 -49.5 20t-39 25t-25.5 32t-9 41q0 16 7.5 34.5t23.5 34t40.5 25.5t59.5 10q40 0 69 -11t44 -21q11 -7 4 -19
l-6 -11q-7 -12 -19 -5q-3 2 -12 7t-21.5 9.5t-27.5 8t-31 3.5q-24 0 -40 -6t-26.5 -15.5t-15 -21t-4.5 -21.5q0 -30 25 -47t70 -33q28 -11 53.5 -21.5t45 -24.5t31 -33.5t11.5 -46.5q0 -23 -11 -43t-30 -35t-45 -24t-56 -9q-51 0 -82.5 16t-48.5 29z" />
    <glyph glyph-name="t" unicode="t" horiz-adv-x="329" 
d="M93 361h-47q-8 0 -10 3.5t-2 9.5v16q0 10 12 10h47v109q0 13 13 13l17 1q13 0 13 -13v-110h139q13 0 13 -13v-13q0 -13 -13 -13h-139v-255q0 -35 8.5 -54t43.5 -19q13 0 27 3t26.5 7.5t22.5 9t15 7.5q7 4 10.5 2t5.5 -6l7 -12q6 -11 -3 -17q-11 -9 -42 -23t-74 -14
q-31 0 -49 8.5t-27 24t-11.5 36t-2.5 44.5v258z" />
    <glyph glyph-name="u" unicode="u" horiz-adv-x="485" 
d="M70 387q0 13 13 13h18q13 0 13 -13v-215q0 -70 31 -105t88 -35q31 0 55 10t41 23t26 24t10 13v285q0 13 13 13h18q13 0 13 -13v-374q0 -13 -13 -13h-12q-6 0 -8.5 3.5t-3.5 8.5l-4 39q-4 -5 -15 -15.5t-28.5 -20.5t-41 -17.5t-53.5 -7.5q-84 0 -122 48.5t-38 133.5v215z
" />
    <glyph glyph-name="v" unicode="v" horiz-adv-x="408" 
d="M17 385q-3 6 -2 10.5t8 4.5h22q9 0 13 -9l145 -330h1l146 330q4 9 13 9h22q7 0 8 -4.5t-2 -10.5l-174 -386q-5 -9 -12 -9h-4q-8 0 -12 9z" />
    <glyph glyph-name="w" unicode="w" horiz-adv-x="606" 
d="M34 384q-5 16 6 16h22q10 0 13 -9l94 -315h1l119 325q3 9 12 9h4q9 0 12 -9l119 -325h1l94 315q3 9 13 9h22q11 0 6 -16l-120 -385q-3 -9 -12 -9h-4q-9 0 -12 9l-121 337h-1l-120 -337q-3 -9 -12 -9h-4q-9 0 -12 9z" />
    <glyph glyph-name="x" unicode="x" horiz-adv-x="418" 
d="M182 205l-139 181q-5 5 -2.5 9.5t8.5 4.5h26q9 0 15 -9l117 -155h1l118 155q6 9 15 9h26q6 0 8.5 -4.5t-2.5 -9.5l-138 -180l145 -192q5 -5 2.5 -9.5t-8.5 -4.5h-26q-9 0 -15 9l-125 167h-1l-125 -167q-6 -9 -15 -9h-26q-6 0 -8.5 4.5t2.5 9.5z" />
    <glyph glyph-name="y" unicode="y" horiz-adv-x="443" 
d="M15 384q-3 6 -2 11t8 5h22q8 0 13 -9l171 -338h2l156 338q4 9 13 9h22q7 0 8 -5t-2 -11l-314 -676q-3 -8 -13 -8h-23q-13 0 -7 14l135 290z" />
    <glyph glyph-name="z" unicode="z" horiz-adv-x="371" 
d="M34 22l235 335v3h-204q-12 0 -12 13v14q0 13 12 13h259q8 0 12 -6t-1 -13l-234 -338v-3h207q13 0 13 -13v-14q0 -13 -13 -13h-262q-12 0 -12 11v11z" />
    <glyph glyph-name="braceleft" unicode="{" horiz-adv-x="365" 
d="M108 96q0 24 -8.5 40t-20 26t-24 15t-20.5 8q-5 2 -7 3t-2 6v16q0 5 2 6t7 3q8 3 20.5 8t24 15t20 26t8.5 40v160q0 69 19.5 115.5t50 74.5t69.5 40t78 12q5 0 9.5 -3.5t4.5 -8.5v-12q0 -10 -10 -12q-80 -6 -129 -55t-49 -152v-159q0 -26 -9.5 -45.5t-21.5 -32.5t-23 -20
t-14 -8v-1q2 -1 13 -7.5t23 -19t22 -32t10 -46.5v-163q0 -103 49 -152t129 -55q10 -2 10 -12v-12q0 -5 -4.5 -8.5t-9.5 -3.5q-39 0 -78 12t-69.5 40t-50 74.5t-19.5 115.5v164z" />
    <glyph glyph-name="bar" unicode="|" horiz-adv-x="195" 
d="M82 746q0 13 13 13h6q12 0 12 -13v-1034q0 -12 -13 -12h-5q-13 0 -13 12v1034z" />
    <glyph glyph-name="braceright" unicode="}" horiz-adv-x="365" 
d="M214 96q0 26 9.5 45t21.5 32t23 19.5t14 8.5v1q-2 1 -13 7.5t-23 19.5t-22 32.5t-10 46.5v159q0 103 -49 152t-129 55q-10 2 -10 12v12q0 5 4.5 8.5t9.5 3.5q39 0 78 -12t69.5 -40t50 -74.5t19.5 -115.5v-160q0 -24 8.5 -40t20 -26t24 -15t20.5 -8q5 -2 7 -3t2 -6v-16
q0 -5 -2 -6t-7 -3q-8 -3 -20.5 -8t-24 -15t-20 -26t-8.5 -40v-164q0 -69 -19.5 -115.5t-50 -74.5t-69.5 -40t-78 -12q-5 0 -9.5 3.5t-4.5 8.5v12q0 10 10 12q80 6 129 55t49 152v163z" />
    <glyph glyph-name="asciitilde" unicode="~" horiz-adv-x="574" 
d="M68 249q-8 7 -2 16q15 26 35 47q17 18 41.5 33t56.5 15q35 0 61 -17.5t44 -36.5q13 -14 33.5 -29.5t45.5 -15.5q23 0 41 10.5t30.5 24t20 26t9.5 16.5q8 11 17 3l13 -9q10 -7 3 -16q-15 -27 -35 -48q-17 -18 -42 -32.5t-57 -14.5q-35 0 -59.5 18t-42.5 35
q-14 14 -34.5 29.5t-47.5 15.5q-23 0 -40.5 -10.5t-30 -24t-20 -26t-9.5 -16.5q-8 -11 -18 -3z" />
    <glyph glyph-name="uni00A0" unicode="&#xa0;" horiz-adv-x="217" 
 />
    <glyph glyph-name="Agrave" unicode="&#xc0;" horiz-adv-x="653" 
d="M13 0q-12 0 -7 12l308 696q3 7 12 7h3q9 0 13 -7l305 -696q2 -5 0.5 -8.5t-9.5 -3.5h-26q-5 0 -8.5 3t-5.5 6l-81 184h-382l-80 -184q-2 -3 -5.5 -6t-8.5 -3h-28zM500 232l-171 403h-2l-174 -403h347zM246 861q-9 5 -4 15l10 20q3 5 8.5 5t8.5 -2l164 -90q9 -5 6 -14
l-5 -10q-4 -8 -16 -3z" />
    <glyph glyph-name="Aacute" unicode="&#xc1;" horiz-adv-x="653" 
d="M13 0q-12 0 -7 12l308 696q3 7 12 7h3q9 0 13 -7l305 -696q2 -5 0.5 -8.5t-9.5 -3.5h-26q-5 0 -8.5 3t-5.5 6l-81 184h-382l-80 -184q-2 -3 -5.5 -6t-8.5 -3h-28zM500 232l-171 403h-2l-174 -403h347zM262 782q-12 -5 -16 3l-5 10q-3 9 6 14l164 90q3 2 8.5 2t8.5 -5
l10 -20q5 -10 -4 -15l-172 -79v0z" />
    <glyph glyph-name="Acircumflex" unicode="&#xc2;" horiz-adv-x="653" 
d="M13 0q-12 0 -7 12l308 696q3 7 12 7h3q9 0 13 -7l305 -696q2 -5 0.5 -8.5t-9.5 -3.5h-26q-5 0 -8.5 3t-5.5 6l-81 184h-382l-80 -184q-2 -3 -5.5 -6t-8.5 -3h-28zM500 232l-171 403h-2l-174 -403h347zM217 768q-6 -5 -9.5 -3t-5.5 5l-9 11q-5 7 4 14l121 98q5 5 10 5h3
q5 0 10 -5l121 -98q9 -7 4 -14l-9 -11q-2 -3 -5.5 -5t-9.5 3l-113 84l-112 -84v0z" />
    <glyph glyph-name="Atilde" unicode="&#xc3;" horiz-adv-x="653" 
d="M13 0q-12 0 -7 12l308 696q3 7 12 7h3q9 0 13 -7l305 -696q2 -5 0.5 -8.5t-9.5 -3.5h-26q-5 0 -8.5 3t-5.5 6l-81 184h-382l-80 -184q-2 -3 -5.5 -6t-8.5 -3h-28zM500 232l-171 403h-2l-174 -403h347zM187 804q-10 3 -6 14q3 7 8.5 21t16.5 28.5t27.5 25.5t40.5 11
q27 0 41.5 -14t24 -31.5t19.5 -31.5t28 -14q14 0 23.5 6.5t16.5 16t11 19.5t6 17q4 13 15 7l11 -4q3 -2 5.5 -4.5t0.5 -8.5q-1 -3 -5.5 -17t-15 -29t-28 -27.5t-43.5 -12.5t-40.5 14.5t-24.5 31.5t-20 31.5t-28 14.5q-14 0 -24 -7t-16.5 -17t-10.5 -20.5t-6 -17.5
q-3 -12 -15 -7z" />
    <glyph glyph-name="Adieresis" unicode="&#xc4;" horiz-adv-x="653" 
d="M13 0q-12 0 -7 12l308 696q3 7 12 7h3q9 0 13 -7l305 -696q2 -5 0.5 -8.5t-9.5 -3.5h-26q-5 0 -8.5 3t-5.5 6l-81 184h-382l-80 -184q-2 -3 -5.5 -6t-8.5 -3h-28zM500 232l-171 403h-2l-174 -403h347zM435 801q-14 0 -24 9.5t-10 23.5q0 15 10 25t24 10q15 0 25 -10
t10 -25q0 -14 -10 -23.5t-25 -9.5zM226 801q-14 0 -24 9.5t-10 23.5q0 15 10 25t24 10q15 0 25 -10t10 -25q0 -14 -10 -23.5t-25 -9.5z" />
    <glyph glyph-name="Amacron" unicode="&#x100;" horiz-adv-x="653" 
d="M13 0q-12 0 -7 12l308 696q3 7 12 7h3q9 0 13 -7l305 -696q2 -5 0.5 -8.5t-9.5 -3.5h-26q-5 0 -8.5 3t-5.5 6l-81 184h-382l-80 -184q-2 -3 -5.5 -6t-8.5 -3h-28zM500 232l-171 403h-2l-174 -403h347zM195 831q-13 0 -13 13v12q0 13 13 13h272q13 0 13 -13v-12
q0 -13 -13 -13h-272v0z" />
    <glyph glyph-name="Abreve" unicode="&#x102;" horiz-adv-x="653" 
d="M13 0q-12 0 -7 12l308 696q3 7 12 7h3q9 0 13 -7l305 -696q2 -5 0.5 -8.5t-9.5 -3.5h-26q-5 0 -8.5 3t-5.5 6l-81 184h-382l-80 -184q-2 -3 -5.5 -6t-8.5 -3h-28zM500 232l-171 403h-2l-174 -403h347zM331 775q-26 0 -48.5 8.5t-39.5 23.5t-28.5 35.5t-14.5 43.5
q-1 5 1.5 9.5t8.5 4.5h13q5 0 7.5 -3.5t4.5 -8.5q9 -33 34 -55.5t62 -22.5q35 0 61 22.5t34 55.5q3 12 12 12h14q5 0 8 -4.5t2 -9.5q-8 -48 -44 -79.5t-87 -31.5z" />
    <glyph glyph-name="Aring" unicode="&#xc5;" horiz-adv-x="653" 
d="M13 0q-12 0 -7 12l308 696q3 7 12 7h3q9 0 13 -7l305 -696q2 -5 0.5 -8.5t-9.5 -3.5h-26q-5 0 -8.5 3t-5.5 6l-81 184h-382l-80 -184q-2 -3 -5.5 -6t-8.5 -3h-28zM500 232l-171 403h-2l-174 -403h347zM331 754q-23 0 -42 8t-33.5 22.5t-22.5 33.5t-8 42q0 22 8 42
t22.5 34t33.5 22.5t42 8.5q22 0 41.5 -8.5t34 -22.5t23 -34t8.5 -42q0 -23 -8.5 -42t-23 -33.5t-34 -22.5t-41.5 -8zM331 786q30 0 52 22t22 52t-22 52t-52 22t-52 -22t-22 -52t22 -52t52 -22z" />
    <glyph glyph-name="Aringacute" unicode="&#x1fa;" horiz-adv-x="653" 
d="M229 921q-3 9 6 14l164 90q3 2 8.5 2t8.5 -5l10 -20q5 -10 -4 -15l-172 -79q-12 -5 -16 3zM13 0q-12 0 -7 12l300 679q-35 8 -58 36.5t-23 67.5q0 22 8 42t22.5 34t33.5 22.5t42 8.5q22 0 41.5 -8.5t34 -22.5t23 -34t8.5 -42q0 -41 -25.5 -69.5t-63.5 -35.5l298 -678
q2 -5 0.5 -8.5t-9.5 -3.5h-26q-5 0 -8.5 3t-5.5 6l-81 184h-382l-80 -184q-2 -3 -5.5 -6t-8.5 -3h-28zM331 721q30 0 52 22t22 52t-22 52t-52 22t-52 -22t-22 -52t22 -52t52 -22zM500 232l-171 403h-2l-174 -403h347z" />
    <glyph glyph-name="Aogonek" unicode="&#x104;" horiz-adv-x="653" 
d="M13 0q-12 0 -7 12l308 696q3 7 12 7h3q9 0 13 -7l305 -696q2 -5 0.5 -8.5t-9.5 -3.5h-14q-8 -6 -19 -15.5t-21.5 -24t-18 -33t-7.5 -40.5q0 -34 22.5 -50.5t51.5 -16.5q23 0 38.5 5.5t23.5 9.5q11 6 13 -8l1 -10q1 -10 -8 -16q-9 -5 -29 -11t-44 -6q-21 0 -40.5 5.5
t-34.5 17.5t-24 30.5t-9 44.5q0 27 9.5 48t22.5 37t26.5 26t21.5 15l-82 185h-382l-80 -184q-2 -3 -5.5 -6t-8.5 -3h-28zM500 232l-171 403h-2l-174 -403h347z" />
    <glyph glyph-name="AE" unicode="&#xc6;" horiz-adv-x="915" 
d="M-4 0q-7 0 -8 5t4 12l425 666q5 8 9.5 12.5t15.5 4.5h393q13 0 13 -13v-16q0 -13 -13 -13h-369v-277h321q13 0 13 -13v-17q0 -13 -13 -13h-321v-296h369q9 0 11 -4.5t2 -9.5v-15q0 -13 -13 -13h-400q-13 0 -13 13v180h-266l-116 -184q-6 -9 -16 -9h-28zM422 232v382
l-243 -382h243z" />
    <glyph glyph-name="AEacute" unicode="&#x1fc;" horiz-adv-x="915" 
d="M-4 0q-7 0 -8 5t4 12l425 666q5 8 9.5 12.5t15.5 4.5h393q13 0 13 -13v-16q0 -13 -13 -13h-369v-277h321q13 0 13 -13v-17q0 -13 -13 -13h-321v-296h369q9 0 11 -4.5t2 -9.5v-15q0 -13 -13 -13h-400q-13 0 -13 13v180h-266l-116 -184q-6 -9 -16 -9h-28zM422 232v382
l-243 -382h243zM537 783q-12 -5 -16 3l-5 10q-3 9 6 14l164 90q3 2 8.5 2t8.5 -5l10 -20q5 -10 -4 -15l-172 -79v0z" />
    <glyph glyph-name="Cacute" unicode="&#x106;" horiz-adv-x="718" 
d="M56 349q0 75 28.5 141t77.5 114.5t115 77t141 28.5q77 0 135.5 -24t107.5 -69q4 -4 4.5 -9t-3.5 -9l-16 -17q-8 -8 -17 1q-43 38 -96 60t-115 22q-66 0 -123 -25t-99 -68t-66 -100.5t-24 -122.5t24 -122t66 -99.5t99 -67.5t123 -25q65 0 115.5 23t95.5 61q9 7 16 2
l17 -17q9 -8 0 -17q-51 -50 -114 -73.5t-130 -23.5q-75 0 -141 28t-115 76.5t-77.5 114t-28.5 140.5zM350 782q-12 -5 -16 3l-5 10q-3 9 6 14l164 90q3 2 8.5 2t8.5 -5l10 -20q5 -10 -4 -15l-172 -79v0z" />
    <glyph glyph-name="Ccircumflex" unicode="&#x108;" horiz-adv-x="718" 
d="M56 349q0 75 28.5 141t77.5 114.5t115 77t141 28.5q77 0 135.5 -24t107.5 -69q4 -4 4.5 -9t-3.5 -9l-16 -17q-8 -8 -17 1q-43 38 -96 60t-115 22q-66 0 -123 -25t-99 -68t-66 -100.5t-24 -122.5t24 -122t66 -99.5t99 -67.5t123 -25q65 0 115.5 23t95.5 61q9 7 16 2
l17 -17q9 -8 0 -17q-51 -50 -114 -73.5t-130 -23.5q-75 0 -141 28t-115 76.5t-77.5 114t-28.5 140.5zM305 768q-6 -5 -9.5 -3t-5.5 5l-9 11q-5 7 4 14l121 98q5 5 10 5h3q5 0 10 -5l121 -98q9 -7 4 -14l-9 -11q-2 -3 -5.5 -5t-9.5 3l-113 84l-112 -84v0z" />
    <glyph glyph-name="Ccaron" unicode="&#x10c;" horiz-adv-x="718" 
d="M56 349q0 75 28.5 141t77.5 114.5t115 77t141 28.5q77 0 135.5 -24t107.5 -69q4 -4 4.5 -9t-3.5 -9l-16 -17q-8 -8 -17 1q-43 38 -96 60t-115 22q-66 0 -123 -25t-99 -68t-66 -100.5t-24 -122.5t24 -122t66 -99.5t99 -67.5t123 -25q65 0 115.5 23t95.5 61q9 7 16 2
l17 -17q9 -8 0 -17q-51 -50 -114 -73.5t-130 -23.5q-75 0 -141 28t-115 76.5t-77.5 114t-28.5 140.5zM417 763q-5 0 -10 5l-121 98q-9 7 -4 14l9 11q2 3 5.5 5t9.5 -3l113 -84l112 84q6 5 9.5 3t5.5 -5l9 -11q5 -7 -4 -14l-121 -98q-5 -5 -10 -5h-3v0z" />
    <glyph glyph-name="Cdotaccent" unicode="&#x10a;" horiz-adv-x="718" 
d="M56 349q0 75 28.5 141t77.5 114.5t115 77t141 28.5q77 0 135.5 -24t107.5 -69q4 -4 4.5 -9t-3.5 -9l-16 -17q-8 -8 -17 1q-43 38 -96 60t-115 22q-66 0 -123 -25t-99 -68t-66 -100.5t-24 -122.5t24 -122t66 -99.5t99 -67.5t123 -25q65 0 115.5 23t95.5 61q9 7 16 2
l17 -17q9 -8 0 -17q-51 -50 -114 -73.5t-130 -23.5q-75 0 -141 28t-115 76.5t-77.5 114t-28.5 140.5zM418 810q-16 0 -27 11t-11 27t11 27t27 11t27 -11t11 -27t-11 -27t-27 -11z" />
    <glyph glyph-name="Ccedilla" unicode="&#xc7;" horiz-adv-x="718" 
d="M56 349q0 75 28.5 141t77.5 114.5t115 77t141 28.5q77 0 135.5 -24t107.5 -69q4 -4 4.5 -9t-3.5 -9l-16 -17q-8 -8 -17 1q-43 38 -96 60t-115 22q-66 0 -123 -25t-99 -68t-66 -100.5t-24 -122.5t24 -122t66 -99.5t99 -67.5t123 -25q65 0 115.5 23t95.5 61q9 7 16 2
l17 -17q9 -8 0 -17q-51 -50 -114 -73.5t-130 -23.5q-4 0 -7.5 0.5t-7.5 0.5v-45q45 -5 76 -28.5t31 -68.5q0 -20 -7.5 -37.5t-20.5 -31t-31 -21t-39 -7.5q-29 0 -50 11.5t-28 22.5t1 18l10 8q7 6 16 -3q5 -5 17 -13t34 -8q27 0 43 17.5t16 42.5q0 18 -8.5 30t-21.5 20
t-29.5 12t-32.5 6q-12 3 -12 13v65q-66 9 -123 39.5t-98.5 77.5t-65.5 108t-24 130z" />
    <glyph glyph-name="Dcaron" unicode="&#x10e;" horiz-adv-x="738" 
d="M106 687q0 5 3.5 9t8.5 4h212q73 0 137 -27.5t112 -75t75.5 -111t27.5 -135.5q0 -73 -27.5 -137t-75.5 -111.5t-112 -75t-137 -27.5h-212q-5 0 -8.5 4t-3.5 9v674zM322 43q66 0 122.5 23.5t98 65t65.5 97.5t24 122q0 65 -24 121t-65.5 97t-98 64.5t-122.5 23.5h-169v-614
h169zM322 763q-5 0 -10 5l-121 98q-9 7 -4 14l9 11q2 3 5.5 5t9.5 -3l113 -84l112 84q6 5 9.5 3t5.5 -5l9 -11q5 -7 -4 -14l-121 -98q-5 -5 -10 -5h-3v0z" />
    <glyph glyph-name="Dcroat" unicode="&#x110;" horiz-adv-x="741" 
d="M109 332h-35q-12 0 -12 13v5q0 13 12 13h35v324q0 13 12 13h212q73 0 137 -27.5t112 -75t75.5 -111t27.5 -135.5q0 -73 -27.5 -137t-75.5 -111.5t-112 -75t-137 -27.5h-212q-12 0 -12 13v319zM325 43q65 0 121.5 23.5t98 65t65.5 97.5t24 122q0 65 -24 121t-65.5 97
t-98 64.5t-121.5 23.5h-169v-294h250q13 0 13 -13v-6q0 -12 -13 -12h-250v-289h169z" />
    <glyph glyph-name="Eth" unicode="&#xd0;" horiz-adv-x="741" 
d="M109 332h-35q-12 0 -12 13v5q0 13 12 13h35v324q0 13 12 13h212q73 0 137 -27.5t112 -75t75.5 -111t27.5 -135.5q0 -73 -27.5 -137t-75.5 -111.5t-112 -75t-137 -27.5h-212q-12 0 -12 13v319zM325 43q65 0 121.5 23.5t98 65t65.5 97.5t24 122q0 65 -24 121t-65.5 97
t-98 64.5t-121.5 23.5h-169v-294h250q13 0 13 -13v-6q0 -12 -13 -12h-250v-289h169z" />
    <glyph glyph-name="Egrave" unicode="&#xc8;" horiz-adv-x="598" 
d="M106 687q0 13 13 13h401q13 0 13 -13v-17q0 -13 -13 -13h-366v-276h317q13 0 13 -13v-17q0 -13 -13 -13h-317v-296h366q13 0 13 -13v-16q0 -13 -13 -13h-401q-13 0 -13 13v674zM230 861q-9 5 -4 15l10 20q3 5 8.5 5t8.5 -2l164 -90q9 -5 6 -14l-5 -10q-4 -8 -16 -3z" />
    <glyph glyph-name="Eacute" unicode="&#xc9;" horiz-adv-x="598" 
d="M106 687q0 13 13 13h401q13 0 13 -13v-17q0 -13 -13 -13h-366v-276h317q13 0 13 -13v-17q0 -13 -13 -13h-317v-296h366q13 0 13 -13v-16q0 -13 -13 -13h-401q-13 0 -13 13v674zM246 782q-12 -5 -16 3l-5 10q-3 9 6 14l164 90q3 2 8.5 2t8.5 -5l10 -20q5 -10 -4 -15
l-172 -79v0z" />
    <glyph glyph-name="Ecircumflex" unicode="&#xca;" horiz-adv-x="598" 
d="M106 687q0 13 13 13h401q13 0 13 -13v-17q0 -13 -13 -13h-366v-276h317q13 0 13 -13v-17q0 -13 -13 -13h-317v-296h366q13 0 13 -13v-16q0 -13 -13 -13h-401q-13 0 -13 13v674zM201 768q-6 -5 -9.5 -3t-5.5 5l-9 11q-5 7 4 14l121 98q5 5 10 5h3q5 0 10 -5l121 -98
q9 -7 4 -14l-9 -11q-2 -3 -5.5 -5t-9.5 3l-113 84l-112 -84v0z" />
    <glyph glyph-name="Ecaron" unicode="&#x11a;" horiz-adv-x="598" 
d="M106 687q0 13 13 13h401q13 0 13 -13v-17q0 -13 -13 -13h-366v-276h317q13 0 13 -13v-17q0 -13 -13 -13h-317v-296h366q13 0 13 -13v-16q0 -13 -13 -13h-401q-13 0 -13 13v674zM313 763q-5 0 -10 5l-121 98q-9 7 -4 14l9 11q2 3 5.5 5t9.5 -3l113 -84l112 84q6 5 9.5 3
t5.5 -5l9 -11q5 -7 -4 -14l-121 -98q-5 -5 -10 -5h-3v0z" />
    <glyph glyph-name="Edieresis" unicode="&#xcb;" horiz-adv-x="598" 
d="M106 687q0 13 13 13h401q13 0 13 -13v-17q0 -13 -13 -13h-366v-276h317q13 0 13 -13v-17q0 -13 -13 -13h-317v-296h366q13 0 13 -13v-16q0 -13 -13 -13h-401q-13 0 -13 13v674zM423 801q-14 0 -24 9.5t-10 23.5q0 15 10 25t24 10q15 0 25 -10t10 -25q0 -14 -10 -23.5
t-25 -9.5zM214 801q-14 0 -24 9.5t-10 23.5q0 15 10 25t24 10q15 0 25 -10t10 -25q0 -14 -10 -23.5t-25 -9.5z" />
    <glyph glyph-name="Emacron" unicode="&#x112;" horiz-adv-x="598" 
d="M106 687q0 13 13 13h401q13 0 13 -13v-17q0 -13 -13 -13h-366v-276h317q13 0 13 -13v-17q0 -13 -13 -13h-317v-296h366q13 0 13 -13v-16q0 -13 -13 -13h-401q-13 0 -13 13v674zM190 831q-13 0 -13 13v12q0 13 13 13h272q13 0 13 -13v-12q0 -13 -13 -13h-272v0z" />
    <glyph glyph-name="Ebreve" unicode="&#x114;" horiz-adv-x="598" 
d="M106 687q0 13 13 13h401q13 0 13 -13v-17q0 -13 -13 -13h-366v-276h317q13 0 13 -13v-17q0 -13 -13 -13h-317v-296h366q13 0 13 -13v-16q0 -13 -13 -13h-401q-13 0 -13 13v674zM315 775q-26 0 -48.5 8.5t-39.5 23.5t-28.5 35.5t-14.5 43.5q-1 5 1.5 9.5t8.5 4.5h13
q5 0 7.5 -3.5t4.5 -8.5q9 -33 34 -55.5t62 -22.5q35 0 61 22.5t34 55.5q3 12 12 12h14q5 0 8 -4.5t2 -9.5q-8 -48 -44 -79.5t-87 -31.5z" />
    <glyph glyph-name="Edotaccent" unicode="&#x116;" horiz-adv-x="598" 
d="M106 687q0 13 13 13h401q13 0 13 -13v-17q0 -13 -13 -13h-366v-276h317q13 0 13 -13v-17q0 -13 -13 -13h-317v-296h366q13 0 13 -13v-16q0 -13 -13 -13h-401q-13 0 -13 13v674zM316 810q-16 0 -27 11t-11 27t11 27t27 11t27 -11t11 -27t-11 -27t-27 -11z" />
    <glyph glyph-name="Eogonek" unicode="&#x118;" horiz-adv-x="598" 
d="M106 687q0 13 13 13h401q13 0 13 -13v-17q0 -13 -13 -13h-366v-276h317q13 0 13 -13v-17q0 -13 -13 -13h-317v-296h366q13 0 13 -13v-11q0 -6 -4.5 -10.5t-9.5 -7.5q-8 -6 -19 -15.5t-21.5 -24t-18 -33t-7.5 -40.5q0 -34 22.5 -50.5t51.5 -16.5q23 0 38.5 5.5t23.5 9.5
q11 6 13 -8l1 -10q1 -10 -8 -16q-9 -5 -29 -11t-44 -6q-21 0 -40.5 5.5t-34.5 17.5t-24 30.5t-9 44.5q0 22 7 41t17 34t21.5 25.5t21.5 17.5h-362q-13 0 -13 13v674z" />
    <glyph glyph-name="Gcircumflex" unicode="&#x11c;" horiz-adv-x="743" 
d="M56 349q0 75 28.5 141t77.5 114.5t115 77t141 28.5q76 0 134.5 -24t107.5 -69q4 -4 4.5 -9t-3.5 -9q-4 -5 -8 -9l-8 -8q-8 -9 -17 0q-42 39 -95.5 61.5t-115.5 22.5q-65 0 -122 -25t-99 -67.5t-66 -100t-24 -122.5t24 -122.5t66 -100t99 -67.5t122 -25q46 0 82.5 7.5
t63.5 17t42.5 18.5t19.5 12v188h-171q-8 0 -10.5 3t-2.5 10v20q0 6 2.5 9t10.5 3h205q5 0 9 -3.5t4 -8.5v-232q0 -11 -4 -16t-10 -10q-7 -5 -27 -15.5t-51 -21t-72 -19t-90 -8.5q-75 0 -141 28t-115 76.5t-77.5 114t-28.5 140.5zM304 768q-6 -5 -9.5 -3t-5.5 5l-9 11
q-5 7 4 14l121 98q5 5 10 5h3q5 0 10 -5l121 -98q9 -7 4 -14l-9 -11q-2 -3 -5.5 -5t-9.5 3l-113 84l-112 -84v0z" />
    <glyph glyph-name="Gbreve" unicode="&#x11e;" horiz-adv-x="743" 
d="M56 349q0 75 28.5 141t77.5 114.5t115 77t141 28.5q76 0 134.5 -24t107.5 -69q4 -4 4.5 -9t-3.5 -9q-4 -5 -8 -9l-8 -8q-8 -9 -17 0q-42 39 -95.5 61.5t-115.5 22.5q-65 0 -122 -25t-99 -67.5t-66 -100t-24 -122.5t24 -122.5t66 -100t99 -67.5t122 -25q46 0 82.5 7.5
t63.5 17t42.5 18.5t19.5 12v188h-171q-8 0 -10.5 3t-2.5 10v20q0 6 2.5 9t10.5 3h205q5 0 9 -3.5t4 -8.5v-232q0 -11 -4 -16t-10 -10q-7 -5 -27 -15.5t-51 -21t-72 -19t-90 -8.5q-75 0 -141 28t-115 76.5t-77.5 114t-28.5 140.5zM418 775q-26 0 -48.5 8.5t-39.5 23.5
t-28.5 35.5t-14.5 43.5q-1 5 1.5 9.5t8.5 4.5h13q5 0 7.5 -3.5t4.5 -8.5q9 -33 34 -55.5t62 -22.5q35 0 61 22.5t34 55.5q3 12 12 12h14q5 0 8 -4.5t2 -9.5q-8 -48 -44 -79.5t-87 -31.5z" />
    <glyph glyph-name="Gdotaccent" unicode="&#x120;" horiz-adv-x="743" 
d="M56 349q0 75 28.5 141t77.5 114.5t115 77t141 28.5q76 0 134.5 -24t107.5 -69q4 -4 4.5 -9t-3.5 -9q-4 -5 -8 -9l-8 -8q-8 -9 -17 0q-42 39 -95.5 61.5t-115.5 22.5q-65 0 -122 -25t-99 -67.5t-66 -100t-24 -122.5t24 -122.5t66 -100t99 -67.5t122 -25q46 0 82.5 7.5
t63.5 17t42.5 18.5t19.5 12v188h-171q-8 0 -10.5 3t-2.5 10v20q0 6 2.5 9t10.5 3h205q5 0 9 -3.5t4 -8.5v-232q0 -11 -4 -16t-10 -10q-7 -5 -27 -15.5t-51 -21t-72 -19t-90 -8.5q-75 0 -141 28t-115 76.5t-77.5 114t-28.5 140.5zM417 810q-16 0 -27 11t-11 27t11 27t27 11
t27 -11t11 -27t-11 -27t-27 -11z" />
    <glyph glyph-name="Gcommaaccent" unicode="&#x122;" horiz-adv-x="743" 
d="M56 349q0 75 28.5 141t77.5 114.5t115 77t141 28.5q76 0 134.5 -24t107.5 -69q4 -4 4.5 -9t-3.5 -9q-4 -5 -8 -9l-8 -8q-8 -9 -17 0q-42 39 -95.5 61.5t-115.5 22.5q-65 0 -122 -25t-99 -67.5t-66 -100t-24 -122.5t24 -122.5t66 -100t99 -67.5t122 -25q46 0 82.5 7.5
t63.5 17t42.5 18.5t19.5 12v188h-171q-8 0 -10.5 3t-2.5 10v20q0 6 2.5 9t10.5 3h205q5 0 9 -3.5t4 -8.5v-232q0 -11 -4 -16t-10 -10q-7 -5 -27 -15.5t-51 -21t-72 -19t-90 -8.5q-75 0 -141 28t-115 76.5t-77.5 114t-28.5 140.5zM373 -141q0 18 11.5 28.5t30.5 10.5
q22 0 39 -22t17 -72q0 -30 -8.5 -54t-20.5 -41.5t-24 -28.5t-19 -15q-12 -7 -17 0l-8 10q-7 8 4 16q2 1 10 7.5t17.5 18.5t18 29t10.5 40q1 22 -5 38q-8 -5 -16 -5q-20 0 -30 12t-10 28z" />
    <glyph glyph-name="Hcircumflex" unicode="&#x124;" horiz-adv-x="755" 
d="M106 687q0 13 13 13h21q13 0 13 -13v-307h449v307q0 13 13 13h21q13 0 13 -13v-674q0 -13 -13 -13h-21q-13 0 -13 13v325h-449v-325q0 -13 -13 -13h-21q-13 0 -13 13v674zM273 768q-6 -5 -9.5 -3t-5.5 5l-9 11q-5 7 4 14l121 98q5 5 10 5h3q5 0 10 -5l121 -98q9 -7 4 -14
l-9 -11q-2 -3 -5.5 -5t-9.5 3l-113 84l-112 -84v0z" />
    <glyph glyph-name="Hbar" unicode="&#x126;" horiz-adv-x="756" 
d="M106 542h-26q-12 0 -12 14v4q0 13 12 13h26v114q0 13 13 13h21q13 0 13 -13v-114h449v114q0 9 7.5 11t15.5 2h12q13 0 13 -13v-114h26q7 0 10 -4.5t3 -10.5v-4q0 -12 -13 -12h-26v-529q0 -13 -13 -13q-11 0 -23 0.5t-12 12.5v325h-449v-325q0 -13 -16 -13h-18
q-13 0 -13 13v529zM602 381v161h-449v-161h449z" />
    <glyph glyph-name="Igrave" unicode="&#xcc;" horiz-adv-x="260" 
d="M106 687q0 13 13 13h22q13 0 13 -13v-674q0 -6 -4.5 -9.5t-9.5 -3.5h-21q-13 0 -13 13v674zM46 861q-9 5 -4 15l10 20q3 5 8.5 5t8.5 -2l164 -90q9 -5 6 -14l-5 -10q-4 -8 -16 -3z" />
    <glyph glyph-name="Iacute" unicode="&#xcd;" horiz-adv-x="260" 
d="M106 687q0 13 13 13h22q13 0 13 -13v-674q0 -6 -4.5 -9.5t-9.5 -3.5h-21q-13 0 -13 13v674zM62 782q-12 -5 -16 3l-5 10q-3 9 6 14l164 90q3 2 8.5 2t8.5 -5l10 -20q5 -10 -4 -15l-172 -79v0z" />
    <glyph glyph-name="Ibreve" unicode="&#x12c;" horiz-adv-x="260" 
d="M106 687q0 13 13 13h22q13 0 13 -13v-674q0 -6 -4.5 -9.5t-9.5 -3.5h-21q-13 0 -13 13v674zM131 775q-26 0 -48.5 8.5t-39.5 23.5t-28.5 35.5t-14.5 43.5q-1 5 1.5 9.5t8.5 4.5h13q5 0 7.5 -3.5t4.5 -8.5q9 -33 34 -55.5t62 -22.5q35 0 61 22.5t34 55.5q3 12 12 12h14
q5 0 8 -4.5t2 -9.5q-8 -48 -44 -79.5t-87 -31.5z" />
    <glyph glyph-name="Icircumflex" unicode="&#xce;" horiz-adv-x="260" 
d="M106 687q0 13 13 13h22q13 0 13 -13v-674q0 -6 -4.5 -9.5t-9.5 -3.5h-21q-13 0 -13 13v674zM17 768q-6 -5 -9.5 -3t-5.5 5l-9 11q-5 7 4 14l121 98q5 5 10 5h3q5 0 10 -5l121 -98q9 -7 4 -14l-9 -11q-2 -3 -5.5 -5t-9.5 3l-113 84l-112 -84v0z" />
    <glyph glyph-name="Itilde" unicode="&#x128;" horiz-adv-x="260" 
d="M106 687q0 13 13 13h22q13 0 13 -13v-674q0 -6 -4.5 -9.5t-9.5 -3.5h-21q-13 0 -13 13v674zM-14 804q-10 3 -6 14q3 7 8.5 21t16.5 28.5t27.5 25.5t40.5 11q27 0 41.5 -14t24 -31.5t19.5 -31.5t28 -14q14 0 23.5 6.5t16.5 16t11 19.5t6 17q4 13 15 7l11 -4q3 -2 5.5 -4.5
t0.5 -8.5q-1 -3 -5.5 -17t-15 -29t-28 -27.5t-43.5 -12.5t-40.5 14.5t-24.5 31.5t-20 31.5t-28 14.5q-14 0 -24 -7t-16.5 -17t-10.5 -20.5t-6 -17.5q-3 -12 -15 -7z" />
    <glyph glyph-name="Idieresis" unicode="&#xcf;" horiz-adv-x="260" 
d="M106 687q0 13 13 13h22q13 0 13 -13v-674q0 -6 -4.5 -9.5t-9.5 -3.5h-21q-13 0 -13 13v674zM235 801q-14 0 -24 9.5t-10 23.5q0 15 10 25t24 10q15 0 25 -10t10 -25q0 -14 -10 -23.5t-25 -9.5zM26 801q-14 0 -24 9.5t-10 23.5q0 15 10 25t24 10q15 0 25 -10t10 -25
q0 -14 -10 -23.5t-25 -9.5z" />
    <glyph glyph-name="Imacron" unicode="&#x12a;" horiz-adv-x="260" 
d="M106 687q0 13 13 13h22q13 0 13 -13v-674q0 -6 -4.5 -9.5t-9.5 -3.5h-21q-13 0 -13 13v674zM-5 831q-13 0 -13 13v12q0 13 13 13h272q13 0 13 -13v-12q0 -13 -13 -13h-272v0z" />
    <glyph glyph-name="Idotaccent" unicode="&#x130;" horiz-adv-x="260" 
d="M106 687q0 13 13 13h22q13 0 13 -13v-674q0 -6 -4.5 -9.5t-9.5 -3.5h-21q-13 0 -13 13v674zM129 810q-16 0 -27 11t-11 27t11 27t27 11t27 -11t11 -27t-11 -27t-27 -11z" />
    <glyph glyph-name="Iogonek" unicode="&#x12e;" horiz-adv-x="261" 
d="M107 687q0 13 13 13h22q13 0 13 -13v-674q0 -6 -4.5 -9.5t-9.5 -3.5h-15q-8 -6 -19 -15.5t-21.5 -24t-18 -33t-7.5 -40.5q0 -34 22.5 -50.5t51.5 -16.5q23 0 38.5 5.5t23.5 9.5q11 6 13 -8l1 -10q1 -10 -8 -16q-9 -5 -29 -11t-44 -6q-21 0 -40.5 5.5t-34.5 17.5t-24 30.5
t-9 44.5q0 30 11.5 53t26.5 39.5t29 25.5t19 11v676z" />
    <glyph glyph-name="Jcircumflex" unicode="&#x134;" horiz-adv-x="392" 
d="M-25 65q-6 10 1 17l13 12q4 4 8 4.5t9 -4.5l19 -19t26 -20.5t34 -16t44 -6.5q64 0 105 44t41 134v477q0 13 14 13h20q13 0 13 -13v-476q0 -106 -52 -163.5t-142 -57.5q-33 0 -58.5 9t-44.5 21t-31.5 24.5t-18.5 20.5zM185 768q-6 -5 -9.5 -3t-5.5 5l-9 11q-5 7 4 14
l121 98q5 5 10 5h3q5 0 10 -5l121 -98q9 -7 4 -14l-9 -11q-2 -3 -5.5 -5t-9.5 3l-113 84l-112 -84v0z" />
    <glyph glyph-name="Kcommaaccent" unicode="&#x136;" horiz-adv-x="590" 
d="M106 685q0 15 15 15h18q15 0 15 -15v-309l340 317q6 5 9.5 6t10.5 1h28q8 0 9.5 -6t-3.5 -11l-348 -323l359 -343q5 -4 3 -10.5t-12 -6.5h-32q-7 0 -11.5 2t-10.5 8l-342 332v-329q0 -8 -4.5 -10.5t-10.5 -2.5h-20q-13 0 -13 13v672zM279 -141q0 18 11.5 28.5t30.5 10.5
q22 0 39 -22t17 -72q0 -30 -8.5 -54t-20.5 -41.5t-24 -28.5t-19 -15q-12 -7 -17 0l-8 10q-7 8 4 16q2 1 10 7.5t17.5 18.5t18 29t10.5 40q1 22 -5 38q-8 -5 -16 -5q-20 0 -30 12t-10 28z" />
    <glyph glyph-name="Lacute" unicode="&#x139;" horiz-adv-x="489" 
d="M106 687q0 13 13 13h22q5 0 8.5 -4t3.5 -9v-645h319q9 0 11 -4t2 -9v-18q0 -11 -13 -11h-353q-13 0 -13 13v674zM56 782q-12 -5 -16 3l-5 10q-3 9 6 14l164 90q3 2 8.5 2t8.5 -5l10 -20q5 -10 -4 -15l-172 -79v0z" />
    <glyph glyph-name="Lcaron" unicode="&#x13d;" horiz-adv-x="489" 
d="M106 687q0 13 13 13h22q5 0 8.5 -4t3.5 -9v-645h319q9 0 11 -4t2 -9v-18q0 -11 -13 -11h-353q-13 0 -13 13v674zM349 672q0 18 11.5 28.5t30.5 10.5q22 0 39 -22t17 -72q0 -30 -8.5 -54t-20.5 -41.5t-24 -28.5t-19 -15q-12 -7 -17 0l-8 10q-7 8 4 16q2 1 10 7.5
t17.5 18.5t18 29t10.5 40q1 22 -5 38q-8 -5 -16 -5q-20 0 -30 12t-10 28z" />
    <glyph glyph-name="Lcommaaccent" unicode="&#x13b;" horiz-adv-x="490" 
d="M106 687q0 13 13 13h22q5 0 8.5 -4t3.5 -9v-645h319q9 0 11 -4t2 -9v-18q0 -11 -13 -11h-353q-13 0 -13 13v674zM254 -141q0 18 11.5 28.5t30.5 10.5q22 0 39 -22t17 -72q0 -30 -8.5 -54t-20.5 -41.5t-24 -28.5t-19 -15q-12 -7 -17 0l-8 10q-7 8 4 16q2 1 10 7.5
t17.5 18.5t18 29t10.5 40q1 22 -5 38q-8 -5 -16 -5q-20 0 -30 12t-10 28z" />
    <glyph glyph-name="Lslash" unicode="&#x141;" horiz-adv-x="497" 
d="M114 320l-33 -16q-11 -7 -16 4l-4 7q-2 4 -1 9t6 7l48 24v332q0 13 13 13h21q13 0 13 -13v-305l146 74q5 3 10 1.5t7 -6.5l3 -6q3 -5 1 -9.5t-6 -6.5l-161 -83v-304h329q9 0 11 -6.5t2 -13.5v-9q0 -13 -13 -13h-363q-13 0 -13 13v307z" />
    <glyph glyph-name="Ldot" unicode="&#x13f;" horiz-adv-x="549" 
d="M106 687q0 13 13 13h22q5 0 8.5 -4t3.5 -9v-645h319q9 0 11 -4t2 -9v-18q0 -11 -13 -11h-353q-13 0 -13 13v674zM463 316q-17 0 -29 11.5t-12 28.5t12 28.5t29 11.5t28.5 -11.5t11.5 -28.5t-11.5 -28.5t-28.5 -11.5z" />
    <glyph glyph-name="Nacute" unicode="&#x143;" horiz-adv-x="771" 
d="M106 697q0 6 4.5 9.5t10.5 3.5h17l480 -625h1v602q0 13 13 13h20q13 0 13 -13v-684q0 -7 -5 -10t-11 -3h-13l-3 3t-17.5 21t-44 56t-83 108t-135.5 178t-201 265h-1v-608q0 -13 -13 -13h-19q-13 0 -13 13v684zM323 782q-12 -5 -16 3l-5 10q-3 9 6 14l164 90q3 2 8.5 2
t8.5 -5l10 -20q5 -10 -4 -15l-172 -79v0z" />
    <glyph glyph-name="Ncaron" unicode="&#x147;" horiz-adv-x="771" 
d="M106 697q0 6 4.5 9.5t10.5 3.5h17l480 -625h1v602q0 13 13 13h20q13 0 13 -13v-684q0 -7 -5 -10t-11 -3h-13l-3 3t-17.5 21t-44 56t-83 108t-135.5 178t-201 265h-1v-608q0 -13 -13 -13h-19q-13 0 -13 13v684zM390 763q-5 0 -10 5l-121 98q-9 7 -4 14l9 11q2 3 5.5 5
t9.5 -3l113 -84l112 84q6 5 9.5 3t5.5 -5l9 -11q5 -7 -4 -14l-121 -98q-5 -5 -10 -5h-3v0z" />
    <glyph glyph-name="Ntilde" unicode="&#xd1;" horiz-adv-x="771" 
d="M106 697q0 6 4.5 9.5t10.5 3.5h17l480 -625h1v602q0 13 13 13h20q13 0 13 -13v-684q0 -7 -5 -10t-11 -3h-13l-3 3t-17.5 21t-44 56t-83 108t-135.5 178t-201 265h-1v-608q0 -13 -13 -13h-19q-13 0 -13 13v684zM248 804q-10 3 -6 14q3 7 8.5 21t16.5 28.5t27.5 25.5
t40.5 11q27 0 41.5 -14t24 -31.5t19.5 -31.5t28 -14q14 0 23.5 6.5t16.5 16t11 19.5t6 17q4 13 15 7l11 -4q3 -2 5.5 -4.5t0.5 -8.5q-1 -3 -5.5 -17t-15 -29t-28 -27.5t-43.5 -12.5t-40.5 14.5t-24.5 31.5t-20 31.5t-28 14.5q-14 0 -24 -7t-16.5 -17t-10.5 -20.5t-6 -17.5
q-3 -12 -15 -7z" />
    <glyph glyph-name="Ncommaaccent" unicode="&#x145;" horiz-adv-x="771" 
d="M106 697q0 6 4.5 9.5t10.5 3.5h17l480 -625h1v602q0 13 13 13h20q13 0 13 -13v-684q0 -7 -5 -10t-11 -3h-13l-3 3t-17.5 21t-44 56t-83 108t-135.5 178t-201 265h-1v-608q0 -13 -13 -13h-19q-13 0 -13 13v684zM354 -141q0 18 11.5 28.5t30.5 10.5q22 0 39 -22t17 -72
q0 -30 -8.5 -54t-20.5 -41.5t-24 -28.5t-19 -15q-12 -7 -17 0l-8 10q-7 8 4 16q2 1 10 7.5t17.5 18.5t18 29t10.5 40q1 22 -5 38q-8 -5 -16 -5q-20 0 -30 12t-10 28z" />
    <glyph glyph-name="Ograve" unicode="&#xd2;" horiz-adv-x="833" 
d="M56 349q0 75 28 141t77 114.5t114.5 77t140.5 28.5t141 -28.5t115 -77t77 -114.5t28 -141t-28 -140.5t-77 -114t-115 -76.5t-141 -28t-140.5 28t-114.5 76.5t-77 114t-28 140.5zM100 349q0 -66 25 -123t67.5 -100t100 -67.5t123.5 -24.5t123.5 24.5t100.5 67.5t68 100
t25 123t-25 123.5t-68 100.5t-100.5 68t-123.5 25t-123.5 -25t-100 -68t-67.5 -100.5t-25 -123.5zM332 861q-9 5 -4 15l10 20q3 5 8.5 5t8.5 -2l164 -90q9 -5 6 -14l-5 -10q-4 -8 -16 -3z" />
    <glyph glyph-name="Oacute" unicode="&#xd3;" horiz-adv-x="833" 
d="M56 349q0 75 28 141t77 114.5t114.5 77t140.5 28.5t141 -28.5t115 -77t77 -114.5t28 -141t-28 -140.5t-77 -114t-115 -76.5t-141 -28t-140.5 28t-114.5 76.5t-77 114t-28 140.5zM100 349q0 -66 25 -123t67.5 -100t100 -67.5t123.5 -24.5t123.5 24.5t100.5 67.5t68 100
t25 123t-25 123.5t-68 100.5t-100.5 68t-123.5 25t-123.5 -25t-100 -68t-67.5 -100.5t-25 -123.5zM348 782q-12 -5 -16 3l-5 10q-3 9 6 14l164 90q3 2 8.5 2t8.5 -5l10 -20q5 -10 -4 -15l-172 -79v0z" />
    <glyph glyph-name="Ocircumflex" unicode="&#xd4;" horiz-adv-x="833" 
d="M56 349q0 75 28 141t77 114.5t114.5 77t140.5 28.5t141 -28.5t115 -77t77 -114.5t28 -141t-28 -140.5t-77 -114t-115 -76.5t-141 -28t-140.5 28t-114.5 76.5t-77 114t-28 140.5zM100 349q0 -66 25 -123t67.5 -100t100 -67.5t123.5 -24.5t123.5 24.5t100.5 67.5t68 100
t25 123t-25 123.5t-68 100.5t-100.5 68t-123.5 25t-123.5 -25t-100 -68t-67.5 -100.5t-25 -123.5zM303 768q-6 -5 -9.5 -3t-5.5 5l-9 11q-5 7 4 14l121 98q5 5 10 5h3q5 0 10 -5l121 -98q9 -7 4 -14l-9 -11q-2 -3 -5.5 -5t-9.5 3l-113 84l-112 -84v0z" />
    <glyph glyph-name="Otilde" unicode="&#xd5;" horiz-adv-x="833" 
d="M56 349q0 75 28 141t77 114.5t114.5 77t140.5 28.5t141 -28.5t115 -77t77 -114.5t28 -141t-28 -140.5t-77 -114t-115 -76.5t-141 -28t-140.5 28t-114.5 76.5t-77 114t-28 140.5zM100 349q0 -66 25 -123t67.5 -100t100 -67.5t123.5 -24.5t123.5 24.5t100.5 67.5t68 100
t25 123t-25 123.5t-68 100.5t-100.5 68t-123.5 25t-123.5 -25t-100 -68t-67.5 -100.5t-25 -123.5zM273 804q-10 3 -6 14q3 7 8.5 21t16.5 28.5t27.5 25.5t40.5 11q27 0 41.5 -14t24 -31.5t19.5 -31.5t28 -14q14 0 23.5 6.5t16.5 16t11 19.5t6 17q4 13 15 7l11 -4
q3 -2 5.5 -4.5t0.5 -8.5q-1 -3 -5.5 -17t-15 -29t-28 -27.5t-43.5 -12.5t-40.5 14.5t-24.5 31.5t-20 31.5t-28 14.5q-14 0 -24 -7t-16.5 -17t-10.5 -20.5t-6 -17.5q-3 -12 -15 -7z" />
    <glyph glyph-name="Odieresis" unicode="&#xd6;" horiz-adv-x="833" 
d="M56 349q0 75 28 141t77 114.5t114.5 77t140.5 28.5t141 -28.5t115 -77t77 -114.5t28 -141t-28 -140.5t-77 -114t-115 -76.5t-141 -28t-140.5 28t-114.5 76.5t-77 114t-28 140.5zM100 349q0 -66 25 -123t67.5 -100t100 -67.5t123.5 -24.5t123.5 24.5t100.5 67.5t68 100
t25 123t-25 123.5t-68 100.5t-100.5 68t-123.5 25t-123.5 -25t-100 -68t-67.5 -100.5t-25 -123.5zM521 801q-14 0 -24 9.5t-10 23.5q0 15 10 25t24 10q15 0 25 -10t10 -25q0 -14 -10 -23.5t-25 -9.5zM312 801q-14 0 -24 9.5t-10 23.5q0 15 10 25t24 10q15 0 25 -10t10 -25
q0 -14 -10 -23.5t-25 -9.5z" />
    <glyph glyph-name="Omacron" unicode="&#x14c;" horiz-adv-x="833" 
d="M56 349q0 75 28 141t77 114.5t114.5 77t140.5 28.5t141 -28.5t115 -77t77 -114.5t28 -141t-28 -140.5t-77 -114t-115 -76.5t-141 -28t-140.5 28t-114.5 76.5t-77 114t-28 140.5zM100 349q0 -66 25 -123t67.5 -100t100 -67.5t123.5 -24.5t123.5 24.5t100.5 67.5t68 100
t25 123t-25 123.5t-68 100.5t-100.5 68t-123.5 25t-123.5 -25t-100 -68t-67.5 -100.5t-25 -123.5zM281 831q-13 0 -13 13v12q0 13 13 13h272q13 0 13 -13v-12q0 -13 -13 -13h-272v0z" />
    <glyph glyph-name="Obreve" unicode="&#x14e;" horiz-adv-x="833" 
d="M56 349q0 75 28 141t77 114.5t114.5 77t140.5 28.5t141 -28.5t115 -77t77 -114.5t28 -141t-28 -140.5t-77 -114t-115 -76.5t-141 -28t-140.5 28t-114.5 76.5t-77 114t-28 140.5zM100 349q0 -66 25 -123t67.5 -100t100 -67.5t123.5 -24.5t123.5 24.5t100.5 67.5t68 100
t25 123t-25 123.5t-68 100.5t-100.5 68t-123.5 25t-123.5 -25t-100 -68t-67.5 -100.5t-25 -123.5zM417 775q-26 0 -48.5 8.5t-39.5 23.5t-28.5 35.5t-14.5 43.5q-1 5 1.5 9.5t8.5 4.5h13q5 0 7.5 -3.5t4.5 -8.5q9 -33 34 -55.5t62 -22.5q35 0 61 22.5t34 55.5q3 12 12 12h14
q5 0 8 -4.5t2 -9.5q-8 -48 -44 -79.5t-87 -31.5z" />
    <glyph glyph-name="Ohungarumlaut" unicode="&#x150;" horiz-adv-x="833" 
d="M56 349q0 75 28 141t77 114.5t114.5 77t140.5 28.5t141 -28.5t115 -77t77 -114.5t28 -141t-28 -140.5t-77 -114t-115 -76.5t-141 -28t-140.5 28t-114.5 76.5t-77 114t-28 140.5zM100 349q0 -66 25 -123t67.5 -100t100 -67.5t123.5 -24.5t123.5 24.5t100.5 67.5t68 100
t25 123t-25 123.5t-68 100.5t-100.5 68t-123.5 25t-123.5 -25t-100 -68t-67.5 -100.5t-25 -123.5zM501 766q-12 0 -7 12l79 159q5 11 14 11h22q8 0 11 -5t-1 -12l-93 -157q-4 -8 -13 -8h-12zM335 766q-12 0 -7 12l79 159q5 11 14 11h22q8 0 11 -5t-1 -12l-93 -157
q-4 -8 -13 -8h-12z" />
    <glyph glyph-name="Oslash" unicode="&#xd8;" horiz-adv-x="833" 
d="M84 28q-9 9 0 18l63 62q-42 48 -66 109.5t-24 131.5q0 75 28 141t76.5 114.5t114.5 77t141 28.5q72 0 135.5 -26t111.5 -72l66 64q8 9 17 0l4 -4q9 -9 0 -18l-65 -64q42 -48 67 -110t25 -131q0 -75 -28.5 -140.5t-77 -114t-114.5 -76.5t-141 -28q-73 0 -136.5 25
t-111.5 71l-64 -62q-8 -9 -17 0zM633 581q-43 40 -98 62.5t-118 22.5q-66 0 -123.5 -25t-100 -68t-67.5 -100.5t-25 -123.5q0 -61 20.5 -114t57.5 -95zM201 118q42 -40 97.5 -62t118.5 -22q66 0 123.5 24.5t100.5 67.5t68 100t25 123q0 60 -21 114t-59 96z" />
    <glyph glyph-name="Oslashacute" unicode="&#x1fe;" horiz-adv-x="833" 
d="M84 28q-9 9 0 18l63 62q-42 48 -66 109.5t-24 131.5q0 75 28 141t76.5 114.5t114.5 77t141 28.5q72 0 135.5 -26t111.5 -72l66 64q8 9 17 0l4 -4q9 -9 0 -18l-65 -64q42 -48 67 -110t25 -131q0 -75 -28.5 -140.5t-77 -114t-114.5 -76.5t-141 -28q-73 0 -136.5 25
t-111.5 71l-64 -62q-8 -9 -17 0zM633 581q-43 40 -98 62.5t-118 22.5q-66 0 -123.5 -25t-100 -68t-67.5 -100.5t-25 -123.5q0 -61 20.5 -114t57.5 -95zM201 118q42 -40 97.5 -62t118.5 -22q66 0 123.5 24.5t100.5 67.5t68 100t25 123q0 60 -21 114t-59 96zM348 782
q-12 -5 -16 3l-5 10q-3 9 6 14l164 90q3 2 8.5 2t8.5 -5l10 -20q5 -10 -4 -15l-172 -79v0z" />
    <glyph glyph-name="OE" unicode="&#x152;" horiz-adv-x="976" 
d="M56 349q0 75 28 141t76.5 114.5t114 77t140.5 28.5q28 0 51 -4t34 -6h399q12 0 12 -13v-17q0 -13 -12 -13h-366v-276h317q13 0 13 -13v-17q0 -13 -13 -13h-317v-296h366q12 0 12 -13v-16q0 -13 -12 -13h-398q-11 -2 -34.5 -6t-51.5 -4q-75 0 -140.5 28t-114 76.5
t-76.5 114t-28 140.5zM99 349q0 -66 25 -123t67.5 -100t100 -67.5t123.5 -24.5q38 0 70 7v616q-17 4 -34 6t-36 2q-66 0 -123.5 -25t-100 -67.5t-67.5 -100t-25 -123.5z" />
    <glyph glyph-name="Racute" unicode="&#x154;" horiz-adv-x="650" 
d="M106 687q0 13 13 13h248q46 0 86.5 -16.5t71 -45t48 -67.5t17.5 -85q0 -38 -12.5 -71.5t-34.5 -60.5t-52 -47t-66 -30l146 -259q4 -6 2.5 -12t-9.5 -6h-31q-10 0 -14 9l-145 262q-10 -1 -18.5 -1h-18.5h-184v-257q0 -13 -16 -13h-18q-13 0 -13 13v674zM365 312
q36 0 68 13.5t56.5 36.5t38.5 55t14 69q0 36 -14 66.5t-38.5 53t-57 35.5t-68.5 13h-210v-342h211zM229 782q-12 -5 -16 3l-5 10q-3 9 6 14l164 90q3 2 8.5 2t8.5 -5l10 -20q5 -10 -4 -15l-172 -79v0z" />
    <glyph glyph-name="Rcaron" unicode="&#x158;" horiz-adv-x="650" 
d="M106 687q0 13 13 13h248q46 0 86.5 -16.5t71 -45t48 -67.5t17.5 -85q0 -38 -12.5 -71.5t-34.5 -60.5t-52 -47t-66 -30l146 -259q4 -6 2.5 -12t-9.5 -6h-31q-10 0 -14 9l-145 262q-10 -1 -18.5 -1h-18.5h-184v-257q0 -13 -16 -13h-18q-13 0 -13 13v674zM365 312
q36 0 68 13.5t56.5 36.5t38.5 55t14 69q0 36 -14 66.5t-38.5 53t-57 35.5t-68.5 13h-210v-342h211zM296 763q-5 0 -10 5l-121 98q-9 7 -4 14l9 11q2 3 5.5 5t9.5 -3l113 -84l112 84q6 5 9.5 3t5.5 -5l9 -11q5 -7 -4 -14l-121 -98q-5 -5 -10 -5h-3v0z" />
    <glyph glyph-name="Rcommaaccent" unicode="&#x156;" horiz-adv-x="650" 
d="M106 687q0 13 13 13h248q46 0 86.5 -16.5t71 -45t48 -67.5t17.5 -85q0 -38 -12.5 -71.5t-34.5 -60.5t-52 -47t-66 -30l146 -259q4 -6 2.5 -12t-9.5 -6h-31q-10 0 -14 9l-145 262q-10 -1 -18.5 -1h-18.5h-184v-257q0 -13 -16 -13h-18q-13 0 -13 13v674zM365 312
q36 0 68 13.5t56.5 36.5t38.5 55t14 69q0 36 -14 66.5t-38.5 53t-57 35.5t-68.5 13h-210v-342h211zM274 -141q0 18 11.5 28.5t30.5 10.5q22 0 39 -22t17 -72q0 -30 -8.5 -54t-20.5 -41.5t-24 -28.5t-19 -15q-12 -7 -17 0l-8 10q-7 8 4 16q2 1 10 7.5t17.5 18.5t18 29
t10.5 40q1 22 -5 38q-8 -5 -16 -5q-20 0 -30 12t-10 28z" />
    <glyph glyph-name="Sacute" unicode="&#x15a;" horiz-adv-x="543" 
d="M67 72q-5 4 -7 8.5t4 12.5l9 12q12 13 22 4q4 -3 19 -15.5t39.5 -26t56.5 -24.5t70 -11q34 0 64.5 10.5t53.5 29t36.5 43t13.5 51.5q0 33 -13.5 58t-38.5 45t-61 36t-81 31q-44 15 -79.5 31.5t-60.5 39t-39 53t-14 73.5q0 28 12 59t37.5 57.5t66.5 43.5t100 17
q37 0 68.5 -8t54.5 -18q27 -11 49 -25q3 -2 6 -7.5t-2 -13.5q-5 -6 -8 -13q-9 -13 -22 -5q-1 1 -13.5 8.5t-32.5 16t-46 15.5t-55 7q-46 0 -78 -13t-52.5 -32.5t-29.5 -43t-9 -44.5q0 -32 11.5 -55.5t33.5 -41.5t52.5 -32t68.5 -26q51 -18 92.5 -36.5t71 -43t45 -56.5
t15.5 -75q0 -38 -18 -70.5t-48 -56.5t-69.5 -37.5t-82.5 -13.5q-45 0 -81.5 11t-64 25.5t-44.5 27.5t-22 18zM207 775q-12 -5 -16 3l-5 10q-3 9 6 14l164 90q3 2 8.5 2t8.5 -5l10 -20q5 -10 -4 -15l-172 -79v0z" />
    <glyph glyph-name="Scircumflex" unicode="&#x15c;" horiz-adv-x="543" 
d="M67 72q-5 4 -7 8.5t4 12.5l9 12q12 13 22 4q4 -3 19 -15.5t39.5 -26t56.5 -24.5t70 -11q34 0 64.5 10.5t53.5 29t36.5 43t13.5 51.5q0 33 -13.5 58t-38.5 45t-61 36t-81 31q-44 15 -79.5 31.5t-60.5 39t-39 53t-14 73.5q0 28 12 59t37.5 57.5t66.5 43.5t100 17
q37 0 68.5 -8t54.5 -18q27 -11 49 -25q3 -2 6 -7.5t-2 -13.5q-5 -6 -8 -13q-9 -13 -22 -5q-1 1 -13.5 8.5t-32.5 16t-46 15.5t-55 7q-46 0 -78 -13t-52.5 -32.5t-29.5 -43t-9 -44.5q0 -32 11.5 -55.5t33.5 -41.5t52.5 -32t68.5 -26q51 -18 92.5 -36.5t71 -43t45 -56.5
t15.5 -75q0 -38 -18 -70.5t-48 -56.5t-69.5 -37.5t-82.5 -13.5q-45 0 -81.5 11t-64 25.5t-44.5 27.5t-22 18zM162 761q-6 -5 -9.5 -3t-5.5 5l-9 11q-5 7 4 14l121 98q5 5 10 5h3q5 0 10 -5l121 -98q9 -7 4 -14l-9 -11q-2 -3 -5.5 -5t-9.5 3l-113 84l-112 -84v0z" />
    <glyph glyph-name="Scaron" unicode="&#x160;" horiz-adv-x="543" 
d="M67 72q-5 4 -7 8.5t4 12.5l9 12q12 13 22 4q4 -3 19 -15.5t39.5 -26t56.5 -24.5t70 -11q34 0 64.5 10.5t53.5 29t36.5 43t13.5 51.5q0 33 -13.5 58t-38.5 45t-61 36t-81 31q-44 15 -79.5 31.5t-60.5 39t-39 53t-14 73.5q0 28 12 59t37.5 57.5t66.5 43.5t100 17
q37 0 68.5 -8t54.5 -18q27 -11 49 -25q3 -2 6 -7.5t-2 -13.5q-5 -6 -8 -13q-9 -13 -22 -5q-1 1 -13.5 8.5t-32.5 16t-46 15.5t-55 7q-46 0 -78 -13t-52.5 -32.5t-29.5 -43t-9 -44.5q0 -32 11.5 -55.5t33.5 -41.5t52.5 -32t68.5 -26q51 -18 92.5 -36.5t71 -43t45 -56.5
t15.5 -75q0 -38 -18 -70.5t-48 -56.5t-69.5 -37.5t-82.5 -13.5q-45 0 -81.5 11t-64 25.5t-44.5 27.5t-22 18zM274 756q-5 0 -10 5l-121 98q-9 7 -4 14l9 11q2 3 5.5 5t9.5 -3l113 -84l112 84q6 5 9.5 3t5.5 -5l9 -11q5 -7 -4 -14l-121 -98q-5 -5 -10 -5h-3v0z" />
    <glyph glyph-name="Scedilla" unicode="&#x15e;" horiz-adv-x="545" 
d="M68 72q-5 4 -7 8.5t4 12.5l9 12q12 13 22 4q4 -3 19 -15.5t39.5 -26t56.5 -24.5t70 -11q34 0 64.5 10.5t53.5 29t36.5 43t13.5 51.5q0 33 -13.5 58t-38.5 45t-61 36t-81 31q-44 15 -79.5 31.5t-60.5 39t-39 53t-14 73.5q0 28 12 59t37.5 57.5t66.5 43.5t100 17
q37 0 68.5 -8t54.5 -18q27 -11 49 -25q3 -2 6 -7.5t-2 -13.5l-8 -13q-9 -13 -22 -5q-1 1 -13.5 8.5t-32.5 16t-46 15.5t-55 7q-46 0 -78 -13t-52.5 -32.5t-29.5 -43t-9 -44.5q0 -32 11.5 -55.5t33.5 -41.5t52.5 -32t68.5 -26q51 -18 92.5 -36.5t71 -43t45 -56.5t15.5 -75
q0 -38 -18 -70.5t-48 -56.5t-69.5 -37.5t-82.5 -13.5v-44q45 -5 76 -28.5t31 -68.5q0 -20 -7.5 -37.5t-20.5 -31t-31 -21t-39 -7.5q-29 0 -50 11.5t-28 22.5t1 18l10 8q7 6 16 -3q5 -5 17 -13t34 -8q27 0 43 17.5t16 42.5q0 18 -8.5 30t-21.5 20t-29.5 12t-32.5 6
q-12 3 -12 13v63q-37 4 -67.5 16t-53.5 24.5t-37 24t-18 15.5z" />
    <glyph glyph-name="Scommaaccent" unicode="&#x218;" horiz-adv-x="543" 
d="M67 72q-5 4 -7 8.5t4 12.5l9 12q12 13 22 4q4 -3 19 -15.5t39.5 -26t56.5 -24.5t70 -11q34 0 64.5 10.5t53.5 29t36.5 43t13.5 51.5q0 33 -13.5 58t-38.5 45t-61 36t-81 31q-44 15 -79.5 31.5t-60.5 39t-39 53t-14 73.5q0 28 12 59t37.5 57.5t66.5 43.5t100 17
q37 0 68.5 -8t54.5 -18q27 -11 49 -25q3 -2 6 -7.5t-2 -13.5q-5 -6 -8 -13q-9 -13 -22 -5q-1 1 -13.5 8.5t-32.5 16t-46 15.5t-55 7q-46 0 -78 -13t-52.5 -32.5t-29.5 -43t-9 -44.5q0 -32 11.5 -55.5t33.5 -41.5t52.5 -32t68.5 -26q51 -18 92.5 -36.5t71 -43t45 -56.5
t15.5 -75q0 -38 -18 -70.5t-48 -56.5t-69.5 -37.5t-82.5 -13.5q-45 0 -81.5 11t-64 25.5t-44.5 27.5t-22 18zM239 -148q0 18 11.5 28.5t30.5 10.5q22 0 39 -22t17 -72q0 -30 -8.5 -54t-20.5 -41.5t-24 -28.5t-19 -15q-12 -7 -17 0l-8 10q-7 8 4 16q2 1 10 7.5t17.5 18.5
t18 29t10.5 40q1 22 -5 38q-8 -5 -16 -5q-20 0 -30 12t-10 28z" />
    <glyph glyph-name="Tcaron" unicode="&#x164;" horiz-adv-x="472" 
d="M212 657h-191q-13 0 -13 15v15q0 13 13 13h430q13 0 13 -13v-17q0 -13 -13 -13h-192v-644q0 -13 -16 -13h-18q-13 0 -13 13v644zM234 763q-5 0 -10 5l-121 98q-9 7 -4 14l9 11q2 3 5.5 5t9.5 -3l113 -84l112 84q6 5 9.5 3t5.5 -5l9 -11q5 -7 -4 -14l-121 -98
q-5 -5 -10 -5h-3v0z" />
    <glyph glyph-name="Tcommaaccent" unicode="&#x162;" horiz-adv-x="470" 
d="M212 657h-191q-13 0 -13 15v15q0 13 13 13h430q13 0 13 -13v-17q0 -13 -13 -13h-192v-644q0 -13 -16 -13h-18q-13 0 -13 13v644zM195 -141q0 18 11.5 28.5t30.5 10.5q22 0 39 -22t17 -72q0 -30 -8.5 -54t-20.5 -41.5t-24 -28.5t-19 -15q-12 -7 -17 0l-8 10q-7 8 4 16
q2 1 10 7.5t17.5 18.5t18 29t10.5 40q1 22 -5 38q-8 -5 -16 -5q-20 0 -30 12t-10 28z" />
    <glyph glyph-name="uni021A" unicode="&#x21a;" horiz-adv-x="470" 
d="M212 657h-191q-13 0 -13 15v15q0 13 13 13h430q13 0 13 -13v-17q0 -13 -13 -13h-192v-644q0 -13 -16 -13h-18q-13 0 -13 13v644zM195 -141q0 18 11.5 28.5t30.5 10.5q22 0 39 -22t17 -72q0 -30 -8.5 -54t-20.5 -41.5t-24 -28.5t-19 -15q-12 -7 -17 0l-8 10q-7 8 4 16
q2 1 10 7.5t17.5 18.5t18 29t10.5 40q1 22 -5 38q-8 -5 -16 -5q-20 0 -30 12t-10 28z" />
    <glyph glyph-name="Tbar" unicode="&#x166;" horiz-adv-x="472" 
d="M212 303h-125q-6 0 -9.5 4.5t-3.5 10.5v4q0 5 4 8.5t9 3.5h125v324h-191q-9 0 -11 6.5t-2 13.5v9q0 13 13 13h430q13 0 13 -13v-16q0 -13 -13 -13h-192v-324h128q5 0 9 -3.5t4 -8.5v-6q0 -13 -13 -13h-128v-290q0 -9 -7.5 -11t-14.5 -2h-12q-13 0 -13 13v290z" />
    <glyph glyph-name="Thorn" unicode="&#xde;" horiz-adv-x="596" 
d="M106 687q0 13 13 13h21q13 0 13 -13v-111h181q46 0 87.5 -17.5t72 -48t48.5 -71t18 -86.5q0 -47 -18 -88.5t-48.5 -72.5t-71.5 -48.5t-87 -17.5h-182v-113q0 -13 -16 -13h-18q-13 0 -13 13v674zM332 171q37 0 69.5 14t57.5 39t39.5 58.5t14.5 71.5q0 37 -14.5 69
t-39.5 55.5t-58 37t-70 13.5h-178v-358h179z" />
    <glyph glyph-name="Ugrave" unicode="&#xd9;" horiz-adv-x="720" 
d="M98 687q0 13 13 13h21q13 0 13 -13v-427q0 -48 14.5 -89t42.5 -71t67.5 -47t89.5 -17t90 16.5t68 46.5t43 71t15 89v428q0 13 14 13h20q13 0 13 -13v-432q0 -57 -18.5 -106t-53 -84t-83 -55t-108.5 -20q-59 0 -107.5 20t-82.5 55t-52.5 84t-18.5 106v432zM284 861
q-9 5 -4 15l10 20q3 5 8.5 5t8.5 -2l164 -90q9 -5 6 -14l-5 -10q-4 -8 -16 -3z" />
    <glyph glyph-name="Uacute" unicode="&#xda;" horiz-adv-x="720" 
d="M98 687q0 13 13 13h21q13 0 13 -13v-427q0 -48 14.5 -89t42.5 -71t67.5 -47t89.5 -17t90 16.5t68 46.5t43 71t15 89v428q0 13 14 13h20q13 0 13 -13v-432q0 -57 -18.5 -106t-53 -84t-83 -55t-108.5 -20q-59 0 -107.5 20t-82.5 55t-52.5 84t-18.5 106v432zM300 782
q-12 -5 -16 3l-5 10q-3 9 6 14l164 90q3 2 8.5 2t8.5 -5l10 -20q5 -10 -4 -15l-172 -79v0z" />
    <glyph glyph-name="Ucircumflex" unicode="&#xdb;" horiz-adv-x="720" 
d="M98 687q0 13 13 13h21q13 0 13 -13v-427q0 -48 14.5 -89t42.5 -71t67.5 -47t89.5 -17t90 16.5t68 46.5t43 71t15 89v428q0 13 14 13h20q13 0 13 -13v-432q0 -57 -18.5 -106t-53 -84t-83 -55t-108.5 -20q-59 0 -107.5 20t-82.5 55t-52.5 84t-18.5 106v432zM255 768
q-6 -5 -9.5 -3t-5.5 5l-9 11q-5 7 4 14l121 98q5 5 10 5h3q5 0 10 -5l121 -98q9 -7 4 -14l-9 -11q-2 -3 -5.5 -5t-9.5 3l-113 84l-112 -84v0z" />
    <glyph glyph-name="Utilde" unicode="&#x168;" horiz-adv-x="720" 
d="M98 687q0 13 13 13h21q13 0 13 -13v-427q0 -48 14.5 -89t42.5 -71t67.5 -47t89.5 -17t90 16.5t68 46.5t43 71t15 89v428q0 13 14 13h20q13 0 13 -13v-432q0 -57 -18.5 -106t-53 -84t-83 -55t-108.5 -20q-59 0 -107.5 20t-82.5 55t-52.5 84t-18.5 106v432zM225 804
q-10 3 -6 14q3 7 8.5 21t16.5 28.5t27.5 25.5t40.5 11q27 0 41.5 -14t24 -31.5t19.5 -31.5t28 -14q14 0 23.5 6.5t16.5 16t11 19.5t6 17q4 13 15 7l11 -4q3 -2 5.5 -4.5t0.5 -8.5q-1 -3 -5.5 -17t-15 -29t-28 -27.5t-43.5 -12.5t-40.5 14.5t-24.5 31.5t-20 31.5t-28 14.5
q-14 0 -24 -7t-16.5 -17t-10.5 -20.5t-6 -17.5q-3 -12 -15 -7z" />
    <glyph glyph-name="Udieresis" unicode="&#xdc;" horiz-adv-x="720" 
d="M98 687q0 13 13 13h21q13 0 13 -13v-427q0 -48 14.5 -89t42.5 -71t67.5 -47t89.5 -17t90 16.5t68 46.5t43 71t15 89v428q0 13 14 13h20q13 0 13 -13v-432q0 -57 -18.5 -106t-53 -84t-83 -55t-108.5 -20q-59 0 -107.5 20t-82.5 55t-52.5 84t-18.5 106v432zM473 801
q-14 0 -24 9.5t-10 23.5q0 15 10 25t24 10q15 0 25 -10t10 -25q0 -14 -10 -23.5t-25 -9.5zM264 801q-14 0 -24 9.5t-10 23.5q0 15 10 25t24 10q15 0 25 -10t10 -25q0 -14 -10 -23.5t-25 -9.5z" />
    <glyph glyph-name="Umacron" unicode="&#x16a;" horiz-adv-x="720" 
d="M98 687q0 13 13 13h21q13 0 13 -13v-427q0 -48 14.5 -89t42.5 -71t67.5 -47t89.5 -17t90 16.5t68 46.5t43 71t15 89v428q0 13 14 13h20q13 0 13 -13v-432q0 -57 -18.5 -106t-53 -84t-83 -55t-108.5 -20q-59 0 -107.5 20t-82.5 55t-52.5 84t-18.5 106v432zM233 831
q-13 0 -13 13v12q0 13 13 13h272q13 0 13 -13v-12q0 -13 -13 -13h-272v0z" />
    <glyph glyph-name="Ubreve" unicode="&#x16c;" horiz-adv-x="720" 
d="M98 687q0 13 13 13h21q13 0 13 -13v-427q0 -48 14.5 -89t42.5 -71t67.5 -47t89.5 -17t90 16.5t68 46.5t43 71t15 89v428q0 13 14 13h20q13 0 13 -13v-432q0 -57 -18.5 -106t-53 -84t-83 -55t-108.5 -20q-59 0 -107.5 20t-82.5 55t-52.5 84t-18.5 106v432zM369 775
q-26 0 -48.5 8.5t-39.5 23.5t-28.5 35.5t-14.5 43.5q-1 5 1.5 9.5t8.5 4.5h13q5 0 7.5 -3.5t4.5 -8.5q9 -33 34 -55.5t62 -22.5q35 0 61 22.5t34 55.5q3 12 12 12h14q5 0 8 -4.5t2 -9.5q-8 -48 -44 -79.5t-87 -31.5z" />
    <glyph glyph-name="Uring" unicode="&#x16e;" horiz-adv-x="720" 
d="M98 687q0 13 13 13h21q13 0 13 -13v-427q0 -48 14.5 -89t42.5 -71t67.5 -47t89.5 -17t90 16.5t68 46.5t43 71t15 89v428q0 13 14 13h20q13 0 13 -13v-432q0 -57 -18.5 -106t-53 -84t-83 -55t-108.5 -20q-59 0 -107.5 20t-82.5 55t-52.5 84t-18.5 106v432zM369 754
q-23 0 -42 8t-33.5 22.5t-22.5 33.5t-8 42q0 22 8 42t22.5 34t33.5 22.5t42 8.5q22 0 41.5 -8.5t34 -22.5t23 -34t8.5 -42q0 -23 -8.5 -42t-23 -33.5t-34 -22.5t-41.5 -8zM369 786q30 0 52 22t22 52t-22 52t-52 22t-52 -22t-22 -52t22 -52t52 -22z" />
    <glyph glyph-name="Uhungarumlaut" unicode="&#x170;" horiz-adv-x="720" 
d="M98 687q0 13 13 13h21q13 0 13 -13v-427q0 -48 14.5 -89t42.5 -71t67.5 -47t89.5 -17t90 16.5t68 46.5t43 71t15 89v428q0 13 14 13h20q13 0 13 -13v-432q0 -57 -18.5 -106t-53 -84t-83 -55t-108.5 -20q-59 0 -107.5 20t-82.5 55t-52.5 84t-18.5 106v432zM443 766
q-12 0 -7 12l79 159q5 11 14 11h22q8 0 11 -5t-1 -12l-93 -157q-4 -8 -13 -8h-12zM277 766q-12 0 -7 12l79 159q5 11 14 11h22q8 0 11 -5t-1 -12l-93 -157q-4 -8 -13 -8h-12z" />
    <glyph glyph-name="Uogonek" unicode="&#x172;" horiz-adv-x="724" 
d="M100 687q0 13 13 13h21q13 0 13 -13v-427q0 -48 14.5 -89t42.5 -71t67.5 -47t89.5 -17t90 16.5t68 46.5t43 71t15 89v428q0 13 14 13h20q13 0 13 -13v-432q0 -56 -17.5 -103t-49.5 -82t-77.5 -55.5t-101.5 -23.5q-9 -6 -19.5 -16.5t-19.5 -24t-15.5 -31t-6.5 -38.5
q0 -34 22.5 -50.5t51.5 -16.5q23 0 38.5 5.5t23.5 9.5q11 6 13 -8l1 -10q1 -10 -8 -16q-9 -5 -29 -11t-44 -6q-21 0 -40.5 5.5t-34.5 17.5t-24 30.5t-9 44.5q0 21 6 39t15.5 32.5t20.5 25t21 18.5q-55 3 -99.5 24t-76 56t-48.5 82t-17 102v432z" />
    <glyph glyph-name="Wacute" unicode="&#x1e82;" horiz-adv-x="896" 
d="M39 687q-3 13 11 13h24q10 0 12 -11l168 -586h2l176 598q2 5 6 7t9 2h2q5 0 9 -2t6 -7l177 -598h2l167 586q2 11 12 11h24q14 0 11 -13l-198 -690q-2 -7 -9 -7h-11q-7 0 -10 7l-180 609h-2l-180 -609q-3 -7 -10 -7h-11q-7 0 -9 7zM370 782q-12 -5 -16 3l-5 10q-3 9 6 14
l164 90q3 2 8.5 2t8.5 -5l10 -20q5 -10 -4 -15l-172 -79v0z" />
    <glyph glyph-name="Wcircumflex" unicode="&#x174;" horiz-adv-x="896" 
d="M39 687q-3 13 11 13h24q10 0 12 -11l168 -586h2l176 598q2 5 6 7t9 2h2q5 0 9 -2t6 -7l177 -598h2l167 586q2 11 12 11h24q14 0 11 -13l-198 -690q-2 -7 -9 -7h-11q-7 0 -10 7l-180 609h-2l-180 -609q-3 -7 -10 -7h-11q-7 0 -9 7zM336 768q-6 -5 -9.5 -3t-5.5 5l-9 11
q-5 7 4 14l121 98q5 5 10 5h3q5 0 10 -5l121 -98q9 -7 4 -14l-9 -11q-2 -3 -5.5 -5t-9.5 3l-113 84l-112 -84v0z" />
    <glyph glyph-name="Wdieresis" unicode="&#x1e84;" horiz-adv-x="896" 
d="M39 687q-3 13 11 13h24q10 0 12 -11l168 -586h2l176 598q2 5 6 7t9 2h2q5 0 9 -2t6 -7l177 -598h2l167 586q2 11 12 11h24q14 0 11 -13l-198 -690q-2 -7 -9 -7h-11q-7 0 -10 7l-180 609h-2l-180 -609q-3 -7 -10 -7h-11q-7 0 -9 7zM552 801q-14 0 -24 9.5t-10 23.5
q0 15 10 25t24 10q15 0 25 -10t10 -25q0 -14 -10 -23.5t-25 -9.5zM343 801q-14 0 -24 9.5t-10 23.5q0 15 10 25t24 10q15 0 25 -10t10 -25q0 -14 -10 -23.5t-25 -9.5z" />
    <glyph glyph-name="Wgrave" unicode="&#x1e80;" horiz-adv-x="896" 
d="M39 687q-3 13 11 13h24q10 0 12 -11l168 -586h2l176 598q2 5 6 7t9 2h2q5 0 9 -2t6 -7l177 -598h2l167 586q2 11 12 11h24q14 0 11 -13l-198 -690q-2 -7 -9 -7h-11q-7 0 -10 7l-180 609h-2l-180 -609q-3 -7 -10 -7h-11q-7 0 -9 7zM354 861q-9 5 -4 15l10 20q3 5 8.5 5
t8.5 -2l164 -90q9 -5 6 -14l-5 -10q-4 -8 -16 -3z" />
    <glyph glyph-name="Yacute" unicode="&#xdd;" horiz-adv-x="560" 
d="M253 340l-255 345q-5 6 -2.5 10.5t10.5 4.5h30q8 0 13 -6l228 -311l232 311q4 6 13 6h30q8 0 10.5 -4.5t-2.5 -10.5l-260 -344v-328q0 -13 -13 -13q-10 0 -22 0.5t-12 12.5v327zM199 782q-12 -5 -16 3l-5 10q-3 9 6 14l164 90q3 2 8.5 2t8.5 -5l10 -20q5 -10 -4 -15
l-172 -79v0z" />
    <glyph glyph-name="Ycircumflex" unicode="&#x176;" horiz-adv-x="560" 
d="M253 340l-255 345q-5 6 -2.5 10.5t10.5 4.5h30q8 0 13 -6l228 -311l232 311q4 6 13 6h30q8 0 10.5 -4.5t-2.5 -10.5l-260 -344v-328q0 -13 -13 -13q-10 0 -22 0.5t-12 12.5v327zM166 768q-6 -5 -9.5 -3t-5.5 5l-9 11q-5 7 4 14l121 98q5 5 10 5h3q5 0 10 -5l121 -98
q9 -7 4 -14l-9 -11q-2 -3 -5.5 -5t-9.5 3l-113 84l-112 -84v0z" />
    <glyph glyph-name="Ydieresis" unicode="&#x178;" horiz-adv-x="560" 
d="M253 340l-255 345q-5 6 -2.5 10.5t10.5 4.5h30q8 0 13 -6l228 -311l232 311q4 6 13 6h30q8 0 10.5 -4.5t-2.5 -10.5l-260 -344v-328q0 -13 -13 -13q-10 0 -22 0.5t-12 12.5v327zM382 801q-14 0 -24 9.5t-10 23.5q0 15 10 25t24 10q15 0 25 -10t10 -25q0 -14 -10 -23.5
t-25 -9.5zM173 801q-14 0 -24 9.5t-10 23.5q0 15 10 25t24 10q15 0 25 -10t10 -25q0 -14 -10 -23.5t-25 -9.5z" />
    <glyph glyph-name="Ygrave" unicode="&#x1ef2;" horiz-adv-x="560" 
d="M253 340l-255 345q-5 6 -2.5 10.5t10.5 4.5h30q8 0 13 -6l228 -311l232 311q4 6 13 6h30q8 0 10.5 -4.5t-2.5 -10.5l-260 -344v-328q0 -13 -13 -13q-10 0 -22 0.5t-12 12.5v327zM183 861q-9 5 -4 15l10 20q3 5 8.5 5t8.5 -2l164 -90q9 -5 6 -14l-5 -10q-4 -8 -16 -3z" />
    <glyph glyph-name="Zacute" unicode="&#x179;" horiz-adv-x="533" 
d="M30 30l406 624v2h-362q-13 0 -13 15v16q0 13 13 13h412q13 0 13 -13v-16l-407 -626v-1h373q13 0 13 -13v-18q0 -13 -13 -13h-421q-14 0 -14 12v18zM215 782q-12 -5 -16 3l-5 10q-3 9 6 14l164 90q3 2 8.5 2t8.5 -5l10 -20q5 -10 -4 -15l-172 -79v0z" />
    <glyph glyph-name="Zcaron" unicode="&#x17d;" horiz-adv-x="533" 
d="M30 30l406 624v2h-362q-13 0 -13 15v16q0 13 13 13h412q13 0 13 -13v-16l-407 -626v-1h373q13 0 13 -13v-18q0 -13 -13 -13h-421q-14 0 -14 12v18zM282 763q-5 0 -10 5l-121 98q-9 7 -4 14l9 11q2 3 5.5 5t9.5 -3l113 -84l112 84q6 5 9.5 3t5.5 -5l9 -11q5 -7 -4 -14
l-121 -98q-5 -5 -10 -5h-3v0z" />
    <glyph glyph-name="Zdotaccent" unicode="&#x17b;" horiz-adv-x="533" 
d="M30 30l406 624v2h-362q-13 0 -13 15v16q0 13 13 13h412q13 0 13 -13v-16l-407 -626v-1h373q13 0 13 -13v-18q0 -13 -13 -13h-421q-14 0 -14 12v18zM283 810q-16 0 -27 11t-11 27t11 27t27 11t27 -11t11 -27t-11 -27t-27 -11z" />
    <glyph glyph-name="agrave" unicode="&#xe0;" horiz-adv-x="427" 
d="M44 123q0 58 44.5 96.5t123.5 38.5q17 0 33.5 -2.5t30 -5.5t23.5 -6t14 -4q0 33 -2.5 57.5t-11.5 41t-26.5 25t-47.5 8.5q-25 0 -45.5 -4t-36 -8.5t-25.5 -9t-13 -5.5q-11 -4 -15 8l-5 12q-4 11 6 15q1 1 11 5.5t27.5 10t42.5 10t56 4.5q46 0 71.5 -13t38 -36.5t15 -55.5
t2.5 -70v-222q0 -13 -13 -13h-12q-9 0 -12 11l-4 36q-20 -18 -55.5 -37.5t-83.5 -19.5q-56 0 -93.5 35.5t-37.5 97.5zM85 124q0 -44 26.5 -69.5t68.5 -25.5q23 0 44 6t38.5 15.5t30.5 20.5t20 20v110q-10 5 -37.5 13t-63.5 8q-57 0 -92 -26.5t-35 -71.5zM140 638q-9 5 -4 15
l10 20q3 5 8.5 5t8.5 -2l164 -90q9 -5 6 -14l-5 -10q-4 -8 -16 -3z" />
    <glyph glyph-name="aacute" unicode="&#xe1;" horiz-adv-x="427" 
d="M44 123q0 58 44.5 96.5t123.5 38.5q17 0 33.5 -2.5t30 -5.5t23.5 -6t14 -4q0 33 -2.5 57.5t-11.5 41t-26.5 25t-47.5 8.5q-25 0 -45.5 -4t-36 -8.5t-25.5 -9t-13 -5.5q-11 -4 -15 8l-5 12q-4 11 6 15q1 1 11 5.5t27.5 10t42.5 10t56 4.5q46 0 71.5 -13t38 -36.5t15 -55.5
t2.5 -70v-222q0 -13 -13 -13h-12q-9 0 -12 11l-4 36q-20 -18 -55.5 -37.5t-83.5 -19.5q-56 0 -93.5 35.5t-37.5 97.5zM85 124q0 -44 26.5 -69.5t68.5 -25.5q23 0 44 6t38.5 15.5t30.5 20.5t20 20v110q-10 5 -37.5 13t-63.5 8q-57 0 -92 -26.5t-35 -71.5zM153 558
q-7 -3 -9.5 -2t-4.5 6l-6 13q-4 8 6 14l165 87q4 2 9 2t8 -5l10 -20q5 -11 -9 -18l-169 -77v0z" />
    <glyph glyph-name="acircumflex" unicode="&#xe2;" horiz-adv-x="427" 
d="M44 123q0 58 44.5 96.5t123.5 38.5q17 0 33.5 -2.5t30 -5.5t23.5 -6t14 -4q0 33 -2.5 57.5t-11.5 41t-26.5 25t-47.5 8.5q-25 0 -45.5 -4t-36 -8.5t-25.5 -9t-13 -5.5q-11 -4 -15 8l-5 12q-4 11 6 15q1 1 11 5.5t27.5 10t42.5 10t56 4.5q46 0 71.5 -13t38 -36.5t15 -55.5
t2.5 -70v-222q0 -13 -13 -13h-12q-9 0 -12 11l-4 36q-20 -18 -55.5 -37.5t-83.5 -19.5q-56 0 -93.5 35.5t-37.5 97.5zM85 124q0 -44 26.5 -69.5t68.5 -25.5q23 0 44 6t38.5 15.5t30.5 20.5t20 20v110q-10 5 -37.5 13t-63.5 8q-57 0 -92 -26.5t-35 -71.5zM101 550
q-6 -5 -9.5 -3t-5.5 5l-9 11q-5 7 4 14l121 98q5 5 10 5h3q5 0 10 -5l121 -98q9 -7 4 -14l-9 -11q-2 -3 -5.5 -5t-9.5 3l-113 84l-112 -84v0z" />
    <glyph glyph-name="atilde" unicode="&#xe3;" horiz-adv-x="427" 
d="M44 123q0 58 44.5 96.5t123.5 38.5q17 0 33.5 -2.5t30 -5.5t23.5 -6t14 -4q0 33 -2.5 57.5t-11.5 41t-26.5 25t-47.5 8.5q-25 0 -45.5 -4t-36 -8.5t-25.5 -9t-13 -5.5q-11 -4 -15 8l-5 12q-4 11 6 15q1 1 11 5.5t27.5 10t42.5 10t56 4.5q46 0 71.5 -13t38 -36.5t15 -55.5
t2.5 -70v-222q0 -13 -13 -13h-12q-9 0 -12 11l-4 36q-20 -18 -55.5 -37.5t-83.5 -19.5q-56 0 -93.5 35.5t-37.5 97.5zM85 124q0 -44 26.5 -69.5t68.5 -25.5q23 0 44 6t38.5 15.5t30.5 20.5t20 20v110q-10 5 -37.5 13t-63.5 8q-57 0 -92 -26.5t-35 -71.5zM66 584q-10 3 -6 14
q3 7 8.5 21t16.5 28.5t27.5 25.5t40.5 11q27 0 41.5 -14t24 -31.5t19.5 -31.5t28 -14q14 0 23.5 6.5t16.5 16t11 19.5t6 17q4 13 15 7l11 -4q3 -2 5.5 -4.5t0.5 -8.5q-1 -3 -5.5 -17t-15 -29t-28 -27.5t-43.5 -12.5t-40.5 14.5t-24.5 31.5t-20 31.5t-28 14.5q-14 0 -24 -7
t-16.5 -17t-10.5 -20.5t-6 -17.5q-3 -12 -15 -7z" />
    <glyph glyph-name="adieresis" unicode="&#xe4;" horiz-adv-x="427" 
d="M44 123q0 58 44.5 96.5t123.5 38.5q17 0 33.5 -2.5t30 -5.5t23.5 -6t14 -4q0 33 -2.5 57.5t-11.5 41t-26.5 25t-47.5 8.5q-25 0 -45.5 -4t-36 -8.5t-25.5 -9t-13 -5.5q-11 -4 -15 8l-5 12q-4 11 6 15q1 1 11 5.5t27.5 10t42.5 10t56 4.5q46 0 71.5 -13t38 -36.5t15 -55.5
t2.5 -70v-222q0 -13 -13 -13h-12q-9 0 -12 11l-4 36q-20 -18 -55.5 -37.5t-83.5 -19.5q-56 0 -93.5 35.5t-37.5 97.5zM85 124q0 -44 26.5 -69.5t68.5 -25.5q23 0 44 6t38.5 15.5t30.5 20.5t20 20v110q-10 5 -37.5 13t-63.5 8q-57 0 -92 -26.5t-35 -71.5zM322 596
q-14 0 -23.5 9.5t-9.5 23.5q0 15 9.5 25t23.5 10q15 0 25 -10t10 -25q0 -14 -10 -23.5t-25 -9.5zM131 596q-14 0 -24 9.5t-10 23.5q0 15 10 25t24 10q15 0 24.5 -10t9.5 -25q0 -14 -9.5 -23.5t-24.5 -9.5z" />
    <glyph glyph-name="amacron" unicode="&#x101;" horiz-adv-x="427" 
d="M44 123q0 58 44.5 96.5t123.5 38.5q17 0 33.5 -2.5t30 -5.5t23.5 -6t14 -4q0 33 -2.5 57.5t-11.5 41t-26.5 25t-47.5 8.5q-25 0 -45.5 -4t-36 -8.5t-25.5 -9t-13 -5.5q-11 -4 -15 8l-5 12q-4 11 6 15q1 1 11 5.5t27.5 10t42.5 10t56 4.5q46 0 71.5 -13t38 -36.5t15 -55.5
t2.5 -70v-222q0 -13 -13 -13h-12q-9 0 -12 11l-4 36q-20 -18 -55.5 -37.5t-83.5 -19.5q-56 0 -93.5 35.5t-37.5 97.5zM85 124q0 -44 26.5 -69.5t68.5 -25.5q23 0 44 6t38.5 15.5t30.5 20.5t20 20v110q-10 5 -37.5 13t-63.5 8q-57 0 -92 -26.5t-35 -71.5zM76 595
q-13 0 -13 12v13q0 13 13 13h272q13 0 13 -13v-13q0 -12 -13 -12h-272v0z" />
    <glyph glyph-name="abreve" unicode="&#x103;" horiz-adv-x="427" 
d="M44 123q0 58 44.5 96.5t123.5 38.5q17 0 33.5 -2.5t30 -5.5t23.5 -6t14 -4q0 33 -2.5 57.5t-11.5 41t-26.5 25t-47.5 8.5q-25 0 -45.5 -4t-36 -8.5t-25.5 -9t-13 -5.5q-11 -4 -15 8l-5 12q-4 11 6 15q1 1 11 5.5t27.5 10t42.5 10t56 4.5q46 0 71.5 -13t38 -36.5t15 -55.5
t2.5 -70v-222q0 -13 -13 -13h-12q-9 0 -12 11l-4 36q-20 -18 -55.5 -37.5t-83.5 -19.5q-56 0 -93.5 35.5t-37.5 97.5zM85 124q0 -44 26.5 -69.5t68.5 -25.5q23 0 44 6t38.5 15.5t30.5 20.5t20 20v110q-10 5 -37.5 13t-63.5 8q-57 0 -92 -26.5t-35 -71.5zM215 538
q-52 0 -87.5 32t-43.5 78q-2 14 10 14h13q8 0 12 -11q8 -34 33.5 -56.5t62.5 -22.5q35 0 61 22.5t34 56.5q3 11 12 11h14q12 0 10 -14q-8 -47 -44 -78.5t-87 -31.5z" />
    <glyph glyph-name="aring" unicode="&#xe5;" horiz-adv-x="427" 
d="M44 123q0 58 44.5 96.5t123.5 38.5q17 0 33.5 -2.5t30 -5.5t23.5 -6t14 -4q0 33 -2.5 57.5t-11.5 41t-26.5 25t-47.5 8.5q-25 0 -45.5 -4t-36 -8.5t-25.5 -9t-13 -5.5q-11 -4 -15 8l-5 12q-4 11 6 15q1 1 11 5.5t27.5 10t42.5 10t56 4.5q46 0 71.5 -13t38 -36.5t15 -55.5
t2.5 -70v-222q0 -13 -13 -13h-12q-9 0 -12 11l-4 36q-20 -18 -55.5 -37.5t-83.5 -19.5q-56 0 -93.5 35.5t-37.5 97.5zM85 124q0 -44 26.5 -69.5t68.5 -25.5q23 0 44 6t38.5 15.5t30.5 20.5t20 20v110q-10 5 -37.5 13t-63.5 8q-57 0 -92 -26.5t-35 -71.5zM215 497
q-23 0 -42.5 8t-33.5 22.5t-22.5 33.5t-8.5 42q0 22 8.5 42t22.5 34t33.5 22.5t42.5 8.5q22 0 41.5 -8.5t33.5 -22.5t22.5 -34t8.5 -42q0 -23 -8.5 -42t-22.5 -33.5t-33.5 -22.5t-41.5 -8zM215 529q29 0 51 22t22 52t-22 52t-51 22q-30 0 -52.5 -22t-22.5 -52t22.5 -52
t52.5 -22z" />
    <glyph glyph-name="aringacute" unicode="&#x1fb;" horiz-adv-x="427" 
d="M44 123q0 58 44.5 96.5t123.5 38.5q17 0 33.5 -2.5t30 -5.5t23.5 -6t14 -4q0 33 -2.5 57.5t-11.5 41t-26.5 25t-47.5 8.5q-25 0 -45.5 -4t-36 -8.5t-25.5 -9t-13 -5.5q-11 -4 -15 8l-5 12q-4 11 6 15q1 1 11 5.5t27.5 10t42.5 10t56 4.5q46 0 71.5 -13t38 -36.5t15 -55.5
t2.5 -70v-222q0 -13 -13 -13h-12q-9 0 -12 11l-4 36q-20 -18 -55.5 -37.5t-83.5 -19.5q-56 0 -93.5 35.5t-37.5 97.5zM85 124q0 -44 26.5 -69.5t68.5 -25.5q23 0 44 6t38.5 15.5t30.5 20.5t20 20v110q-10 5 -37.5 13t-63.5 8q-57 0 -92 -26.5t-35 -71.5zM212 429
q-23 0 -42.5 8t-33.5 22.5t-22.5 33.5t-8.5 42q0 22 8.5 42t22.5 34t33.5 22.5t42.5 8.5q22 0 41.5 -8.5t33.5 -22.5t22.5 -34t8.5 -42q0 -23 -8.5 -42t-22.5 -33.5t-33.5 -22.5t-41.5 -8zM212 461q29 0 51 22t22 52t-22 52t-51 22q-30 0 -52.5 -22t-22.5 -52t22.5 -52
t52.5 -22zM133 642q-7 -3 -9.5 -2t-4.5 6l-6 13q-4 8 6 14l165 87q4 2 9 2t8 -5l10 -20q5 -11 -9 -18z" />
    <glyph glyph-name="aogonek" unicode="&#x105;" horiz-adv-x="427" 
d="M44 123q0 58 44.5 96.5t123.5 38.5q17 0 33.5 -2.5t30 -5.5t23.5 -6t14 -4q0 33 -2.5 57.5t-11.5 41t-26.5 25t-47.5 8.5q-25 0 -45.5 -4t-36 -8.5t-25.5 -9t-13 -5.5q-11 -4 -15 8l-5 12q-4 11 6 15q1 1 11 5.5t27.5 10t42.5 10t56 4.5q46 0 71.5 -13t38 -36.5t15 -55.5
t2.5 -70v-222q0 -13 -13 -13h-3q-8 -6 -19 -15.5t-21.5 -24t-18 -33t-7.5 -40.5q0 -34 22.5 -50.5t51.5 -16.5q23 0 38.5 5.5t23.5 9.5q11 6 13 -8l1 -10q1 -10 -8 -16q-9 -5 -29 -11t-44 -6q-21 0 -40.5 5.5t-34.5 17.5t-24 30.5t-9 44.5q0 28 11 50.5t25 39t28 26t20 12.5
l-4 37q-20 -18 -55.5 -37.5t-83.5 -19.5q-56 0 -93.5 35.5t-37.5 97.5zM85 124q0 -44 26.5 -69.5t68.5 -25.5q23 0 44 6t38.5 15.5t30.5 20.5t20 20v110q-10 5 -37.5 13t-63.5 8q-57 0 -92 -26.5t-35 -71.5z" />
    <glyph glyph-name="ae" unicode="&#xe6;" horiz-adv-x="705" 
d="M45 125q0 58 43.5 95t118.5 37q38 0 68 -5t38 -8q0 33 -2.5 57t-11 39.5t-25.5 23t-46 7.5q-26 0 -47.5 -4t-37.5 -8.5t-26.5 -9t-13.5 -5.5q-12 -3 -15 8l-4 16q-2 9 9 13q17 8 38 14q18 5 43.5 10t55.5 5q51 0 77.5 -15t37.5 -44q26 28 60 43.5t77 15.5
q39 0 72.5 -13.5t57.5 -38t37.5 -58t13.5 -73.5q0 -12 -2 -25.5t-13 -13.5h-296v-84q20 -33 54.5 -53.5t78.5 -20.5q40 0 70 12.5t48 24.5q7 5 10.5 5t7.5 -5l10 -14q5 -7 -4 -16q-8 -8 -22.5 -16t-34 -15t-42.5 -11.5t-46 -4.5q-47 0 -83.5 18t-62.5 50q-10 -12 -26 -24
t-36.5 -22t-44.5 -16t-49 -6q-59 0 -97 36t-38 99zM619 224q0 29 -9 55.5t-26 46.5t-42.5 32t-59.5 12q-44 0 -77 -19t-53 -51v-76h267zM85 124q0 -47 30 -71t71 -24q21 0 41 5.5t37 13.5t30 18.5t20 19.5v120q-5 2 -33 8.5t-69 6.5q-55 0 -91 -26t-36 -71z" />
    <glyph glyph-name="aeacute" unicode="&#x1fd;" horiz-adv-x="705" 
d="M45 125q0 58 43.5 95t118.5 37q38 0 68 -5t38 -8q0 33 -2.5 57t-11 39.5t-25.5 23t-46 7.5q-26 0 -47.5 -4t-37.5 -8.5t-26.5 -9t-13.5 -5.5q-12 -3 -15 8l-4 16q-2 9 9 13q17 8 38 14q18 5 43.5 10t55.5 5q51 0 77.5 -15t37.5 -44q26 28 60 43.5t77 15.5
q39 0 72.5 -13.5t57.5 -38t37.5 -58t13.5 -73.5q0 -12 -2 -25.5t-13 -13.5h-296v-84q20 -33 54.5 -53.5t78.5 -20.5q40 0 70 12.5t48 24.5q7 5 10.5 5t7.5 -5l10 -14q5 -7 -4 -16q-8 -8 -22.5 -16t-34 -15t-42.5 -11.5t-46 -4.5q-47 0 -83.5 18t-62.5 50q-10 -12 -26 -24
t-36.5 -22t-44.5 -16t-49 -6q-59 0 -97 36t-38 99zM619 224q0 29 -9 55.5t-26 46.5t-42.5 32t-59.5 12q-44 0 -77 -19t-53 -51v-76h267zM85 124q0 -47 30 -71t71 -24q21 0 41 5.5t37 13.5t30 18.5t20 19.5v120q-5 2 -33 8.5t-69 6.5q-55 0 -91 -26t-36 -71zM304 558
q-7 -3 -9.5 -2t-4.5 6l-6 13q-4 8 6 14l165 87q4 2 9 2t8 -5l10 -20q5 -11 -9 -18l-169 -77v0z" />
    <glyph glyph-name="cacute" unicode="&#x107;" horiz-adv-x="459" 
d="M46 200q0 45 17 83.5t45.5 66.5t67 44t80.5 16q29 0 53.5 -6.5t43 -16.5t31.5 -20.5t20 -19.5q8 -10 -2 -18l-10 -10q-5 -5 -10.5 -4t-10.5 6q-4 4 -13.5 12t-24 15.5t-34 13t-43.5 5.5q-34 0 -64 -12.5t-52.5 -35t-35.5 -52.5t-13 -66t13 -67t35.5 -53.5t52.5 -35.5
t63 -13q28 0 49.5 7.5t37 17.5t25 19.5t13.5 14.5q10 11 19 2l11 -10q8 -8 3 -16q-6 -9 -19.5 -22t-33.5 -25.5t-46.5 -21t-57.5 -8.5q-42 0 -80.5 16t-67 44t-45.5 66.5t-17 83.5zM175 558q-7 -3 -9.5 -2t-4.5 6l-6 13q-4 8 6 14l165 87q4 2 9 2t8 -5l10 -20q5 -11 -9 -18
l-169 -77v0z" />
    <glyph glyph-name="ccircumflex" unicode="&#x109;" horiz-adv-x="459" 
d="M46 200q0 45 17 83.5t45.5 66.5t67 44t80.5 16q29 0 53.5 -6.5t43 -16.5t31.5 -20.5t20 -19.5q8 -10 -2 -18l-10 -10q-5 -5 -10.5 -4t-10.5 6q-4 4 -13.5 12t-24 15.5t-34 13t-43.5 5.5q-34 0 -64 -12.5t-52.5 -35t-35.5 -52.5t-13 -66t13 -67t35.5 -53.5t52.5 -35.5
t63 -13q28 0 49.5 7.5t37 17.5t25 19.5t13.5 14.5q10 11 19 2l11 -10q8 -8 3 -16q-6 -9 -19.5 -22t-33.5 -25.5t-46.5 -21t-57.5 -8.5q-42 0 -80.5 16t-67 44t-45.5 66.5t-17 83.5zM138 550q-6 -5 -9.5 -3t-5.5 5l-9 11q-5 7 4 14l121 98q5 5 10 5h3q5 0 10 -5l121 -98
q9 -7 4 -14l-9 -11q-2 -3 -5.5 -5t-9.5 3l-113 84l-112 -84v0z" />
    <glyph glyph-name="ccaron" unicode="&#x10d;" horiz-adv-x="459" 
d="M46 200q0 45 17 83.5t45.5 66.5t67 44t80.5 16q29 0 53.5 -6.5t43 -16.5t31.5 -20.5t20 -19.5q8 -10 -2 -18l-10 -10q-5 -5 -10.5 -4t-10.5 6q-4 4 -13.5 12t-24 15.5t-34 13t-43.5 5.5q-34 0 -64 -12.5t-52.5 -35t-35.5 -52.5t-13 -66t13 -67t35.5 -53.5t52.5 -35.5
t63 -13q28 0 49.5 7.5t37 17.5t25 19.5t13.5 14.5q10 11 19 2l11 -10q8 -8 3 -16q-6 -9 -19.5 -22t-33.5 -25.5t-46.5 -21t-57.5 -8.5q-42 0 -80.5 16t-67 44t-45.5 66.5t-17 83.5zM250 545q-5 0 -10 5l-121 98q-9 7 -4 14l9 11q2 3 5.5 5t9.5 -3l113 -84l112 84q6 5 9.5 3
t5.5 -5l9 -11q5 -7 -4 -14l-121 -98q-5 -5 -10 -5h-3v0z" />
    <glyph glyph-name="cdotaccent" unicode="&#x10b;" horiz-adv-x="459" 
d="M46 200q0 45 17 83.5t45.5 66.5t67 44t80.5 16q29 0 53.5 -6.5t43 -16.5t31.5 -20.5t20 -19.5q8 -10 -2 -18l-10 -10q-5 -5 -10.5 -4t-10.5 6q-4 4 -13.5 12t-24 15.5t-34 13t-43.5 5.5q-34 0 -64 -12.5t-52.5 -35t-35.5 -52.5t-13 -66t13 -67t35.5 -53.5t52.5 -35.5
t63 -13q28 0 49.5 7.5t37 17.5t25 19.5t13.5 14.5q10 11 19 2l11 -10q8 -8 3 -16q-6 -9 -19.5 -22t-33.5 -25.5t-46.5 -21t-57.5 -8.5q-42 0 -80.5 16t-67 44t-45.5 66.5t-17 83.5zM253 582q-16 0 -27 11.5t-11 26.5q0 16 11 27t27 11t27 -11t11 -27q0 -15 -11 -26.5
t-27 -11.5z" />
    <glyph glyph-name="ccedilla" unicode="&#xe7;" horiz-adv-x="461" 
d="M47 200q0 45 17 83.5t45.5 66.5t67 44t80.5 16q29 0 53.5 -6.5t43 -16.5t31.5 -20.5t20 -19.5q8 -10 -2 -18l-10 -10q-5 -5 -10.5 -4t-10.5 6q-4 4 -13.5 12t-24 15.5t-34 13t-43.5 5.5q-34 0 -64 -12.5t-52.5 -35t-35.5 -52.5t-13 -66t13 -67t35.5 -53.5t52.5 -35.5
t63 -13q28 0 49.5 7.5t37 17.5t25 19.5t13.5 14.5q10 11 19 2l11 -10q8 -8 3 -16q-6 -9 -19.5 -22t-33.5 -25.5t-46.5 -21t-57.5 -8.5h-7v-44q45 -5 76 -28.5t31 -68.5q0 -20 -7.5 -37.5t-20.5 -31t-31 -21t-39 -7.5q-29 0 -50 11.5t-28 22.5t1 18l10 8q7 6 16 -3
q5 -5 17 -13t34 -8q27 0 43 17.5t16 42.5q0 18 -8.5 30t-21.5 20t-29.5 12t-32.5 6q-12 3 -12 13v66q-35 7 -65.5 25t-53 45t-35.5 61t-13 74z" />
    <glyph glyph-name="dcaron" unicode="&#x10f;" horiz-adv-x="516" 
d="M47 200q0 44 14.5 82.5t41 67t62.5 44.5t79 16q29 0 51.5 -6t38.5 -14q18 -9 33 -20v317q0 13 13 13h18q5 0 8.5 -4t3.5 -9v-674q0 -13 -13 -13h-10q-13 0 -14 13l-3 35q-5 -5 -16 -14.5t-28.5 -19.5t-41 -17t-52.5 -7q-39 0 -73 16.5t-58.5 45t-39 66.5t-14.5 82z
M91 200q0 -35 10.5 -66t30 -54t45.5 -36.5t58 -13.5q33 0 57 10.5t40.5 23.5t25 24t9.5 13v224q-14 11 -32 21q-16 8 -38 14.5t-49 6.5q-35 0 -63.5 -12.5t-49.5 -35t-32.5 -53t-11.5 -66.5zM515 672q0 18 11.5 28.5t30.5 10.5q22 0 39 -22t17 -72q0 -30 -8.5 -54
t-20.5 -41.5t-24 -28.5t-19 -15q-12 -7 -17 0l-8 10q-7 8 4 16q2 1 10 7.5t17.5 18.5t18 29t10.5 40q1 22 -5 38q-8 -5 -16 -5q-20 0 -30 12t-10 28z" />
    <glyph glyph-name="dcroat" unicode="&#x111;" 
d="M47 200q0 44 14.5 82.5t41 67t62.5 44.5t79 16q29 0 51.5 -6t38.5 -14q18 -9 33 -20v172h-191q-13 0 -13 13v5q0 13 13 13h191v114q0 13 14 13h17q5 0 8.5 -4t3.5 -9v-114h39q6 0 9 -4.5t3 -10.5v-3q0 -13 -12 -13h-39v-529q0 -13 -13 -13h-10q-13 0 -14 13l-3 36
q-5 -5 -16 -15t-28.5 -20t-41 -17t-52.5 -7q-39 0 -73 16.5t-58.5 45t-39 66.5t-14.5 82zM91 200q0 -35 10.5 -66t30 -54t45.5 -36.5t58 -13.5q33 0 57 10.5t40.5 23.5t25 24t9.5 13v224q-14 11 -32 21q-16 8 -38 14.5t-49 6.5q-35 0 -63.5 -12.5t-49.5 -35t-32.5 -53
t-11.5 -66.5z" />
    <glyph glyph-name="eth" unicode="&#xf0;" horiz-adv-x="553" 
d="M44 220q0 50 18 90.5t48 69t69 44t82 15.5q38 0 69.5 -9.5t55.5 -23t39.5 -27t21.5 -21.5q-12 72 -53 127.5t-89 94.5l-115 -67q-5 -2 -10 -1t-7 6l-3 5q-3 5 -2 10t6 7l104 60q-41 28 -72 43.5t-48 22.5q-12 4 -6 16l7 17q3 9 14 5q23 -8 62 -28t83 -53l69 40
q11 6 18 -5l3 -5q5 -10 -5 -17l-58 -34q30 -26 58 -59t50 -73.5t35 -89t13 -105.5q0 -60 -15 -112t-44 -90.5t-73 -60.5t-102 -22q-45 0 -85.5 18t-71 49.5t-48.5 73t-18 89.5zM88 218q0 -38 14 -72t38.5 -59.5t57 -40t69.5 -14.5q48 0 83.5 19.5t59.5 52.5t35.5 75.5
t11.5 88.5q0 8 -0.5 15t-1.5 15q-1 1 -14 17t-37 34.5t-59.5 33.5t-80.5 15q-36 0 -68 -13t-56 -37t-38 -57t-14 -73z" />
    <glyph glyph-name="egrave" unicode="&#xe8;" horiz-adv-x="467" 
d="M47 201q0 43 13.5 81t39 66.5t62 45t82.5 16.5q39 0 72.5 -13.5t57.5 -38t37.5 -58t13.5 -73.5q0 -12 -2 -25.5t-13 -13.5h-319q1 -32 13 -61t32.5 -50.5t48.5 -34t62 -12.5q40 0 70 12.5t48 24.5q7 5 10.5 5t7.5 -5l10 -14q5 -7 -4 -16q-8 -8 -22.5 -16t-34 -15
t-42.5 -11.5t-46 -4.5q-46 0 -82.5 16.5t-62 45t-39 67t-13.5 82.5zM381 224q0 29 -9 55.5t-26 46.5t-42.5 32t-59.5 12q-33 0 -60 -11.5t-47 -31t-31.5 -46t-13.5 -57.5h289zM149 638q-9 5 -4 15l10 20q3 5 8.5 5t8.5 -2l164 -90q9 -5 6 -14l-5 -10q-4 -8 -16 -3z" />
    <glyph glyph-name="eacute" unicode="&#xe9;" horiz-adv-x="467" 
d="M47 201q0 43 13.5 81t39 66.5t62 45t82.5 16.5q39 0 72.5 -13.5t57.5 -38t37.5 -58t13.5 -73.5q0 -12 -2 -25.5t-13 -13.5h-319q1 -32 13 -61t32.5 -50.5t48.5 -34t62 -12.5q40 0 70 12.5t48 24.5q7 5 10.5 5t7.5 -5l10 -14q5 -7 -4 -16q-8 -8 -22.5 -16t-34 -15
t-42.5 -11.5t-46 -4.5q-46 0 -82.5 16.5t-62 45t-39 67t-13.5 82.5zM381 224q0 29 -9 55.5t-26 46.5t-42.5 32t-59.5 12q-33 0 -60 -11.5t-47 -31t-31.5 -46t-13.5 -57.5h289zM165 558q-7 -3 -9.5 -2t-4.5 6l-6 13q-4 8 6 14l165 87q4 2 9 2t8 -5l10 -20q5 -11 -9 -18
l-169 -77v0z" />
    <glyph glyph-name="ecircumflex" unicode="&#xea;" horiz-adv-x="467" 
d="M47 201q0 43 13.5 81t39 66.5t62 45t82.5 16.5q39 0 72.5 -13.5t57.5 -38t37.5 -58t13.5 -73.5q0 -12 -2 -25.5t-13 -13.5h-319q1 -32 13 -61t32.5 -50.5t48.5 -34t62 -12.5q40 0 70 12.5t48 24.5q7 5 10.5 5t7.5 -5l10 -14q5 -7 -4 -16q-8 -8 -22.5 -16t-34 -15
t-42.5 -11.5t-46 -4.5q-46 0 -82.5 16.5t-62 45t-39 67t-13.5 82.5zM381 224q0 29 -9 55.5t-26 46.5t-42.5 32t-59.5 12q-33 0 -60 -11.5t-47 -31t-31.5 -46t-13.5 -57.5h289zM130 550q-6 -5 -9.5 -3t-5.5 5l-9 11q-5 7 4 14l121 98q5 5 10 5h3q5 0 10 -5l121 -98
q9 -7 4 -14l-9 -11q-2 -3 -5.5 -5t-9.5 3l-113 84l-112 -84v0z" />
    <glyph glyph-name="ecaron" unicode="&#x11b;" horiz-adv-x="467" 
d="M47 201q0 43 13.5 81t39 66.5t62 45t82.5 16.5q39 0 72.5 -13.5t57.5 -38t37.5 -58t13.5 -73.5q0 -12 -2 -25.5t-13 -13.5h-319q1 -32 13 -61t32.5 -50.5t48.5 -34t62 -12.5q40 0 70 12.5t48 24.5q7 5 10.5 5t7.5 -5l10 -14q5 -7 -4 -16q-8 -8 -22.5 -16t-34 -15
t-42.5 -11.5t-46 -4.5q-46 0 -82.5 16.5t-62 45t-39 67t-13.5 82.5zM381 224q0 29 -9 55.5t-26 46.5t-42.5 32t-59.5 12q-33 0 -60 -11.5t-47 -31t-31.5 -46t-13.5 -57.5h289zM244 545q-5 0 -10 5l-121 98q-9 7 -4 14l9 11q2 3 5.5 5t9.5 -3l113 -84l112 84q6 5 9.5 3
t5.5 -5l9 -11q5 -7 -4 -14l-121 -98q-5 -5 -10 -5h-3v0z" />
    <glyph glyph-name="edieresis" unicode="&#xeb;" horiz-adv-x="467" 
d="M47 201q0 43 13.5 81t39 66.5t62 45t82.5 16.5q39 0 72.5 -13.5t57.5 -38t37.5 -58t13.5 -73.5q0 -12 -2 -25.5t-13 -13.5h-319q1 -32 13 -61t32.5 -50.5t48.5 -34t62 -12.5q40 0 70 12.5t48 24.5q7 5 10.5 5t7.5 -5l10 -14q5 -7 -4 -16q-8 -8 -22.5 -16t-34 -15
t-42.5 -11.5t-46 -4.5q-46 0 -82.5 16.5t-62 45t-39 67t-13.5 82.5zM381 224q0 29 -9 55.5t-26 46.5t-42.5 32t-59.5 12q-33 0 -60 -11.5t-47 -31t-31.5 -46t-13.5 -57.5h289zM338 596q-14 0 -23.5 9.5t-9.5 23.5q0 15 9.5 25t23.5 10q15 0 25 -10t10 -25q0 -14 -10 -23.5
t-25 -9.5zM147 596q-14 0 -24 9.5t-10 23.5q0 15 10 25t24 10q15 0 24.5 -10t9.5 -25q0 -14 -9.5 -23.5t-24.5 -9.5z" />
    <glyph glyph-name="emacron" unicode="&#x113;" horiz-adv-x="467" 
d="M47 201q0 43 13.5 81t39 66.5t62 45t82.5 16.5q39 0 72.5 -13.5t57.5 -38t37.5 -58t13.5 -73.5q0 -12 -2 -25.5t-13 -13.5h-319q1 -32 13 -61t32.5 -50.5t48.5 -34t62 -12.5q40 0 70 12.5t48 24.5q7 5 10.5 5t7.5 -5l10 -14q5 -7 -4 -16q-8 -8 -22.5 -16t-34 -15
t-42.5 -11.5t-46 -4.5q-46 0 -82.5 16.5t-62 45t-39 67t-13.5 82.5zM381 224q0 29 -9 55.5t-26 46.5t-42.5 32t-59.5 12q-33 0 -60 -11.5t-47 -31t-31.5 -46t-13.5 -57.5h289zM108 595q-13 0 -13 12v13q0 13 13 13h272q13 0 13 -13v-13q0 -12 -13 -12h-272v0z" />
    <glyph glyph-name="ebreve" unicode="&#x115;" horiz-adv-x="467" 
d="M47 201q0 43 13.5 81t39 66.5t62 45t82.5 16.5q39 0 72.5 -13.5t57.5 -38t37.5 -58t13.5 -73.5q0 -12 -2 -25.5t-13 -13.5h-319q1 -32 13 -61t32.5 -50.5t48.5 -34t62 -12.5q40 0 70 12.5t48 24.5q7 5 10.5 5t7.5 -5l10 -14q5 -7 -4 -16q-8 -8 -22.5 -16t-34 -15
t-42.5 -11.5t-46 -4.5q-46 0 -82.5 16.5t-62 45t-39 67t-13.5 82.5zM381 224q0 29 -9 55.5t-26 46.5t-42.5 32t-59.5 12q-33 0 -60 -11.5t-47 -31t-31.5 -46t-13.5 -57.5h289zM244 538q-52 0 -87.5 32t-43.5 78q-2 14 10 14h13q8 0 12 -11q8 -34 33.5 -56.5t62.5 -22.5
q35 0 61 22.5t34 56.5q3 11 12 11h14q12 0 10 -14q-8 -47 -44 -78.5t-87 -31.5z" />
    <glyph glyph-name="edotaccent" unicode="&#x117;" horiz-adv-x="467" 
d="M47 201q0 43 13.5 81t39 66.5t62 45t82.5 16.5q39 0 72.5 -13.5t57.5 -38t37.5 -58t13.5 -73.5q0 -12 -2 -25.5t-13 -13.5h-319q1 -32 13 -61t32.5 -50.5t48.5 -34t62 -12.5q40 0 70 12.5t48 24.5q7 5 10.5 5t7.5 -5l10 -14q5 -7 -4 -16q-8 -8 -22.5 -16t-34 -15
t-42.5 -11.5t-46 -4.5q-46 0 -82.5 16.5t-62 45t-39 67t-13.5 82.5zM381 224q0 29 -9 55.5t-26 46.5t-42.5 32t-59.5 12q-33 0 -60 -11.5t-47 -31t-31.5 -46t-13.5 -57.5h289zM246 582q-16 0 -27 11.5t-11 26.5q0 16 11 27t27 11t27 -11t11 -27q0 -15 -11 -26.5t-27 -11.5z
" />
    <glyph glyph-name="eogonek" unicode="&#x119;" horiz-adv-x="469" 
d="M168 -118q0 38 18 65.5t37 43.5q-41 4 -73.5 21.5t-55 46t-34.5 65t-12 77.5q0 43 13.5 81t39 66.5t62 45t82.5 16.5q39 0 72.5 -13.5t57.5 -38t37.5 -58t13.5 -73.5q0 -12 -2 -25.5t-13 -13.5h-319q1 -32 13 -61t32.5 -50.5t48.5 -34t62 -12.5q40 0 70 12.5t48 24.5
q7 5 10.5 5t7.5 -5l10 -14q5 -7 -4 -16q-7 -7 -20.5 -14.5t-30.5 -14t-37.5 -11.5t-41.5 -6q-17 -15 -35 -40.5t-18 -63.5q0 -34 22.5 -50.5t51.5 -16.5q23 0 38.5 5.5t23.5 9.5q11 6 13 -8l1 -10q1 -10 -8 -16q-9 -5 -29 -11t-44 -6q-21 0 -40.5 5.5t-34.5 17.5t-24 30.5
t-9 44.5zM382 224q0 29 -9 55.5t-26 46.5t-42.5 32t-59.5 12q-33 0 -60 -11.5t-47 -31t-31.5 -46t-13.5 -57.5h289z" />
    <glyph glyph-name="gcircumflex" unicode="&#x11d;" horiz-adv-x="462" 
d="M35 34q0 25 9 44t20 32.5t22 21t15 9.5q-8 11 -19.5 37.5t-11.5 62.5t12 67t35 53.5t55 35.5t73 13h164q13 0 13 -13v-11q0 -4 -2 -7.5t-7 -4.5l-72 -5q7 -4 17.5 -12.5t20.5 -24t17 -38t7 -53.5q0 -33 -11.5 -63.5t-33 -53t-52.5 -36t-69 -13.5q-45 0 -72 12.5t-37 23.5
q-3 -1 -11.5 -6t-17 -13.5t-15.5 -21.5t-7 -31t7 -29t18 -17.5t25 -9t29 -2.5h145q32 0 59.5 -7.5t47 -23t30.5 -40t11 -57.5q0 -32 -14.5 -61.5t-41.5 -52t-64.5 -36t-83.5 -13.5q-51 0 -88 13.5t-60.5 35t-35 47.5t-11.5 52q0 22 7 39.5t16.5 30.5t20.5 21.5t19 13.5
q-8 1 -21 7t-25.5 17.5t-22 27.5t-9.5 39zM238 114q28 0 51 10t39 27.5t24.5 40.5t8.5 50q0 31 -10 55t-27 40.5t-39 24.5t-47 8q-29 0 -52.5 -10t-40 -27t-25.5 -40.5t-9 -50.5q0 -26 8 -49.5t24 -41t39.5 -27.5t55.5 -10zM94 -157q0 -21 10 -41t29 -35.5t47 -25.5t64 -10
q34 0 63 9.5t50.5 25.5t33.5 38t12 48q0 17 -5.5 33t-17.5 28t-31.5 19.5t-47.5 7.5h-126q-4 0 -17 -6t-27.5 -17.5t-25.5 -30t-11 -43.5zM134 550q-6 -5 -9.5 -3t-5.5 5l-9 11q-5 7 4 14l121 98q5 5 10 5h3q5 0 10 -5l121 -98q9 -7 4 -14l-9 -11q-2 -3 -5.5 -5t-9.5 3
l-113 84l-112 -84v0z" />
    <glyph glyph-name="gbreve" unicode="&#x11f;" horiz-adv-x="462" 
d="M35 34q0 25 9 44t20 32.5t22 21t15 9.5q-8 11 -19.5 37.5t-11.5 62.5t12 67t35 53.5t55 35.5t73 13h164q13 0 13 -13v-11q0 -4 -2 -7.5t-7 -4.5l-72 -5q7 -4 17.5 -12.5t20.5 -24t17 -38t7 -53.5q0 -33 -11.5 -63.5t-33 -53t-52.5 -36t-69 -13.5q-45 0 -72 12.5t-37 23.5
q-3 -1 -11.5 -6t-17 -13.5t-15.5 -21.5t-7 -31t7 -29t18 -17.5t25 -9t29 -2.5h145q32 0 59.5 -7.5t47 -23t30.5 -40t11 -57.5q0 -32 -14.5 -61.5t-41.5 -52t-64.5 -36t-83.5 -13.5q-51 0 -88 13.5t-60.5 35t-35 47.5t-11.5 52q0 22 7 39.5t16.5 30.5t20.5 21.5t19 13.5
q-8 1 -21 7t-25.5 17.5t-22 27.5t-9.5 39zM238 114q28 0 51 10t39 27.5t24.5 40.5t8.5 50q0 31 -10 55t-27 40.5t-39 24.5t-47 8q-29 0 -52.5 -10t-40 -27t-25.5 -40.5t-9 -50.5q0 -26 8 -49.5t24 -41t39.5 -27.5t55.5 -10zM94 -157q0 -21 10 -41t29 -35.5t47 -25.5t64 -10
q34 0 63 9.5t50.5 25.5t33.5 38t12 48q0 17 -5.5 33t-17.5 28t-31.5 19.5t-47.5 7.5h-126q-4 0 -17 -6t-27.5 -17.5t-25.5 -30t-11 -43.5zM255 538q-52 0 -87.5 32t-43.5 78q-2 14 10 14h13q8 0 12 -11q8 -34 33.5 -56.5t62.5 -22.5q35 0 61 22.5t34 56.5q3 11 12 11h14
q12 0 10 -14q-8 -47 -44 -78.5t-87 -31.5z" />
    <glyph glyph-name="gdotaccent" unicode="&#x121;" horiz-adv-x="462" 
d="M35 34q0 25 9 44t20 32.5t22 21t15 9.5q-8 11 -19.5 37.5t-11.5 62.5t12 67t35 53.5t55 35.5t73 13h164q13 0 13 -13v-11q0 -4 -2 -7.5t-7 -4.5l-72 -5q7 -4 17.5 -12.5t20.5 -24t17 -38t7 -53.5q0 -33 -11.5 -63.5t-33 -53t-52.5 -36t-69 -13.5q-45 0 -72 12.5t-37 23.5
q-3 -1 -11.5 -6t-17 -13.5t-15.5 -21.5t-7 -31t7 -29t18 -17.5t25 -9t29 -2.5h145q32 0 59.5 -7.5t47 -23t30.5 -40t11 -57.5q0 -32 -14.5 -61.5t-41.5 -52t-64.5 -36t-83.5 -13.5q-51 0 -88 13.5t-60.5 35t-35 47.5t-11.5 52q0 22 7 39.5t16.5 30.5t20.5 21.5t19 13.5
q-8 1 -21 7t-25.5 17.5t-22 27.5t-9.5 39zM238 114q28 0 51 10t39 27.5t24.5 40.5t8.5 50q0 31 -10 55t-27 40.5t-39 24.5t-47 8q-29 0 -52.5 -10t-40 -27t-25.5 -40.5t-9 -50.5q0 -26 8 -49.5t24 -41t39.5 -27.5t55.5 -10zM94 -157q0 -21 10 -41t29 -35.5t47 -25.5t64 -10
q34 0 63 9.5t50.5 25.5t33.5 38t12 48q0 17 -5.5 33t-17.5 28t-31.5 19.5t-47.5 7.5h-126q-4 0 -17 -6t-27.5 -17.5t-25.5 -30t-11 -43.5zM252 582q-16 0 -27 11.5t-11 26.5q0 16 11 27t27 11t27 -11t11 -27q0 -15 -11 -26.5t-27 -11.5z" />
    <glyph glyph-name="gcommaaccent" unicode="&#x123;" horiz-adv-x="462" 
d="M35 34q0 25 9 44t20 32.5t22 21t15 9.5q-8 11 -19.5 37.5t-11.5 62.5t12 67t35 53.5t55 35.5t73 13h164q13 0 13 -13v-11q0 -4 -2 -7.5t-7 -4.5l-72 -5q7 -4 17.5 -12.5t20.5 -24t17 -38t7 -53.5q0 -33 -11.5 -63.5t-33 -53t-52.5 -36t-69 -13.5q-45 0 -72 12.5t-37 23.5
q-3 -1 -11.5 -6t-17 -13.5t-15.5 -21.5t-7 -31t7 -29t18 -17.5t25 -9t29 -2.5h145q32 0 59.5 -7.5t47 -23t30.5 -40t11 -57.5q0 -32 -14.5 -61.5t-41.5 -52t-64.5 -36t-83.5 -13.5q-51 0 -88 13.5t-60.5 35t-35 47.5t-11.5 52q0 22 7 39.5t16.5 30.5t20.5 21.5t19 13.5
q-8 1 -21 7t-25.5 17.5t-22 27.5t-9.5 39zM238 114q28 0 51 10t39 27.5t24.5 40.5t8.5 50q0 31 -10 55t-27 40.5t-39 24.5t-47 8q-29 0 -52.5 -10t-40 -27t-25.5 -40.5t-9 -50.5q0 -26 8 -49.5t24 -41t39.5 -27.5t55.5 -10zM94 -157q0 -21 10 -41t29 -35.5t47 -25.5t64 -10
q34 0 63 9.5t50.5 25.5t33.5 38t12 48q0 17 -5.5 33t-17.5 28t-31.5 19.5t-47.5 7.5h-126q-4 0 -17 -6t-27.5 -17.5t-25.5 -30t-11 -43.5zM239 535q-22 0 -39 22t-17 72q0 30 8.5 54t20.5 41.5t24 28.5t19 15q12 7 17 0l8 -10q7 -8 -4 -16q-2 -2 -10 -8t-17.5 -18t-18 -29
t-10.5 -40q-1 -22 5 -38q8 5 16 5q20 0 30 -12t10 -28q0 -18 -11.5 -28.5t-30.5 -10.5z" />
    <glyph glyph-name="hcircumflex" unicode="&#x125;" horiz-adv-x="495" 
d="M76 687q0 13 14 13h16q13 0 13 -13v-341q5 5 17 15.5t30.5 21.5t43 19t54.5 8q78 0 119.5 -46.5t41.5 -136.5v-214q0 -13 -13 -13h-18q-13 0 -13 13v214q0 69 -31 104.5t-88 35.5q-31 0 -56.5 -10t-44.5 -23t-30 -24t-12 -13v-284q0 -13 -13 -13h-19q-11 0 -11 13v674z
M-13 767q-6 -5 -9.5 -3t-5.5 5l-9 11q-5 7 4 14l121 98q5 5 10 5h3q5 0 10 -5l121 -98q9 -7 4 -14l-9 -11q-2 -3 -5.5 -5t-9.5 3l-113 84l-112 -84v0z" />
    <glyph glyph-name="hbar" unicode="&#x127;" horiz-adv-x="495" 
d="M76 542h-39q-6 0 -9 4.5t-3 9.5v4q0 13 12 13h39v114q0 13 13 13h17q13 0 13 -13v-114h191q7 0 10 -4.5t3 -10.5v-4q0 -5 -4 -8.5t-9 -3.5h-191v-196q5 5 17 15.5t30.5 21.5t43 19t54.5 8q78 0 119.5 -46.5t41.5 -136.5v-214q0 -13 -13 -13h-18q-13 0 -13 13v214
q0 69 -31 104.5t-88 35.5q-31 0 -56.5 -10t-44.5 -23t-30 -24t-12 -13v-284q0 -6 -4.5 -9.5t-9.5 -3.5h-16q-13 0 -13 13v529z" />
    <glyph glyph-name="dotlessi" unicode="&#x131;" horiz-adv-x="196" 
d="M76 387q0 13 13 13h18q13 0 13 -13v-374q0 -6 -4.5 -9.5t-9.5 -3.5h-17q-13 0 -13 13v374z" />
    <glyph glyph-name="igrave" unicode="&#xec;" horiz-adv-x="196" 
d="M76 387q0 13 13 13h18q13 0 13 -13v-374q0 -6 -4.5 -9.5t-9.5 -3.5h-17q-13 0 -13 13v374zM5 638q-9 5 -4 15l10 20q3 5 8.5 5t8.5 -2l164 -90q9 -5 6 -14l-5 -10q-4 -8 -16 -3z" />
    <glyph glyph-name="iacute" unicode="&#xed;" horiz-adv-x="196" 
d="M76 387q0 13 13 13h18q13 0 13 -13v-374q0 -6 -4.5 -9.5t-9.5 -3.5h-17q-13 0 -13 13v374zM21 558q-7 -3 -9.5 -2t-4.5 6l-6 13q-4 8 6 14l165 87q4 2 9 2t8 -5l10 -20q5 -11 -9 -18l-169 -77v0z" />
    <glyph glyph-name="ibreve" unicode="&#x12d;" horiz-adv-x="196" 
d="M76 387q0 13 13 13h18q13 0 13 -13v-374q0 -6 -4.5 -9.5t-9.5 -3.5h-17q-13 0 -13 13v374zM100 538q-52 0 -87.5 32t-43.5 78q-2 14 10 14h13q8 0 12 -11q8 -34 33.5 -56.5t62.5 -22.5q35 0 61 22.5t34 56.5q3 11 12 11h14q12 0 10 -14q-8 -47 -44 -78.5t-87 -31.5z" />
    <glyph glyph-name="icircumflex" unicode="&#xee;" horiz-adv-x="196" 
d="M76 387q0 13 13 13h18q13 0 13 -13v-374q0 -6 -4.5 -9.5t-9.5 -3.5h-17q-13 0 -13 13v374zM-14 550q-6 -5 -9.5 -3t-5.5 5l-9 11q-5 7 4 14l121 98q5 5 10 5h3q5 0 10 -5l121 -98q9 -7 4 -14l-9 -11q-2 -3 -5.5 -5t-9.5 3l-113 84l-112 -84v0z" />
    <glyph glyph-name="itilde" unicode="&#x129;" horiz-adv-x="196" 
d="M76 387q0 13 13 13h18q13 0 13 -13v-374q0 -6 -4.5 -9.5t-9.5 -3.5h-17q-13 0 -13 13v374zM-44 584q-10 3 -6 14q3 7 8.5 21t16.5 28.5t27.5 25.5t40.5 11q27 0 41.5 -14t24 -31.5t19.5 -31.5t28 -14q14 0 23.5 6.5t16.5 16t11 19.5t6 17q4 13 15 7l11 -4q3 -2 5.5 -4.5
t0.5 -8.5q-1 -3 -5.5 -17t-15 -29t-28 -27.5t-43.5 -12.5t-40.5 14.5t-24.5 31.5t-20 31.5t-28 14.5q-14 0 -24 -7t-16.5 -17t-10.5 -20.5t-6 -17.5q-3 -12 -15 -7z" />
    <glyph glyph-name="idieresis" unicode="&#xef;" horiz-adv-x="196" 
d="M76 387q0 13 13 13h18q13 0 13 -13v-374q0 -6 -4.5 -9.5t-9.5 -3.5h-17q-13 0 -13 13v374zM194 596q-14 0 -23.5 9.5t-9.5 23.5q0 15 9.5 25t23.5 10q15 0 25 -10t10 -25q0 -14 -10 -23.5t-25 -9.5zM3 596q-14 0 -24 9.5t-10 23.5q0 15 10 25t24 10q15 0 24.5 -10
t9.5 -25q0 -14 -9.5 -23.5t-24.5 -9.5z" />
    <glyph glyph-name="imacron" unicode="&#x12b;" horiz-adv-x="196" 
d="M76 387q0 13 13 13h18q13 0 13 -13v-374q0 -6 -4.5 -9.5t-9.5 -3.5h-17q-13 0 -13 13v374zM-36 595q-13 0 -13 12v13q0 13 13 13h272q13 0 13 -13v-13q0 -12 -13 -12h-272v0z" />
    <glyph glyph-name="iogonek" unicode="&#x12f;" horiz-adv-x="197" 
d="M99 596q-14 0 -24 9.5t-10 23.5t10 24.5t24 10.5t24 -10.5t10 -24.5t-10 -23.5t-24 -9.5zM77 387q0 13 13 13h18q13 0 13 -13v-374q0 -13 -13 -13h-11q-8 -6 -19 -15.5t-21.5 -24t-18 -33t-7.5 -40.5q0 -34 22.5 -50.5t51.5 -16.5q23 0 38.5 5.5t23.5 9.5q11 6 13 -8
l1 -10q1 -10 -8 -16q-9 -5 -29 -11t-44 -6q-21 0 -40.5 5.5t-34.5 17.5t-24 30.5t-9 44.5q0 29 11.5 52t26 39t28.5 25.5t19 12.5v376z" />
    <glyph glyph-name="dotlessj" unicode="&#x237;" horiz-adv-x="195" 
d="M76 387q0 13 13 13h17q13 0 13 -13v-524q0 -89 -40 -131t-106 -42q-39 0 -69 15t-43 28q-7 7 -2 14l10 16q7 10 17 0q13 -10 35.5 -21.5t51.5 -11.5q48 0 75.5 31.5t27.5 101.5v524z" />
    <glyph glyph-name="jcircumflex" unicode="&#x135;" horiz-adv-x="195" 
d="M76 387q0 13 13 13h17q13 0 13 -13v-524q0 -89 -40 -131t-106 -42q-39 0 -69 15t-43 28q-7 7 -2 14l10 16q7 10 17 0q13 -10 35.5 -21.5t51.5 -11.5q48 0 75.5 31.5t27.5 101.5v524zM-14 550q-6 -5 -9.5 -3t-5.5 5l-9 11q-5 7 4 14l121 98q5 5 10 5h3q5 0 10 -5l121 -98
q9 -7 4 -14l-9 -11q-2 -3 -5.5 -5t-9.5 3l-113 84l-112 -84v0z" />
    <glyph glyph-name="kcommaaccent" unicode="&#x137;" horiz-adv-x="428" 
d="M76 687q0 13 13 13h17q13 0 13 -13v-448l213 155q7 6 16 6h29q8 0 8.5 -7t-5.5 -11l-215 -158l241 -207q6 -5 3.5 -11t-8.5 -6h-31q-5 0 -9 1.5t-11 6.5l-231 199v-194q0 -13 -13 -13h-19q-11 0 -11 13v674zM174 -141q0 18 11.5 28.5t30.5 10.5q22 0 39 -22t17 -72
q0 -30 -8.5 -54t-20.5 -41.5t-24 -28.5t-19 -15q-12 -7 -17 0l-8 10q-7 8 4 16q2 1 10 7.5t17.5 18.5t18 29t10.5 40q1 22 -5 38q-8 -5 -16 -5q-20 0 -30 12t-10 28z" />
    <glyph glyph-name="kgreenlandic" unicode="&#x138;" horiz-adv-x="432" 
d="M76 387q0 13 13 13h17q13 0 13 -13v-170l223 177q7 6 16 6h29q8 0 8.5 -6.5t-5.5 -11.5l-227 -180l243 -185q6 -5 3.5 -11t-8.5 -6h-31q-5 0 -9 1.5t-11 6.5l-231 177v-172q0 -13 -13 -13h-19q-11 0 -11 13v374z" />
    <glyph glyph-name="lacute" unicode="&#x13a;" horiz-adv-x="196" 
d="M76 687q0 13 13 13h18q13 0 13 -13v-674q0 -13 -13 -13h-20q-11 0 -11 13v674zM20 775q-7 -3 -9.5 -2t-4.5 6l-6 13q-4 8 6 14l165 87q4 2 9 2t8 -5l10 -20q5 -11 -9 -18l-169 -77v0z" />
    <glyph glyph-name="lcaron" unicode="&#x13e;" horiz-adv-x="226" 
d="M76 687q0 13 13 13h18q13 0 13 -13v-674q0 -13 -13 -13h-20q-11 0 -11 13v674zM232 672q0 18 11.5 28.5t30.5 10.5q22 0 39 -22t17 -72q0 -30 -8.5 -54t-20.5 -41.5t-24 -28.5t-19 -15q-12 -7 -17 0l-8 10q-7 8 4 16q2 1 10 7.5t17.5 18.5t18 29t10.5 40q1 22 -5 38
q-8 -5 -16 -5q-20 0 -30 12t-10 28z" />
    <glyph glyph-name="lcommaaccent" unicode="&#x13c;" horiz-adv-x="196" 
d="M76 687q0 13 13 13h18q13 0 13 -13v-674q0 -13 -13 -13h-20q-11 0 -11 13v674zM56 -141q0 18 11.5 28.5t30.5 10.5q22 0 39 -22t17 -72q0 -30 -8.5 -54t-20.5 -41.5t-24 -28.5t-19 -15q-12 -7 -17 0l-8 10q-7 8 4 16q2 1 10 7.5t17.5 18.5t18 29t10.5 40q1 22 -5 38
q-8 -5 -16 -5q-20 0 -30 12t-10 28z" />
    <glyph glyph-name="lslash" unicode="&#x142;" horiz-adv-x="234" 
d="M94 335l-68 -34q-11 -6 -16 4l-3 6q-3 5 -1.5 10t5.5 7l83 42v317q0 13 13 13h17q13 0 13 -13v-293l115 59q5 3 9.5 1.5t6.5 -6.5l3 -6q2 -4 1 -8.5t-6 -7.5l-129 -67v-346q0 -6 -4.5 -9.5t-9.5 -3.5h-16q-13 0 -13 13v322z" />
    <glyph glyph-name="ldot" unicode="&#x140;" horiz-adv-x="300" 
d="M76 687q0 13 13 13h18q13 0 13 -13v-674q0 -13 -13 -13h-20q-11 0 -11 13v674zM251 321q-17 0 -29 11.5t-12 28.5t12 28.5t29 11.5t28.5 -11.5t11.5 -28.5t-11.5 -28.5t-28.5 -11.5z" />
    <glyph glyph-name="nacute" unicode="&#x144;" horiz-adv-x="495" 
d="M76 387q0 13 14 13h10q10 0 12 -10l4 -43q5 5 17.5 15.5t31.5 21t44 18.5t55 8q84 0 122.5 -49.5t38.5 -133.5v-214q0 -13 -13 -13h-18q-13 0 -13 13v214q0 69 -31 104.5t-88 35.5q-31 0 -56.5 -10t-44.5 -22.5t-30 -23.5t-12 -13v-285q0 -13 -13 -13h-19q-11 0 -11 13
v374zM173 558q-7 -3 -9.5 -2t-4.5 6l-6 13q-4 8 6 14l165 87q4 2 9 2t8 -5l10 -20q5 -11 -9 -18l-169 -77v0z" />
    <glyph glyph-name="ncaron" unicode="&#x148;" horiz-adv-x="495" 
d="M76 387q0 13 14 13h10q10 0 12 -10l4 -43q5 5 17.5 15.5t31.5 21t44 18.5t55 8q84 0 122.5 -49.5t38.5 -133.5v-214q0 -13 -13 -13h-18q-13 0 -13 13v214q0 69 -31 104.5t-88 35.5q-31 0 -56.5 -10t-44.5 -22.5t-30 -23.5t-12 -13v-285q0 -13 -13 -13h-19q-11 0 -11 13
v374zM250 545q-5 0 -10 5l-121 98q-9 7 -4 14l9 11q2 3 5.5 5t9.5 -3l113 -84l112 84q6 5 9.5 3t5.5 -5l9 -11q5 -7 -4 -14l-121 -98q-5 -5 -10 -5h-3v0z" />
    <glyph glyph-name="ntilde" unicode="&#xf1;" horiz-adv-x="495" 
d="M76 387q0 13 14 13h10q10 0 12 -10l4 -43q5 5 17.5 15.5t31.5 21t44 18.5t55 8q84 0 122.5 -49.5t38.5 -133.5v-214q0 -13 -13 -13h-18q-13 0 -13 13v214q0 69 -31 104.5t-88 35.5q-31 0 -56.5 -10t-44.5 -22.5t-30 -23.5t-12 -13v-285q0 -13 -13 -13h-19q-11 0 -11 13
v374zM104 584q-10 3 -6 14q3 7 8.5 21t16.5 28.5t27.5 25.5t40.5 11q27 0 41.5 -14t24 -31.5t19.5 -31.5t28 -14q14 0 23.5 6.5t16.5 16t11 19.5t6 17q4 13 15 7l11 -4q3 -2 5.5 -4.5t0.5 -8.5q-1 -3 -5.5 -17t-15 -29t-28 -27.5t-43.5 -12.5t-40.5 14.5t-24.5 31.5
t-20 31.5t-28 14.5q-14 0 -24 -7t-16.5 -17t-10.5 -20.5t-6 -17.5q-3 -12 -15 -7z" />
    <glyph glyph-name="ncommaaccent" unicode="&#x146;" horiz-adv-x="496" 
d="M76 387q0 13 14 13h10q10 0 12 -10l4 -43q5 5 17.5 15.5t31.5 21t44 18.5t55 8q84 0 122.5 -49.5t38.5 -133.5v-214q0 -13 -13 -13h-18q-13 0 -13 13v214q0 69 -31 104.5t-88 35.5q-31 0 -56.5 -10t-44.5 -22.5t-30 -23.5t-12 -13v-285q0 -13 -13 -13h-19q-11 0 -11 13
v374zM206 -141q0 18 11.5 28.5t30.5 10.5q22 0 39 -22t17 -72q0 -30 -8.5 -54t-20.5 -41.5t-24 -28.5t-19 -15q-12 -7 -17 0l-8 10q-7 8 4 16q2 1 10 7.5t17.5 18.5t18 29t10.5 40q1 22 -5 38q-8 -5 -16 -5q-20 0 -30 12t-10 28z" />
    <glyph glyph-name="napostrophe" unicode="&#x149;" horiz-adv-x="495" 
d="M135 672q0 18 11.5 28.5t30.5 10.5q22 0 39 -22t17 -72q0 -30 -8.5 -54t-20.5 -41.5t-24 -28.5t-19 -15q-12 -7 -17 0l-8 10q-7 8 4 16q2 1 10 7.5t17.5 18.5t18 29t10.5 40q1 22 -5 38q-8 -5 -16 -5q-20 0 -30 12t-10 28zM76 387q0 13 14 13h10q10 0 12 -10l4 -43
q5 5 17.5 15.5t31.5 21t44 18.5t55 8q84 0 122.5 -49.5t38.5 -133.5v-214q0 -13 -13 -13h-18q-13 0 -13 13v214q0 69 -31 104.5t-88 35.5q-31 0 -56.5 -10t-44.5 -22.5t-30 -23.5t-12 -13v-285q0 -13 -13 -13h-19q-11 0 -11 13v374z" />
    <glyph glyph-name="ograve" unicode="&#xf2;" horiz-adv-x="494" 
d="M46 201q0 43 15.5 81t42.5 66.5t64 45t79 16.5t78.5 -16.5t64 -45t43 -66.5t15.5 -81q0 -44 -15.5 -82.5t-43 -67t-64 -45t-78.5 -16.5t-79 16.5t-64 45t-42.5 67t-15.5 82.5zM89 201q0 -36 12 -67t33.5 -54t50.5 -36t62 -13t61.5 13t50 36t33.5 54t12 67q0 34 -12 64.5
t-33.5 53.5t-50 36t-61.5 13t-62 -13t-50.5 -36t-33.5 -53.5t-12 -64.5zM152 638q-9 5 -4 15l10 20q3 5 8.5 5t8.5 -2l164 -90q9 -5 6 -14l-5 -10q-4 -8 -16 -3z" />
    <glyph glyph-name="oacute" unicode="&#xf3;" horiz-adv-x="494" 
d="M46 201q0 43 15.5 81t42.5 66.5t64 45t79 16.5t78.5 -16.5t64 -45t43 -66.5t15.5 -81q0 -44 -15.5 -82.5t-43 -67t-64 -45t-78.5 -16.5t-79 16.5t-64 45t-42.5 67t-15.5 82.5zM89 201q0 -36 12 -67t33.5 -54t50.5 -36t62 -13t61.5 13t50 36t33.5 54t12 67q0 34 -12 64.5
t-33.5 53.5t-50 36t-61.5 13t-62 -13t-50.5 -36t-33.5 -53.5t-12 -64.5zM168 558q-7 -3 -9.5 -2t-4.5 6l-6 13q-4 8 6 14l165 87q4 2 9 2t8 -5l10 -20q5 -11 -9 -18l-169 -77v0z" />
    <glyph glyph-name="ocircumflex" unicode="&#xf4;" horiz-adv-x="494" 
d="M46 201q0 43 15.5 81t42.5 66.5t64 45t79 16.5t78.5 -16.5t64 -45t43 -66.5t15.5 -81q0 -44 -15.5 -82.5t-43 -67t-64 -45t-78.5 -16.5t-79 16.5t-64 45t-42.5 67t-15.5 82.5zM89 201q0 -36 12 -67t33.5 -54t50.5 -36t62 -13t61.5 13t50 36t33.5 54t12 67q0 34 -12 64.5
t-33.5 53.5t-50 36t-61.5 13t-62 -13t-50.5 -36t-33.5 -53.5t-12 -64.5zM133 550q-6 -5 -9.5 -3t-5.5 5l-9 11q-5 7 4 14l121 98q5 5 10 5h3q5 0 10 -5l121 -98q9 -7 4 -14l-9 -11q-2 -3 -5.5 -5t-9.5 3l-113 84l-112 -84v0z" />
    <glyph glyph-name="otilde" unicode="&#xf5;" horiz-adv-x="494" 
d="M46 201q0 43 15.5 81t42.5 66.5t64 45t79 16.5t78.5 -16.5t64 -45t43 -66.5t15.5 -81q0 -44 -15.5 -82.5t-43 -67t-64 -45t-78.5 -16.5t-79 16.5t-64 45t-42.5 67t-15.5 82.5zM89 201q0 -36 12 -67t33.5 -54t50.5 -36t62 -13t61.5 13t50 36t33.5 54t12 67q0 34 -12 64.5
t-33.5 53.5t-50 36t-61.5 13t-62 -13t-50.5 -36t-33.5 -53.5t-12 -64.5zM105 584q-10 3 -6 14q3 7 8.5 21t16.5 28.5t27.5 25.5t40.5 11q27 0 41.5 -14t24 -31.5t19.5 -31.5t28 -14q14 0 23.5 6.5t16.5 16t11 19.5t6 17q4 13 15 7l11 -4q3 -2 5.5 -4.5t0.5 -8.5
q-1 -3 -5.5 -17t-15 -29t-28 -27.5t-43.5 -12.5t-40.5 14.5t-24.5 31.5t-20 31.5t-28 14.5q-14 0 -24 -7t-16.5 -17t-10.5 -20.5t-6 -17.5q-3 -12 -15 -7z" />
    <glyph glyph-name="odieresis" unicode="&#xf6;" horiz-adv-x="494" 
d="M46 201q0 43 15.5 81t42.5 66.5t64 45t79 16.5t78.5 -16.5t64 -45t43 -66.5t15.5 -81q0 -44 -15.5 -82.5t-43 -67t-64 -45t-78.5 -16.5t-79 16.5t-64 45t-42.5 67t-15.5 82.5zM89 201q0 -36 12 -67t33.5 -54t50.5 -36t62 -13t61.5 13t50 36t33.5 54t12 67q0 34 -12 64.5
t-33.5 53.5t-50 36t-61.5 13t-62 -13t-50.5 -36t-33.5 -53.5t-12 -64.5zM341 596q-14 0 -23.5 9.5t-9.5 23.5q0 15 9.5 25t23.5 10q15 0 25 -10t10 -25q0 -14 -10 -23.5t-25 -9.5zM150 596q-14 0 -24 9.5t-10 23.5q0 15 10 25t24 10q15 0 24.5 -10t9.5 -25q0 -14 -9.5 -23.5
t-24.5 -9.5z" />
    <glyph glyph-name="omacron" unicode="&#x14d;" horiz-adv-x="494" 
d="M46 201q0 43 15.5 81t42.5 66.5t64 45t79 16.5t78.5 -16.5t64 -45t43 -66.5t15.5 -81q0 -44 -15.5 -82.5t-43 -67t-64 -45t-78.5 -16.5t-79 16.5t-64 45t-42.5 67t-15.5 82.5zM89 201q0 -36 12 -67t33.5 -54t50.5 -36t62 -13t61.5 13t50 36t33.5 54t12 67q0 34 -12 64.5
t-33.5 53.5t-50 36t-61.5 13t-62 -13t-50.5 -36t-33.5 -53.5t-12 -64.5zM111 595q-13 0 -13 12v13q0 13 13 13h272q13 0 13 -13v-13q0 -12 -13 -12h-272v0z" />
    <glyph glyph-name="obreve" unicode="&#x14f;" horiz-adv-x="494" 
d="M46 201q0 43 15.5 81t42.5 66.5t64 45t79 16.5t78.5 -16.5t64 -45t43 -66.5t15.5 -81q0 -44 -15.5 -82.5t-43 -67t-64 -45t-78.5 -16.5t-79 16.5t-64 45t-42.5 67t-15.5 82.5zM89 201q0 -36 12 -67t33.5 -54t50.5 -36t62 -13t61.5 13t50 36t33.5 54t12 67q0 34 -12 64.5
t-33.5 53.5t-50 36t-61.5 13t-62 -13t-50.5 -36t-33.5 -53.5t-12 -64.5zM247 538q-52 0 -87.5 32t-43.5 78q-2 14 10 14h13q8 0 12 -11q8 -34 33.5 -56.5t62.5 -22.5q35 0 61 22.5t34 56.5q3 11 12 11h14q12 0 10 -14q-8 -47 -44 -78.5t-87 -31.5z" />
    <glyph glyph-name="ohungarumlaut" unicode="&#x151;" horiz-adv-x="494" 
d="M46 201q0 43 15.5 81t42.5 66.5t64 45t79 16.5t78.5 -16.5t64 -45t43 -66.5t15.5 -81q0 -44 -15.5 -82.5t-43 -67t-64 -45t-78.5 -16.5t-79 16.5t-64 45t-42.5 67t-15.5 82.5zM89 201q0 -36 12 -67t33.5 -54t50.5 -36t62 -13t61.5 13t50 36t33.5 54t12 67q0 34 -12 64.5
t-33.5 53.5t-50 36t-61.5 13t-62 -13t-50.5 -36t-33.5 -53.5t-12 -64.5zM327 518q-12 0 -7 12l79 159q5 11 14 11h22q8 0 11 -5t-1 -12l-93 -157q-4 -8 -13 -8h-12zM161 518q-12 0 -7 12l79 159q5 11 14 11h22q8 0 11 -5t-1 -12l-93 -157q-4 -8 -13 -8h-12z" />
    <glyph glyph-name="oslash" unicode="&#xf8;" horiz-adv-x="493" 
d="M69 36q-10 9 -1 18l18 18q-19 27 -29.5 59t-10.5 69q0 43 15.5 81t42.5 66.5t64 45.5t79 17q43 0 77.5 -16t60.5 -42l23 22q9 9 18 0l4 -4q11 -9 0 -18l-24 -24q20 -27 30.5 -60t10.5 -68q0 -44 -15.5 -82t-42.5 -66.5t-63.5 -45t-78.5 -16.5t-77.5 15.5t-62.5 42.5
l-17 -17q-4 -4 -9 -3.5t-9 4.5zM354 322q-21 22 -48 34t-59 12q-33 0 -62 -13.5t-50 -36t-33 -53.5t-12 -65q0 -55 28 -98zM138 78q21 -22 49 -34.5t60 -12.5q33 0 61.5 13t50 36t33.5 53.5t12 66.5q0 54 -30 98z" />
    <glyph glyph-name="oslashacute" unicode="&#x1ff;" horiz-adv-x="493" 
d="M69 36q-10 9 -1 18l18 18q-19 27 -29.5 59t-10.5 69q0 43 15.5 81t42.5 66.5t64 45.5t79 17q43 0 77.5 -16t60.5 -42l23 22q9 9 18 0l4 -4q11 -9 0 -18l-24 -24q20 -27 30.5 -60t10.5 -68q0 -44 -15.5 -82t-42.5 -66.5t-63.5 -45t-78.5 -16.5t-77.5 15.5t-62.5 42.5
l-17 -17q-4 -4 -9 -3.5t-9 4.5zM354 322q-21 22 -48 34t-59 12q-33 0 -62 -13.5t-50 -36t-33 -53.5t-12 -65q0 -55 28 -98zM138 78q21 -22 49 -34.5t60 -12.5q33 0 61.5 13t50 36t33.5 53.5t12 66.5q0 54 -30 98zM169 558q-7 -3 -9.5 -2t-4.5 6l-6 13q-4 8 6 14l165 87
q4 2 9 2t8 -5l10 -20q5 -11 -9 -18l-169 -77v0z" />
    <glyph glyph-name="oe" unicode="&#x153;" horiz-adv-x="788" 
d="M46 201q0 43 15.5 81t42.5 66.5t63.5 45t78.5 16.5q49 0 92 -21t71 -59q26 38 64 59t91 21q39 0 72 -13.5t57.5 -38.5t38.5 -59t14 -75q0 -12 -2 -25.5t-13 -13.5h-303v-66q7 -17 21 -32.5t32.5 -28.5t40.5 -20.5t45 -7.5q40 0 70 12.5t48 24.5q7 5 10.5 5t7.5 -5l10 -14
q5 -7 -4 -16q-8 -8 -22.5 -16t-34 -15t-42.5 -11.5t-46 -4.5q-57 0 -94.5 23.5t-64.5 59.5q-28 -38 -68.5 -60.5t-90.5 -22.5q-42 0 -78.5 16.5t-63.5 45t-42.5 67t-15.5 82.5zM702 221q0 29 -9 56t-26.5 47.5t-43 32.5t-59.5 12q-42 0 -80.5 -21.5t-55.5 -59.5v-67h274z
M89 201q0 -36 12 -67t33.5 -54t50 -36t61.5 -13q25 0 47.5 8.5t41.5 21t32.5 28t19.5 30.5v170q-8 12 -21.5 26t-32 26t-40.5 19.5t-47 7.5q-33 0 -61.5 -13t-50 -36t-33.5 -53.5t-12 -64.5z" />
    <glyph glyph-name="racute" unicode="&#x155;" horiz-adv-x="324" 
d="M76 387q0 13 13 13h12q10 0 12 -11l4 -41q4 5 13.5 15.5t25 21t37 18t49.5 7.5q24 0 40 -5t22 -7q16 -5 11 -18l-8 -20q-4 -10 -16 -5q-4 2 -18 7t-34 5q-29 0 -51 -10t-36.5 -22.5t-22.5 -23.5t-9 -13v-285q0 -13 -13 -13h-20q-11 0 -11 13v374zM100 558q-7 -3 -9.5 -2
t-4.5 6l-6 13q-4 8 6 14l165 87q4 2 9 2t8 -5l10 -20q5 -11 -9 -18l-169 -77v0z" />
    <glyph glyph-name="rcaron" unicode="&#x159;" horiz-adv-x="324" 
d="M76 387q0 13 13 13h12q10 0 12 -11l4 -41q4 5 13.5 15.5t25 21t37 18t49.5 7.5q24 0 40 -5t22 -7q16 -5 11 -18l-8 -20q-4 -10 -16 -5q-4 2 -18 7t-34 5q-29 0 -51 -10t-36.5 -22.5t-22.5 -23.5t-9 -13v-285q0 -13 -13 -13h-20q-11 0 -11 13v374zM178 545q-5 0 -10 5
l-121 98q-9 7 -4 14l9 11q2 3 5.5 5t9.5 -3l113 -84l112 84q6 5 9.5 3t5.5 -5l9 -11q5 -7 -4 -14l-121 -98q-5 -5 -10 -5h-3v0z" />
    <glyph glyph-name="rcommaaccent" unicode="&#x157;" horiz-adv-x="325" 
d="M76 387q0 13 13 13h12q10 0 12 -11l4 -41q4 5 13.5 15.5t25 21t37 18t49.5 7.5q24 0 40 -5t22 -7q16 -5 11 -18l-8 -20q-4 -10 -16 -5q-4 2 -18 7t-34 5q-29 0 -51 -10t-36.5 -22.5t-22.5 -23.5t-9 -13v-285q0 -13 -13 -13h-20q-11 0 -11 13v374zM52 -141q0 18 11.5 28.5
t30.5 10.5q22 0 39 -22t17 -72q0 -30 -8.5 -54t-20.5 -41.5t-24 -28.5t-19 -15q-12 -7 -17 0l-8 10q-7 8 4 16q2 1 10 7.5t17.5 18.5t18 29t10.5 40q1 22 -5 38q-8 -5 -16 -5q-20 0 -30 12t-10 28z" />
    <glyph glyph-name="sacute" unicode="&#x15b;" horiz-adv-x="370" 
d="M57 35q-3 2 -4.5 6t0.5 8l10 16q2 4 7.5 5t10.5 -4q4 -3 13 -9.5t23 -13t32 -11.5t39 -5q43 0 69.5 21t26.5 50q0 17 -8 30t-23 23t-35.5 19t-45.5 18q-27 9 -49.5 20t-39 25t-25.5 32t-9 41q0 16 7.5 34.5t23.5 34t40.5 25.5t59.5 10q40 0 69 -11t44 -21q11 -7 4 -19
l-6 -11q-7 -12 -19 -5q-3 2 -12 7t-21.5 9.5t-27.5 8t-31 3.5q-24 0 -40 -6t-26.5 -15.5t-15 -21t-4.5 -21.5q0 -30 25 -47t70 -33q28 -11 53.5 -21.5t45 -24.5t31 -33.5t11.5 -46.5q0 -23 -11 -43t-30 -35t-45 -24t-56 -9q-51 0 -82.5 16t-48.5 29zM122 559q-7 -3 -9.5 -2
t-4.5 6l-6 13q-4 8 6 14l165 87q4 2 9 2t8 -5l10 -20q5 -11 -9 -18l-169 -77v0z" />
    <glyph glyph-name="scircumflex" unicode="&#x15d;" horiz-adv-x="370" 
d="M57 35q-3 2 -4.5 6t0.5 8l10 16q2 4 7.5 5t10.5 -4q4 -3 13 -9.5t23 -13t32 -11.5t39 -5q43 0 69.5 21t26.5 50q0 17 -8 30t-23 23t-35.5 19t-45.5 18q-27 9 -49.5 20t-39 25t-25.5 32t-9 41q0 16 7.5 34.5t23.5 34t40.5 25.5t59.5 10q40 0 69 -11t44 -21q11 -7 4 -19
l-6 -11q-7 -12 -19 -5q-3 2 -12 7t-21.5 9.5t-27.5 8t-31 3.5q-24 0 -40 -6t-26.5 -15.5t-15 -21t-4.5 -21.5q0 -30 25 -47t70 -33q28 -11 53.5 -21.5t45 -24.5t31 -33.5t11.5 -46.5q0 -23 -11 -43t-30 -35t-45 -24t-56 -9q-51 0 -82.5 16t-48.5 29zM71 551q-6 -5 -9.5 -3
t-5.5 5l-9 11q-5 7 4 14l121 98q5 5 10 5h3q5 0 10 -5l121 -98q9 -7 4 -14l-9 -11q-2 -3 -5.5 -5t-9.5 3l-113 84l-112 -84v0z" />
    <glyph glyph-name="scaron" unicode="&#x161;" horiz-adv-x="370" 
d="M57 35q-3 2 -4.5 6t0.5 8l10 16q2 4 7.5 5t10.5 -4q4 -3 13 -9.5t23 -13t32 -11.5t39 -5q43 0 69.5 21t26.5 50q0 17 -8 30t-23 23t-35.5 19t-45.5 18q-27 9 -49.5 20t-39 25t-25.5 32t-9 41q0 16 7.5 34.5t23.5 34t40.5 25.5t59.5 10q40 0 69 -11t44 -21q11 -7 4 -19
l-6 -11q-7 -12 -19 -5q-3 2 -12 7t-21.5 9.5t-27.5 8t-31 3.5q-24 0 -40 -6t-26.5 -15.5t-15 -21t-4.5 -21.5q0 -30 25 -47t70 -33q28 -11 53.5 -21.5t45 -24.5t31 -33.5t11.5 -46.5q0 -23 -11 -43t-30 -35t-45 -24t-56 -9q-51 0 -82.5 16t-48.5 29zM185 546q-5 0 -10 5
l-121 98q-9 7 -4 14l9 11q2 3 5.5 5t9.5 -3l113 -84l112 84q6 5 9.5 3t5.5 -5l9 -11q5 -7 -4 -14l-121 -98q-5 -5 -10 -5h-3v0z" />
    <glyph glyph-name="scedilla" unicode="&#x15f;" horiz-adv-x="371" 
d="M58 35q-3 2 -4.5 6t0.5 8l10 16q2 4 7.5 5t10.5 -4q4 -3 13 -9.5t23 -13t32 -11.5t39 -5q43 0 69.5 21t26.5 50q0 17 -8 30t-23 23t-35.5 19t-45.5 18q-27 9 -49.5 20t-39 25t-25.5 32t-9 41q0 16 7.5 34.5t23.5 34t40.5 25.5t59.5 10q40 0 69 -11t44 -21q11 -7 4 -19
l-6 -11q-7 -12 -19 -5q-3 2 -12 7t-21.5 9.5t-27.5 8t-31 3.5q-24 0 -40 -6t-26.5 -15.5t-15 -21t-4.5 -21.5q0 -30 25 -47t70 -33q28 -11 53.5 -21.5t45 -24.5t31 -33.5t11.5 -46.5q0 -23 -11 -43t-30 -35t-45 -24t-56 -9h-1v-44q45 -5 76 -28.5t31 -68.5q0 -20 -7.5 -37.5
t-20.5 -31t-31 -21t-39 -7.5q-29 0 -50 11.5t-28 22.5t1 18l10 8q7 6 16 -3q5 -5 17 -13t34 -8q27 0 43 17.5t16 42.5q0 18 -8.5 30t-21.5 20t-29.5 12t-32.5 6q-12 3 -12 13v64q-35 5 -58 18t-36 24z" />
    <glyph glyph-name="scommaaccent" unicode="&#x219;" horiz-adv-x="370" 
d="M57 35q-3 2 -4.5 6t0.5 8l10 16q2 4 7.5 5t10.5 -4q4 -3 13 -9.5t23 -13t32 -11.5t39 -5q43 0 69.5 21t26.5 50q0 17 -8 30t-23 23t-35.5 19t-45.5 18q-27 9 -49.5 20t-39 25t-25.5 32t-9 41q0 16 7.5 34.5t23.5 34t40.5 25.5t59.5 10q40 0 69 -11t44 -21q11 -7 4 -19
l-6 -11q-7 -12 -19 -5q-3 2 -12 7t-21.5 9.5t-27.5 8t-31 3.5q-24 0 -40 -6t-26.5 -15.5t-15 -21t-4.5 -21.5q0 -30 25 -47t70 -33q28 -11 53.5 -21.5t45 -24.5t31 -33.5t11.5 -46.5q0 -23 -11 -43t-30 -35t-45 -24t-56 -9q-51 0 -82.5 16t-48.5 29zM146 -140
q0 18 11.5 28.5t30.5 10.5q22 0 39 -22t17 -72q0 -30 -8.5 -54t-20.5 -41.5t-24 -28.5t-19 -15q-12 -7 -17 0l-8 10q-7 8 4 16q2 1 10 7.5t17.5 18.5t18 29t10.5 40q1 22 -5 38q-8 -5 -16 -5q-20 0 -30 12t-10 28z" />
    <glyph glyph-name="germandbls" unicode="&#xdf;" horiz-adv-x="554" 
d="M76 410q0 150 54.5 225t158.5 75q33 0 63.5 -8.5t54.5 -27t38.5 -48t14.5 -70.5q0 -35 -14 -65t-30.5 -55.5t-30 -46.5t-13.5 -37q0 -15 22.5 -33t49.5 -43.5t49.5 -59.5t22.5 -80q0 -39 -14 -66.5t-37.5 -45t-53.5 -26t-62 -8.5q-58 0 -84 13t-23 21l6 19q2 5 5.5 8
t9.5 0q3 -2 11.5 -5.5t20 -7.5t25.5 -6.5t29 -2.5q25 0 47 6.5t38.5 20t26.5 33.5t10 47q0 38 -23 67.5t-50.5 54t-50.5 47t-23 45.5q0 20 14 44.5t31.5 50.5t31.5 54t14 55q0 30 -11 52t-28.5 36t-40.5 21t-47 7q-83 0 -125.5 -64.5t-42.5 -195.5v-397q0 -13 -13 -13h-20
q-11 0 -11 13v397z" />
    <glyph glyph-name="tcaron" unicode="&#x165;" horiz-adv-x="329" 
d="M93 361h-47q-8 0 -10 3.5t-2 9.5v16q0 10 12 10h47v109q0 13 13 13l17 1q13 0 13 -13v-110h139q13 0 13 -13v-13q0 -13 -13 -13h-139v-255q0 -35 8.5 -54t43.5 -19q13 0 27 3t26.5 7.5t22.5 9t15 7.5q7 4 10.5 2t5.5 -6l7 -12q6 -11 -3 -17q-11 -9 -42 -23t-74 -14
q-31 0 -49 8.5t-27 24t-11.5 36t-2.5 44.5v258zM352 672q0 18 11.5 28.5t30.5 10.5q22 0 39 -22t17 -72q0 -30 -8.5 -54t-20.5 -41.5t-24 -28.5t-19 -15q-12 -7 -17 0l-8 10q-7 8 4 16q2 1 10 7.5t17.5 18.5t18 29t10.5 40q1 22 -5 38q-8 -5 -16 -5q-20 0 -30 12t-10 28z
" />
    <glyph glyph-name="tcommaaccent" unicode="&#x163;" horiz-adv-x="330" 
d="M93 361h-47q-8 0 -10 3.5t-2 9.5v16q0 10 12 10h47v109q0 13 13 13l17 1q13 0 13 -13v-110h139q13 0 13 -13v-13q0 -13 -13 -13h-139v-255q0 -35 8.5 -54t43.5 -19q13 0 27 3t26.5 7.5t22.5 9t15 7.5q7 4 10.5 2t5.5 -6l7 -12q6 -11 -3 -17q-11 -9 -42 -23t-74 -14
q-31 0 -49 8.5t-27 24t-11.5 36t-2.5 44.5v258zM136 -141q0 18 11.5 28.5t30.5 10.5q22 0 39 -22t17 -72q0 -30 -8.5 -54t-20.5 -41.5t-24 -28.5t-19 -15q-12 -7 -17 0l-8 10q-7 8 4 16q2 1 10 7.5t17.5 18.5t18 29t10.5 40q1 22 -5 38q-8 -5 -16 -5q-20 0 -30 12t-10 28z
" />
    <glyph glyph-name="uni021B" unicode="&#x21b;" horiz-adv-x="330" 
d="M93 361h-47q-8 0 -10 3.5t-2 9.5v16q0 10 12 10h47v109q0 13 13 13l17 1q13 0 13 -13v-110h139q13 0 13 -13v-13q0 -13 -13 -13h-139v-255q0 -35 8.5 -54t43.5 -19q13 0 27 3t26.5 7.5t22.5 9t15 7.5q7 4 10.5 2t5.5 -6l7 -12q6 -11 -3 -17q-11 -9 -42 -23t-74 -14
q-31 0 -49 8.5t-27 24t-11.5 36t-2.5 44.5v258zM136 -141q0 18 11.5 28.5t30.5 10.5q22 0 39 -22t17 -72q0 -30 -8.5 -54t-20.5 -41.5t-24 -28.5t-19 -15q-12 -7 -17 0l-8 10q-7 8 4 16q2 1 10 7.5t17.5 18.5t18 29t10.5 40q1 22 -5 38q-8 -5 -16 -5q-20 0 -30 12t-10 28z
" />
    <glyph glyph-name="tbar" unicode="&#x167;" horiz-adv-x="329" 
d="M93 186h-36q-6 0 -9.5 4.5t-3.5 9.5v4q0 13 13 13h36v144h-47q-8 0 -10 3.5t-2 9.5v16q0 10 12 10h47v109q0 13 13 13l17 1q13 0 13 -13v-110h139q13 0 13 -13v-13q0 -13 -13 -13h-139v-144h118q13 0 13 -13v-6q0 -12 -13 -12h-118v-80q0 -35 8.5 -54t43.5 -19q13 0 27 3
t26.5 7.5t22.5 9t15 7.5q7 4 10.5 2t5.5 -6l7 -12q6 -11 -3 -17q-11 -9 -42 -23t-74 -14q-31 0 -49 8.5t-27 24t-11.5 36t-2.5 44.5v83z" />
    <glyph glyph-name="thorn" unicode="&#xfe;" 
d="M119 -287q0 -13 -13 -13h-17q-13 0 -13 13v974q0 6 4.5 9.5t9.5 3.5h16q13 0 13 -13v-324q4 4 14.5 11.5t26.5 15.5t38 14t49 6q42 0 77 -16.5t60.5 -45.5t40 -67.5t14.5 -81.5q0 -45 -15 -83t-41.5 -66t-63.5 -44t-81 -16q-25 0 -45 5t-35 12t-25 14t-14 11v-319z
M120 80q1 -2 9 -9.5t22.5 -16t35 -15.5t46.5 -7q36 0 66 12.5t51.5 35t33.5 53t12 66.5q0 35 -11 66t-31 54t-48 36.5t-62 13.5q-29 0 -51.5 -8t-38.5 -18.5t-24.5 -19.5t-9.5 -11v-232z" />
    <glyph glyph-name="ugrave" unicode="&#xf9;" 
d="M70 387q0 13 13 13h18q13 0 13 -13v-215q0 -70 31 -105t88 -35q31 0 55 10t41 23t26 24t10 13v285q0 13 13 13h18q13 0 13 -13v-374q0 -13 -13 -13h-12q-6 0 -8.5 3.5t-3.5 8.5l-4 39q-4 -5 -15 -15.5t-28.5 -20.5t-41 -17.5t-53.5 -7.5q-84 0 -122 48.5t-38 133.5v215z
M154 638q-9 5 -4 15l10 20q3 5 8.5 5t8.5 -2l164 -90q9 -5 6 -14l-5 -10q-4 -8 -16 -3z" />
    <glyph glyph-name="uacute" unicode="&#xfa;" 
d="M70 387q0 13 13 13h18q13 0 13 -13v-215q0 -70 31 -105t88 -35q31 0 55 10t41 23t26 24t10 13v285q0 13 13 13h18q13 0 13 -13v-374q0 -13 -13 -13h-12q-6 0 -8.5 3.5t-3.5 8.5l-4 39q-4 -5 -15 -15.5t-28.5 -20.5t-41 -17.5t-53.5 -7.5q-84 0 -122 48.5t-38 133.5v215z
M170 558q-7 -3 -9.5 -2t-4.5 6l-6 13q-4 8 6 14l165 87q4 2 9 2t8 -5l10 -20q5 -11 -9 -18l-169 -77v0z" />
    <glyph glyph-name="ucircumflex" unicode="&#xfb;" 
d="M70 387q0 13 13 13h18q13 0 13 -13v-215q0 -70 31 -105t88 -35q31 0 55 10t41 23t26 24t10 13v285q0 13 13 13h18q13 0 13 -13v-374q0 -13 -13 -13h-12q-6 0 -8.5 3.5t-3.5 8.5l-4 39q-4 -5 -15 -15.5t-28.5 -20.5t-41 -17.5t-53.5 -7.5q-84 0 -122 48.5t-38 133.5v215z
M130 550q-6 -5 -9.5 -3t-5.5 5l-9 11q-5 7 4 14l121 98q5 5 10 5h3q5 0 10 -5l121 -98q9 -7 4 -14l-9 -11q-2 -3 -5.5 -5t-9.5 3l-113 84l-112 -84v0z" />
    <glyph glyph-name="utilde" unicode="&#x169;" 
d="M70 387q0 13 13 13h18q13 0 13 -13v-215q0 -70 31 -105t88 -35q31 0 55 10t41 23t26 24t10 13v285q0 13 13 13h18q13 0 13 -13v-374q0 -13 -13 -13h-12q-6 0 -8.5 3.5t-3.5 8.5l-4 39q-4 -5 -15 -15.5t-28.5 -20.5t-41 -17.5t-53.5 -7.5q-84 0 -122 48.5t-38 133.5v215z
M105 584q-10 3 -6 14q3 7 8.5 21t16.5 28.5t27.5 25.5t40.5 11q27 0 41.5 -14t24 -31.5t19.5 -31.5t28 -14q14 0 23.5 6.5t16.5 16t11 19.5t6 17q4 13 15 7l11 -4q3 -2 5.5 -4.5t0.5 -8.5q-1 -3 -5.5 -17t-15 -29t-28 -27.5t-43.5 -12.5t-40.5 14.5t-24.5 31.5t-20 31.5
t-28 14.5q-14 0 -24 -7t-16.5 -17t-10.5 -20.5t-6 -17.5q-3 -12 -15 -7z" />
    <glyph glyph-name="udieresis" unicode="&#xfc;" 
d="M70 387q0 13 13 13h18q13 0 13 -13v-215q0 -70 31 -105t88 -35q31 0 55 10t41 23t26 24t10 13v285q0 13 13 13h18q13 0 13 -13v-374q0 -13 -13 -13h-12q-6 0 -8.5 3.5t-3.5 8.5l-4 39q-4 -5 -15 -15.5t-28.5 -20.5t-41 -17.5t-53.5 -7.5q-84 0 -122 48.5t-38 133.5v215z
M342 596q-14 0 -23.5 9.5t-9.5 23.5q0 15 9.5 25t23.5 10q15 0 25 -10t10 -25q0 -14 -10 -23.5t-25 -9.5zM151 596q-14 0 -24 9.5t-10 23.5q0 15 10 25t24 10q15 0 24.5 -10t9.5 -25q0 -14 -9.5 -23.5t-24.5 -9.5z" />
    <glyph glyph-name="umacron" unicode="&#x16b;" 
d="M70 387q0 13 13 13h18q13 0 13 -13v-215q0 -70 31 -105t88 -35q31 0 55 10t41 23t26 24t10 13v285q0 13 13 13h18q13 0 13 -13v-374q0 -13 -13 -13h-12q-6 0 -8.5 3.5t-3.5 8.5l-4 39q-4 -5 -15 -15.5t-28.5 -20.5t-41 -17.5t-53.5 -7.5q-84 0 -122 48.5t-38 133.5v215z
M106 595q-13 0 -13 12v13q0 13 13 13h272q13 0 13 -13v-13q0 -12 -13 -12h-272v0z" />
    <glyph glyph-name="ubreve" unicode="&#x16d;" 
d="M70 387q0 13 13 13h18q13 0 13 -13v-215q0 -70 31 -105t88 -35q31 0 55 10t41 23t26 24t10 13v285q0 13 13 13h18q13 0 13 -13v-374q0 -13 -13 -13h-12q-6 0 -8.5 3.5t-3.5 8.5l-4 39q-4 -5 -15 -15.5t-28.5 -20.5t-41 -17.5t-53.5 -7.5q-84 0 -122 48.5t-38 133.5v215z
M246 538q-52 0 -87.5 32t-43.5 78q-2 14 10 14h13q8 0 12 -11q8 -34 33.5 -56.5t62.5 -22.5q35 0 61 22.5t34 56.5q3 11 12 11h14q12 0 10 -14q-8 -47 -44 -78.5t-87 -31.5z" />
    <glyph glyph-name="uring" unicode="&#x16f;" 
d="M70 387q0 13 13 13h18q13 0 13 -13v-215q0 -70 31 -105t88 -35q31 0 55 10t41 23t26 24t10 13v285q0 13 13 13h18q13 0 13 -13v-374q0 -13 -13 -13h-12q-6 0 -8.5 3.5t-3.5 8.5l-4 39q-4 -5 -15 -15.5t-28.5 -20.5t-41 -17.5t-53.5 -7.5q-84 0 -122 48.5t-38 133.5v215z
M242 497q-23 0 -42.5 8t-33.5 22.5t-22.5 33.5t-8.5 42q0 22 8.5 42t22.5 34t33.5 22.5t42.5 8.5q22 0 41.5 -8.5t33.5 -22.5t22.5 -34t8.5 -42q0 -23 -8.5 -42t-22.5 -33.5t-33.5 -22.5t-41.5 -8zM242 529q29 0 51 22t22 52t-22 52t-51 22q-30 0 -52.5 -22t-22.5 -52
t22.5 -52t52.5 -22z" />
    <glyph glyph-name="uhungarumlaut" unicode="&#x171;" 
d="M70 387q0 13 13 13h18q13 0 13 -13v-215q0 -70 31 -105t88 -35q31 0 55 10t41 23t26 24t10 13v285q0 13 13 13h18q13 0 13 -13v-374q0 -13 -13 -13h-12q-6 0 -8.5 3.5t-3.5 8.5l-4 39q-4 -5 -15 -15.5t-28.5 -20.5t-41 -17.5t-53.5 -7.5q-84 0 -122 48.5t-38 133.5v215z
M327 518q-12 0 -7 12l79 159q5 11 14 11h22q8 0 11 -5t-1 -12l-93 -157q-4 -8 -13 -8h-12zM161 518q-12 0 -7 12l79 159q5 11 14 11h22q8 0 11 -5t-1 -12l-93 -157q-4 -8 -13 -8h-12z" />
    <glyph glyph-name="uogonek" unicode="&#x173;" horiz-adv-x="485" 
d="M70 387q0 13 13 13h18q13 0 13 -13v-215q0 -70 31 -105t88 -35q31 0 55 10t41 23t26 24t10 13v285q0 13 13 13h18q13 0 13 -13v-374q0 -13 -13 -13h-5q-8 -6 -19 -15.5t-21.5 -24t-18 -33t-7.5 -40.5q0 -34 22.5 -50.5t51.5 -16.5q23 0 38.5 5.5t23.5 9.5q11 6 13 -8
l1 -10q1 -10 -8 -16q-9 -5 -29 -11t-44 -6q-21 0 -40.5 5.5t-34.5 17.5t-24 30.5t-9 44.5q0 30 12 53.5t27 40t29 25.5t18 11l-4 39q-4 -5 -15 -15.5t-28.5 -20.5t-41 -17.5t-53.5 -7.5q-84 0 -122 48.5t-38 133.5v215z" />
    <glyph glyph-name="wacute" unicode="&#x1e83;" horiz-adv-x="606" 
d="M34 384q-5 16 6 16h22q10 0 13 -9l94 -315h1l119 325q3 9 12 9h4q9 0 12 -9l119 -325h1l94 315q3 9 13 9h22q11 0 6 -16l-120 -385q-3 -9 -12 -9h-4q-9 0 -12 9l-121 337h-1l-120 -337q-3 -9 -12 -9h-4q-9 0 -12 9zM224 558q-7 -3 -9.5 -2t-4.5 6l-6 13q-4 8 6 14l165 87
q4 2 9 2t8 -5l10 -20q5 -11 -9 -18l-169 -77v0z" />
    <glyph glyph-name="wcircumflex" unicode="&#x175;" horiz-adv-x="606" 
d="M34 384q-5 16 6 16h22q10 0 13 -9l94 -315h1l119 325q3 9 12 9h4q9 0 12 -9l119 -325h1l94 315q3 9 13 9h22q11 0 6 -16l-120 -385q-3 -9 -12 -9h-4q-9 0 -12 9l-121 337h-1l-120 -337q-3 -9 -12 -9h-4q-9 0 -12 9zM191 550q-6 -5 -9.5 -3t-5.5 5l-9 11q-5 7 4 14l121 98
q5 5 10 5h3q5 0 10 -5l121 -98q9 -7 4 -14l-9 -11q-2 -3 -5.5 -5t-9.5 3l-113 84l-112 -84v0z" />
    <glyph glyph-name="wdieresis" unicode="&#x1e85;" horiz-adv-x="606" 
d="M34 384q-5 16 6 16h22q10 0 13 -9l94 -315h1l119 325q3 9 12 9h4q9 0 12 -9l119 -325h1l94 315q3 9 13 9h22q11 0 6 -16l-120 -385q-3 -9 -12 -9h-4q-9 0 -12 9l-121 337h-1l-120 -337q-3 -9 -12 -9h-4q-9 0 -12 9zM398 596q-14 0 -23.5 9.5t-9.5 23.5q0 15 9.5 25
t23.5 10q15 0 25 -10t10 -25q0 -14 -10 -23.5t-25 -9.5zM207 596q-14 0 -24 9.5t-10 23.5q0 15 10 25t24 10q15 0 24.5 -10t9.5 -25q0 -14 -9.5 -23.5t-24.5 -9.5z" />
    <glyph glyph-name="wgrave" unicode="&#x1e81;" horiz-adv-x="606" 
d="M34 384q-5 16 6 16h22q10 0 13 -9l94 -315h1l119 325q3 9 12 9h4q9 0 12 -9l119 -325h1l94 315q3 9 13 9h22q11 0 6 -16l-120 -385q-3 -9 -12 -9h-4q-9 0 -12 9l-121 337h-1l-120 -337q-3 -9 -12 -9h-4q-9 0 -12 9zM209 638q-9 5 -4 15l10 20q3 5 8.5 5t8.5 -2l164 -90
q9 -5 6 -14l-5 -10q-4 -8 -16 -3z" />
    <glyph glyph-name="yacute" unicode="&#xfd;" horiz-adv-x="443" 
d="M15 384q-3 6 -2 11t8 5h22q8 0 13 -9l171 -338h2l156 338q4 9 13 9h22q7 0 8 -5t-2 -11l-314 -676q-3 -8 -13 -8h-23q-13 0 -7 14l135 290zM149 558q-7 -3 -9.5 -2t-4.5 6l-6 13q-4 8 6 14l165 87q4 2 9 2t8 -5l10 -20q5 -11 -9 -18l-169 -77v0z" />
    <glyph glyph-name="ycircumflex" unicode="&#x177;" horiz-adv-x="443" 
d="M15 384q-3 6 -2 11t8 5h22q8 0 13 -9l171 -338h2l156 338q4 9 13 9h22q7 0 8 -5t-2 -11l-314 -676q-3 -8 -13 -8h-23q-13 0 -7 14l135 290zM117 550q-6 -5 -9.5 -3t-5.5 5l-9 11q-5 7 4 14l121 98q5 5 10 5h3q5 0 10 -5l121 -98q9 -7 4 -14l-9 -11q-2 -3 -5.5 -5t-9.5 3
l-113 84l-112 -84v0z" />
    <glyph glyph-name="ydieresis" unicode="&#xff;" horiz-adv-x="443" 
d="M15 384q-3 6 -2 11t8 5h22q8 0 13 -9l171 -338h2l156 338q4 9 13 9h22q7 0 8 -5t-2 -11l-314 -676q-3 -8 -13 -8h-23q-13 0 -7 14l135 290zM323 596q-14 0 -23.5 9.5t-9.5 23.5q0 15 9.5 25t23.5 10q15 0 25 -10t10 -25q0 -14 -10 -23.5t-25 -9.5zM132 596q-14 0 -24 9.5
t-10 23.5q0 15 10 25t24 10q15 0 24.5 -10t9.5 -25q0 -14 -9.5 -23.5t-24.5 -9.5z" />
    <glyph glyph-name="ygrave" unicode="&#x1ef3;" horiz-adv-x="443" 
d="M15 384q-3 6 -2 11t8 5h22q8 0 13 -9l171 -338h2l156 338q4 9 13 9h22q7 0 8 -5t-2 -11l-314 -676q-3 -8 -13 -8h-23q-13 0 -7 14l135 290zM134 638q-9 5 -4 15l10 20q3 5 8.5 5t8.5 -2l164 -90q9 -5 6 -14l-5 -10q-4 -8 -16 -3z" />
    <glyph glyph-name="zacute" unicode="&#x17a;" horiz-adv-x="371" 
d="M34 22l235 335v3h-204q-12 0 -12 13v14q0 13 12 13h259q8 0 12 -6t-1 -13l-234 -338v-3h207q13 0 13 -13v-14q0 -13 -13 -13h-262q-12 0 -12 11v11zM118 558q-7 -3 -9.5 -2t-4.5 6l-6 13q-4 8 6 14l165 87q4 2 9 2t8 -5l10 -20q5 -11 -9 -18l-169 -77v0z" />
    <glyph glyph-name="zcaron" unicode="&#x17e;" horiz-adv-x="371" 
d="M34 22l235 335v3h-204q-12 0 -12 13v14q0 13 12 13h259q8 0 12 -6t-1 -13l-234 -338v-3h207q13 0 13 -13v-14q0 -13 -13 -13h-262q-12 0 -12 11v11zM195 545q-5 0 -10 5l-121 98q-9 7 -4 14l9 11q2 3 5.5 5t9.5 -3l113 -84l112 84q6 5 9.5 3t5.5 -5l9 -11q5 -7 -4 -14
l-121 -98q-5 -5 -10 -5h-3v0z" />
    <glyph glyph-name="zdotaccent" unicode="&#x17c;" horiz-adv-x="371" 
d="M34 22l235 335v3h-204q-12 0 -12 13v14q0 13 12 13h259q8 0 12 -6t-1 -13l-234 -338v-3h207q13 0 13 -13v-14q0 -13 -13 -13h-262q-12 0 -12 11v11zM193 582q-16 0 -27 11.5t-11 26.5q0 16 11 27t27 11t27 -11t11 -27q0 -15 -11 -26.5t-27 -11.5z" />
    <glyph glyph-name="IJ" unicode="&#x132;" horiz-adv-x="660" 
d="M106 687q0 13 13 13h22q13 0 13 -13v-674q0 -6 -4.5 -9.5t-9.5 -3.5h-21q-13 0 -13 13v674zM244 65q-6 10 1 17l13 12q4 4 8 4.5t9 -4.5l19 -19t26 -20.5t34 -16t44 -6.5q64 0 105 44t41 134v477q0 13 14 13h20q13 0 13 -13v-476q0 -106 -52 -163.5t-142 -57.5
q-33 0 -58.5 9t-44.5 21t-31.5 24.5t-18.5 20.5z" />
    <glyph glyph-name="ij" unicode="&#x133;" horiz-adv-x="432" 
d="M98 596q-14 0 -24 9.5t-10 23.5t10 24.5t24 10.5t24 -10.5t10 -24.5t-10 -23.5t-24 -9.5zM76 387q0 13 13 13h18q13 0 13 -13v-374q0 -13 -13 -13h-20q-11 0 -11 13v374zM334 596q-14 0 -24 9.5t-10 23.5t10 24.5t24 10.5t24 -10.5t10 -24.5t-10 -23.5t-24 -9.5zM313 387
q0 13 13 13h17q13 0 13 -13v-524q0 -89 -40 -131t-106 -42q-39 0 -69 15t-43 28q-7 7 -2 14l10 16q7 10 17 0q13 -10 35.5 -21.5t51.5 -11.5q48 0 75.5 31.5t27.5 101.5v524z" />
    <glyph glyph-name="grave.cap" horiz-adv-x="302" 
d="M66 861q-9 5 -4 15l10 20q3 5 8.5 5t8.5 -2l164 -90q9 -5 6 -14l-5 -10q-4 -8 -16 -3z" />
    <glyph glyph-name="acute" unicode="&#xb4;" horiz-adv-x="302" 
d="M92 558q-7 -3 -9.5 -2t-4.5 6l-6 13q-4 8 6 14l165 87q4 2 9 2t8 -5l10 -20q5 -11 -9 -18l-169 -77v0z" />
    <glyph glyph-name="acute.cap" horiz-adv-x="302" 
d="M82 782q-12 -5 -16 3l-5 10q-3 9 6 14l164 90q3 2 8.5 2t8.5 -5l10 -20q5 -10 -4 -15l-172 -79v0z" />
    <glyph glyph-name="circumflex" unicode="&#x2c6;" horiz-adv-x="373" 
d="M72 550q-6 -5 -9.5 -3t-5.5 5l-9 11q-5 7 4 14l121 98q5 5 10 5h3q5 0 10 -5l121 -98q9 -7 4 -14l-9 -11q-2 -3 -5.5 -5t-9.5 3l-113 84l-112 -84v0z" />
    <glyph glyph-name="circumflex.cap" horiz-adv-x="373" 
d="M72 768q-6 -5 -9.5 -3t-5.5 5l-9 11q-5 7 4 14l121 98q5 5 10 5h3q5 0 10 -5l121 -98q9 -7 4 -14l-9 -11q-2 -3 -5.5 -5t-9.5 3l-113 84l-112 -84v0z" />
    <glyph glyph-name="caron" unicode="&#x2c7;" horiz-adv-x="373" 
d="M184 545q-5 0 -10 5l-121 98q-9 7 -4 14l9 11q2 3 5.5 5t9.5 -3l113 -84l112 84q6 5 9.5 3t5.5 -5l9 -11q5 -7 -4 -14l-121 -98q-5 -5 -10 -5h-3v0z" />
    <glyph glyph-name="caron.cap" horiz-adv-x="373" 
d="M184 763q-5 0 -10 5l-121 98q-9 7 -4 14l9 11q2 3 5.5 5t9.5 -3l113 -84l112 84q6 5 9.5 3t5.5 -5l9 -11q5 -7 -4 -14l-121 -98q-5 -5 -10 -5h-3v0z" />
    <glyph glyph-name="caron.alt" horiz-adv-x="373" 
d="M135 672q0 18 11.5 28.5t30.5 10.5q22 0 39 -22t17 -72q0 -30 -8.5 -54t-20.5 -41.5t-24 -28.5t-19 -15q-12 -7 -17 0l-8 10q-7 8 4 16q2 1 10 7.5t17.5 18.5t18 29t10.5 40q1 22 -5 38q-8 -5 -16 -5q-20 0 -30 12t-10 28z" />
    <glyph glyph-name="tilde" unicode="&#x2dc;" horiz-adv-x="380" 
d="M41 584q-10 3 -6 14q3 7 8.5 21t16.5 28.5t27.5 25.5t40.5 11q27 0 41.5 -14t24 -31.5t19.5 -31.5t28 -14q14 0 23.5 6.5t16.5 16t11 19.5t6 17q4 13 15 7l11 -4q3 -2 5.5 -4.5t0.5 -8.5q-1 -3 -5.5 -17t-15 -29t-28 -27.5t-43.5 -12.5t-40.5 14.5t-24.5 31.5t-20 31.5
t-28 14.5q-14 0 -24 -7t-16.5 -17t-10.5 -20.5t-6 -17.5q-3 -12 -15 -7z" />
    <glyph glyph-name="tilde.cap" horiz-adv-x="380" 
d="M45 804q-10 3 -6 14q3 7 8.5 21t16.5 28.5t27.5 25.5t40.5 11q27 0 41.5 -14t24 -31.5t19.5 -31.5t28 -14q14 0 23.5 6.5t16.5 16t11 19.5t6 17q4 13 15 7l11 -4q3 -2 5.5 -4.5t0.5 -8.5q-1 -3 -5.5 -17t-15 -29t-28 -27.5t-43.5 -12.5t-40.5 14.5t-24.5 31.5t-20 31.5
t-28 14.5q-14 0 -24 -7t-16.5 -17t-10.5 -20.5t-6 -17.5q-3 -12 -15 -7z" />
    <glyph glyph-name="dieresis" unicode="&#xa8;" horiz-adv-x="414" 
d="M319 596q-14 0 -23.5 9.5t-9.5 23.5q0 15 9.5 25t23.5 10q15 0 25 -10t10 -25q0 -14 -10 -23.5t-25 -9.5zM128 596q-14 0 -24 9.5t-10 23.5q0 15 10 25t24 10q15 0 24.5 -10t9.5 -25q0 -14 -9.5 -23.5t-24.5 -9.5z" />
    <glyph glyph-name="dieresis.cap" horiz-adv-x="474" 
d="M341 801q-14 0 -24 9.5t-10 23.5q0 15 10 25t24 10q15 0 25 -10t10 -25q0 -14 -10 -23.5t-25 -9.5zM132 801q-14 0 -24 9.5t-10 23.5q0 15 10 25t24 10q15 0 25 -10t10 -25q0 -14 -10 -23.5t-25 -9.5z" />
    <glyph glyph-name="macron" unicode="&#xaf;" horiz-adv-x="414" 
d="M71 595q-13 0 -13 12v13q0 13 13 13h272q13 0 13 -13v-13q0 -12 -13 -12h-272v0z" />
    <glyph glyph-name="macron.cap" horiz-adv-x="414" 
d="M71 831q-13 0 -13 13v12q0 13 13 13h272q13 0 13 -13v-12q0 -13 -13 -13h-272v0z" />
    <glyph glyph-name="uni02C9" unicode="&#x2c9;" horiz-adv-x="414" 
d="M71 595q-13 0 -13 12v13q0 13 13 13h272q13 0 13 -13v-13q0 -12 -13 -12h-272v0z" />
    <glyph glyph-name="breve" unicode="&#x2d8;" horiz-adv-x="346" 
d="M173 538q-52 0 -87.5 32t-43.5 78q-2 14 10 14h13q8 0 12 -11q8 -34 33.5 -56.5t62.5 -22.5q35 0 61 22.5t34 56.5q3 11 12 11h14q12 0 10 -14q-8 -47 -44 -78.5t-87 -31.5z" />
    <glyph glyph-name="breve.cap" horiz-adv-x="346" 
d="M173 775q-26 0 -48.5 8.5t-39.5 23.5t-28.5 35.5t-14.5 43.5q-1 5 1.5 9.5t8.5 4.5h13q5 0 7.5 -3.5t4.5 -8.5q9 -33 34 -55.5t62 -22.5q35 0 61 22.5t34 55.5q3 12 12 12h14q5 0 8 -4.5t2 -9.5q-8 -48 -44 -79.5t-87 -31.5z" />
    <glyph glyph-name="ring" unicode="&#x2da;" horiz-adv-x="290" 
d="M145 497q-23 0 -42.5 8t-33.5 22.5t-22.5 33.5t-8.5 42q0 22 8.5 42t22.5 34t33.5 22.5t42.5 8.5q22 0 41.5 -8.5t33.5 -22.5t22.5 -34t8.5 -42q0 -23 -8.5 -42t-22.5 -33.5t-33.5 -22.5t-41.5 -8zM145 529q29 0 51 22t22 52t-22 52t-51 22q-30 0 -52.5 -22t-22.5 -52
t22.5 -52t52.5 -22z" />
    <glyph glyph-name="ring.cap" horiz-adv-x="290" 
d="M145 754q-23 0 -42 8t-33.5 22.5t-22.5 33.5t-8 42q0 22 8 42t22.5 34t33.5 22.5t42 8.5q22 0 41.5 -8.5t34 -22.5t23 -34t8.5 -42q0 -23 -8.5 -42t-23 -33.5t-34 -22.5t-41.5 -8zM145 786q30 0 52 22t22 52t-22 52t-52 22t-52 -22t-22 -52t22 -52t52 -22z" />
    <glyph glyph-name="hungarumlaut" unicode="&#x2dd;" horiz-adv-x="392" 
d="M231 518q-12 0 -7 12l79 159q5 11 14 11h22q8 0 11 -5t-1 -12l-93 -157q-4 -8 -13 -8h-12zM65 518q-12 0 -7 12l79 159q5 11 14 11h22q8 0 11 -5t-1 -12l-93 -157q-4 -8 -13 -8h-12z" />
    <glyph glyph-name="hungarumlaut.cap" horiz-adv-x="392" 
d="M220 766q-12 0 -7 12l79 159q5 11 14 11h22q8 0 11 -5t-1 -12l-93 -157q-4 -8 -13 -8h-12zM54 766q-12 0 -7 12l79 159q5 11 14 11h22q8 0 11 -5t-1 -12l-93 -157q-4 -8 -13 -8h-12z" />
    <glyph glyph-name="dotaccent" unicode="&#x2d9;" horiz-adv-x="219" 
d="M108 582q-16 0 -27 11.5t-11 26.5q0 16 11 27t27 11t27 -11t11 -27q0 -15 -11 -26.5t-27 -11.5z" />
    <glyph glyph-name="dotaccent.cap" horiz-adv-x="219" 
d="M108 810q-16 0 -27 11t-11 27t11 27t27 11t27 -11t11 -27t-11 -27t-27 -11z" />
    <glyph glyph-name="cedilla" unicode="&#xb8;" horiz-adv-x="247" 
d="M108 0v-54q45 -5 76 -28.5t31 -68.5q0 -20 -7.5 -37.5t-20.5 -31t-31 -21t-39 -7.5q-29 0 -50 11.5t-28 22.5t1 18l10 8q7 6 16 -3q5 -5 17 -13t34 -8q27 0 43 17.5t16 42.5q0 18 -8.5 30t-21.5 20t-29.5 12t-32.5 6q-12 3 -12 13v71h36z" />
    <glyph glyph-name="cedilla.cap" horiz-adv-x="247" 
d="M108 0v-54q45 -5 76 -28.5t31 -68.5q0 -20 -7.5 -37.5t-20.5 -31t-31 -21t-39 -7.5q-29 0 -50 11.5t-28 22.5t1 18l10 8q7 6 16 -3q5 -5 17 -13t34 -8q27 0 43 17.5t16 42.5q0 18 -8.5 30t-21.5 20t-29.5 12t-32.5 6q-12 3 -12 13v71h36z" />
    <glyph glyph-name="ogonek" unicode="&#x2db;" horiz-adv-x="276" 
d="M38 -118q0 31 12.5 55t28.5 40.5t30 25t16 9.5l30 -4q-22 -14 -39 -32q-15 -16 -27 -38t-12 -51q0 -34 22.5 -50.5t51.5 -16.5q23 0 38.5 5.5t23.5 9.5q11 6 13 -8l1 -10q1 -10 -8 -16q-9 -5 -29 -11t-44 -6q-21 0 -40.5 5.5t-34.5 17.5t-24 30.5t-9 44.5z" />
    <glyph glyph-name="ogonek.cap" horiz-adv-x="276" 
d="M38 -118q0 31 12.5 55t28.5 40.5t30 25t16 9.5l30 -4q-22 -14 -39 -32q-15 -16 -27 -38t-12 -51q0 -34 22.5 -50.5t51.5 -16.5q23 0 38.5 5.5t23.5 9.5q11 6 13 -8l1 -10q1 -10 -8 -16q-9 -5 -29 -11t-44 -6q-21 0 -40.5 5.5t-34.5 17.5t-24 30.5t-9 44.5z" />
    <glyph glyph-name="commaaccent" horiz-adv-x="292" 
d="M96 -141q0 18 11.5 28.5t30.5 10.5q22 0 39 -22t17 -72q0 -30 -8.5 -54t-20.5 -41.5t-24 -28.5t-19 -15q-12 -7 -17 0l-8 10q-7 8 4 16q2 1 10 7.5t17.5 18.5t18 29t10.5 40q1 22 -5 38q-8 -5 -16 -5q-20 0 -30 12t-10 28z" />
    <glyph glyph-name="commaaccent.alt" horiz-adv-x="292" 
d="M96 -141q0 18 11.5 28.5t30.5 10.5q22 0 39 -22t17 -72q0 -30 -8.5 -54t-20.5 -41.5t-24 -28.5t-19 -15q-12 -7 -17 0l-8 10q-7 8 4 16q2 1 10 7.5t17.5 18.5t18 29t10.5 40q1 22 -5 38q-8 -5 -16 -5q-20 0 -30 12t-10 28z" />
    <glyph glyph-name="commaaccent.cap" horiz-adv-x="292" 
d="M96 -141q0 18 11.5 28.5t30.5 10.5q22 0 39 -22t17 -72q0 -30 -8.5 -54t-20.5 -41.5t-24 -28.5t-19 -15q-12 -7 -17 0l-8 10q-7 8 4 16q2 1 10 7.5t17.5 18.5t18 29t10.5 40q1 22 -5 38q-8 -5 -16 -5q-20 0 -30 12t-10 28z" />
    <glyph glyph-name="ellipsis" unicode="&#x2026;" horiz-adv-x="624" 
d="M465 31q0 17 11.5 28.5t28.5 11.5t28.5 -11.5t11.5 -28.5t-11.5 -29t-28.5 -12t-28.5 12t-11.5 29zM270 31q0 17 11.5 28.5t28.5 11.5t28.5 -11.5t11.5 -28.5t-11.5 -29t-28.5 -12t-28.5 12t-11.5 29zM78 31q0 17 12 28.5t29 11.5t28.5 -11.5t11.5 -28.5t-11.5 -29
t-28.5 -12t-29 12t-12 29z" />
    <glyph glyph-name="uni00AD" unicode="&#xad;" horiz-adv-x="347" 
d="M60 231q-12 0 -12 13v11q0 13 12 13h226q13 0 13 -13v-11q0 -13 -13 -13h-226v0z" />
    <glyph glyph-name="exclamdown" unicode="&#xa1;" horiz-adv-x="225" 
d="M112 330q-17 0 -28.5 11.5t-11.5 28.5t11.5 28.5t28.5 11.5t29 -11.5t12 -28.5t-12 -28.5t-29 -11.5zM95 119q0 5 4 8.5t9 3.5h8q5 0 9 -3.5t4 -8.5l10 -284v-122q0 -8 -5 -10.5t-10 -2.5h-25q-13 0 -13 13v121z" />
    <glyph glyph-name="questiondown" unicode="&#xbf;" horiz-adv-x="239" 
d="M125 330q-17 0 -29 11.5t-12 28.5t12 28.5t29 11.5t28.5 -11.5t11.5 -28.5t-11.5 -28.5t-28.5 -11.5zM102 113q0 14 13 14h19q7 0 9.5 -4.5t2.5 -9.5v-58q0 -24 -12.5 -43t-31 -35t-40 -31t-40 -31.5t-31 -36t-12.5 -44.5q0 -20 8 -38.5t24 -33t38.5 -23.5t52.5 -9
q34 0 59.5 9.5t43 21.5t27.5 23.5t14 15.5q3 3 6.5 4.5t10.5 -3.5l10 -7q8 -5 7 -9.5t-4 -9.5q-17 -25 -43 -43q-22 -16 -55 -29t-79 -13q-76 0 -120.5 39.5t-44.5 101.5q0 33 12.5 57.5t31 43.5t40.5 34t40.5 29t31 28.5t12.5 32.5v57z" />
    <glyph glyph-name="quoteleft" unicode="&#x2018;" horiz-adv-x="189" 
d="M99 472q-22 0 -39 22t-17 72q0 30 8.5 54t20.5 41.5t24 28.5t19 15q12 7 17 0l8 -10q7 -8 -4 -16q-2 -2 -10 -8t-17.5 -18t-18 -29t-10.5 -40q-1 -22 5 -38q8 5 16 5q20 0 30 -12t10 -28q0 -18 -11.5 -28.5t-30.5 -10.5z" />
    <glyph glyph-name="quoteright" unicode="&#x2019;" horiz-adv-x="189" 
d="M52 487q-7 8 4 16q2 1 10 7.5t17.5 18.5t18 29t10.5 40q1 22 -5 38q-8 -5 -16 -5q-20 0 -30 12t-10 28q0 18 11.5 28.5t30.5 10.5q22 0 39 -22t17 -72q0 -30 -8.5 -54t-20.5 -41.5t-24 -28.5t-19 -15q-12 -7 -17 0z" />
    <glyph glyph-name="quotedblleft" unicode="&#x201c;" horiz-adv-x="369" 
d="M279 473q-22 0 -39 22t-17 72q0 30 8.5 54t20.5 41.5t24 28.5t19 15q12 7 17 0l8 -10q7 -8 -4 -16q-2 -2 -10 -8t-17.5 -18t-18 -29t-10.5 -40q-1 -22 5 -38q8 5 16 5q20 0 30 -12t10 -28q0 -18 -11.5 -28.5t-30.5 -10.5zM100 473q-22 0 -39 22t-17 72q0 30 8.5 54
t20.5 41.5t24 28.5t19 15q12 7 17 0l8 -10q7 -8 -4 -16q-2 -2 -10 -8t-17.5 -18t-18 -29t-10.5 -40q-1 -22 5 -38q8 5 16 5q20 0 30 -12t10 -28q0 -18 -11.5 -28.5t-30.5 -10.5z" />
    <glyph glyph-name="quotedblright" unicode="&#x201d;" horiz-adv-x="368" 
d="M231 487q-7 8 4 16q2 1 10 7.5t17.5 18.5t18 29t10.5 40q1 22 -5 38q-8 -5 -16 -5q-20 0 -30 12t-10 28q0 18 11.5 28.5t30.5 10.5q22 0 39 -22t17 -72q0 -30 -8.5 -54t-20.5 -41.5t-24 -28.5t-19 -15q-12 -7 -17 0zM52 487q-7 8 4 16q2 1 10 7.5t17.5 18.5t18 29
t10.5 40q1 22 -5 38q-8 -5 -16 -5q-20 0 -30 12t-10 28q0 18 11.5 28.5t30.5 10.5q22 0 39 -22t17 -72q0 -30 -8.5 -54t-20.5 -41.5t-24 -28.5t-19 -15q-12 -7 -17 0z" />
    <glyph glyph-name="quotesinglbase" unicode="&#x201a;" horiz-adv-x="229" 
d="M70 29q0 18 11.5 28.5t30.5 10.5q22 0 39 -22t17 -72q0 -30 -8.5 -54t-20.5 -41.5t-24 -28.5t-19 -15q-12 -7 -17 0l-8 10q-7 8 4 16q2 1 10 7.5t17.5 18.5t18 29t10.5 40q1 22 -5 38q-8 -5 -16 -5q-20 0 -30 12t-10 28z" />
    <glyph glyph-name="quotedblbase" unicode="&#x201e;" horiz-adv-x="408" 
d="M249 29q0 18 11.5 28.5t30.5 10.5q22 0 39 -22t17 -72q0 -30 -8.5 -54t-20.5 -41.5t-24 -28.5t-19 -15q-12 -7 -17 0l-8 10q-7 8 4 16q2 1 10 7.5t17.5 18.5t18 29t10.5 40q1 22 -5 38q-8 -5 -16 -5q-20 0 -30 12t-10 28zM70 29q0 18 11.5 28.5t30.5 10.5q22 0 39 -22
t17 -72q0 -30 -8.5 -54t-20.5 -41.5t-24 -28.5t-19 -15q-12 -7 -17 0l-8 10q-7 8 4 16q2 1 10 7.5t17.5 18.5t18 29t10.5 40q1 22 -5 38q-8 -5 -16 -5q-20 0 -30 12t-10 28z" />
    <glyph glyph-name="guilsinglleft" unicode="&#x2039;" horiz-adv-x="245" 
d="M46 199q-3 4 -2.5 8.5t2.5 8.5l108 154q5 8 9 8.5t7 0.5h16q6 0 8 -5t-3 -13l-94 -153l94 -157q5 -8 3 -13t-8 -5h-16q-3 0 -7 0.5t-9 8.5z" />
    <glyph glyph-name="guilsinglright" unicode="&#x203a;" horiz-adv-x="245" 
d="M59 33q-6 0 -8 5t3 13l94 157l-94 153q-5 8 -3 13t8 5h16q3 0 7 -0.5t9 -8.5l108 -154q2 -4 2.5 -8.5t-2.5 -8.5l-108 -157q-5 -8 -9 -8.5t-7 -0.5h-16v0z" />
    <glyph glyph-name="guillemotleft" unicode="&#xab;" horiz-adv-x="405" 
d="M206 199q-3 4 -2.5 8.5t2.5 8.5l108 154q5 8 9 8.5t7 0.5h16q6 0 8 -5t-3 -13l-94 -153l94 -157q5 -8 3 -13t-8 -5h-16q-3 0 -7 0.5t-9 8.5zM46 199q-3 4 -2.5 8.5t2.5 8.5l108 154q5 8 9 8.5t7 0.5h16q6 0 8 -5t-3 -13l-94 -153l94 -157q5 -8 3 -13t-8 -5h-16
q-3 0 -7 0.5t-9 8.5z" />
    <glyph glyph-name="guillemotright" unicode="&#xbb;" horiz-adv-x="405" 
d="M308 208l-94 153q-5 8 -3 13t8 5h16q3 0 7 -0.5t9 -8.5l108 -154q2 -4 2.5 -8.5t-2.5 -8.5l-108 -157q-5 -8 -9 -8.5t-7 -0.5h-16q-6 0 -8 5t3 13zM59 33q-6 0 -8 5t3 13l94 157l-94 153q-5 8 -3 13t8 5h16q3 0 7 -0.5t9 -8.5l108 -154q2 -4 2.5 -8.5t-2.5 -8.5
l-108 -157q-5 -8 -9 -8.5t-7 -0.5h-16z" />
    <glyph glyph-name="endash" unicode="&#x2013;" horiz-adv-x="644" 
d="M130 233q-13 0 -13 12v8q0 13 13 13h384q13 0 13 -13v-8q0 -12 -13 -12h-384v0z" />
    <glyph glyph-name="emdash" unicode="&#x2014;" horiz-adv-x="862" 
d="M130 233q-13 0 -13 12v8q0 13 13 13h602q13 0 13 -13v-8q0 -12 -13 -12h-602v0z" />
    <glyph glyph-name="bullet" unicode="&#x2022;" horiz-adv-x="354" 
d="M175 154q-29 0 -50 21t-21 50q0 31 21 52.5t50 21.5q31 0 52.5 -21.5t21.5 -52.5q0 -29 -21.5 -50t-52.5 -21z" />
    <glyph glyph-name="periodcentered" unicode="&#xb7;" horiz-adv-x="233" 
d="M117 221q-17 0 -29 11.5t-12 28.5t12 28.5t29 11.5t28.5 -11.5t11.5 -28.5t-11.5 -28.5t-28.5 -11.5z" />
    <glyph glyph-name="uni2219" unicode="&#x2219;" horiz-adv-x="354" 
d="M177 221q-17 0 -29 11.5t-12 28.5t12 28.5t29 11.5t28.5 -11.5t11.5 -28.5t-11.5 -28.5t-28.5 -11.5z" />
    <glyph glyph-name="dagger" unicode="&#x2020;" horiz-adv-x="570" 
d="M53 358q-13 0 -13 15v14q0 13 13 13h205v287q0 13 14 13h26q13 0 13 -13v-287h207q12 0 12 -13v-16q0 -13 -12 -13h-208l-9 -647q0 -11 -13 -11h-8q-13 0 -13 11l-8 647h-206v0z" />
    <glyph glyph-name="daggerdbl" unicode="&#x2021;" horiz-adv-x="570" 
d="M70 29q0 13 13 13h179l-4 340v18h-205q-13 0 -13 14v15q0 13 13 13h205v245q0 13 14 13h26q13 0 13 -13v-245h207q6 0 9 -4.5t3 -10.5v-14q0 -13 -12 -13h-207l-5 -358h182q12 0 12 -13v-16q0 -13 -12 -13h-183l-4 -289q0 -11 -13 -11h-8q-13 0 -13 11l-4 289h-180
q-13 0 -13 14v15z" />
    <glyph glyph-name="section" unicode="&#xa7;" horiz-adv-x="533" 
d="M72 -114q9 11 19 1q3 -3 18 -15.5t38 -25.5t54.5 -23.5t67.5 -10.5q30 0 59.5 8.5t52 24.5t36.5 38.5t14 50.5q0 61 -50 98t-138 66q-42 14 -77.5 31t-61 40t-40 52.5t-14.5 67.5q0 23 7.5 42.5t18 34.5t21.5 26t18 17q-6 5 -16.5 16t-21 27.5t-18.5 38t-8 48.5
q0 28 12 58t37.5 55t66.5 41.5t99 16.5q37 0 68.5 -8t54.5 -18q26 -11 48 -25q3 -2 6 -7t-2 -13l-10 -15q-3 -5 -7.5 -7t-12.5 3q-2 1 -14.5 8.5t-32 16.5t-45 16t-53.5 7q-47 0 -79 -12t-52 -31t-29 -41.5t-9 -44.5q0 -58 45 -93t119 -58q49 -17 90 -34.5t69.5 -40
t44.5 -51.5t16 -68q0 -23 -9 -43t-21 -36t-23.5 -27t-17.5 -17q6 -5 18 -16.5t23.5 -28.5t20 -40t8.5 -51q0 -36 -17.5 -66.5t-46.5 -52t-67.5 -34t-80.5 -12.5q-43 0 -78.5 10.5t-62.5 24.5t-43.5 26.5t-21.5 17.5q-4 4 -6.5 8.5t3.5 12.5zM257 143q32 -10 61 -22t55 -27
q5 4 14.5 13t19.5 21t17 28t7 35q0 30 -13 52.5t-37 40.5t-59 32.5t-79 29.5q-27 8 -51.5 17.5t-42.5 23.5q-6 -6 -15 -14.5t-17 -20t-14 -27t-6 -34.5q0 -30 11.5 -52t32.5 -39.5t50.5 -31t65.5 -25.5z" />
    <glyph glyph-name="paragraph" unicode="&#xb6;" horiz-adv-x="685" 
d="M223 283q-45 0 -81 17.5t-62 46t-40 66t-14 77.5q0 43 15 81.5t41.5 67t62.5 45t78 16.5h428q13 0 13 -13v-12q0 -13 -13 -13h-107v-949q0 -13 -13 -13h-11q-5 0 -9 3t-4 10v949h-175v-949q0 -13 -13 -13h-11q-5 0 -9 3t-4 10v570h-72v0z" />
    <glyph glyph-name="brokenbar.case" horiz-adv-x="359" 
d="M177 508q-13 0 -13 13v345q0 13 13 13h6q12 0 12 -13v-345q0 -13 -13 -13h-5zM164 178q0 13 13 13h6q12 0 12 -13v-346q0 -12 -13 -12h-5q-13 0 -13 12v346z" />
    <glyph glyph-name="copyright" unicode="&#xa9;" horiz-adv-x="833" 
d="M56 350q0 74 28.5 139.5t77 114.5t114 77.5t140.5 28.5q74 0 140 -28.5t115 -77.5t77.5 -114.5t28.5 -139.5q0 -75 -28.5 -140.5t-77.5 -114t-115 -77t-140 -28.5q-75 0 -140.5 28.5t-114 77t-77 114t-28.5 140.5zM95 350q0 -66 25.5 -124.5t69 -102t102 -69t124.5 -25.5
t124.5 25.5t102 69t69 102t25.5 124.5t-25.5 124.5t-69 102t-102 68.5t-124.5 25t-124.5 -25t-102 -68.5t-69 -102t-25.5 -124.5zM235 348q0 40 15 74.5t40.5 60t60.5 40.5t74 15q30 0 60.5 -9t55.5 -29q11 -9 2 -19l-9 -11q-4 -5 -8.5 -4.5t-8.5 3.5q-20 16 -44 22.5
t-47 6.5q-31 0 -58 -12t-46.5 -32t-31 -47t-11.5 -58t11.5 -58t31 -47t46.5 -31.5t58 -11.5q49 0 90 31q11 8 19 -2l9 -12q6 -10 -1 -17q-26 -23 -55.5 -33t-62.5 -10q-39 0 -74 15t-60.5 40.5t-40.5 60.5t-15 74z" />
    <glyph glyph-name="registered" unicode="&#xae;" horiz-adv-x="834" 
d="M56 350q0 74 28.5 139.5t77 114.5t114 77.5t140.5 28.5q74 0 140 -28.5t115 -77.5t77.5 -114.5t28.5 -139.5q0 -75 -28.5 -140.5t-77.5 -114t-115 -77t-140 -28.5q-75 0 -140.5 28.5t-114 77t-77 114t-28.5 140.5zM95 350q0 -66 25.5 -124.5t69 -102t102 -69t124.5 -25.5
t124.5 25.5t102 69t69 102t25.5 124.5t-25.5 124.5t-69 102t-102 68.5t-124.5 25t-124.5 -25t-102 -68.5t-69 -102t-25.5 -124.5zM288 523q0 13 12 13h146q24 0 47 -6.5t40.5 -20.5t28.5 -35.5t11 -50.5q0 -27 -9 -47t-23 -33.5t-31 -21t-32 -10.5l70 -128q3 -5 1 -10t-9 -5
h-23q-9 0 -14 10l-67 130h-14h-94v-128q0 -13 -12 -13h-16q-12 0 -12 13v343zM446 345q34 0 60 20.5t26 57.5q0 43 -29 60t-69 17h-106v-155h118z" />
    <glyph glyph-name="trademark" unicode="&#x2122;" horiz-adv-x="721" 
d="M309 394q-7 0 -9.5 4.5t-0.5 10.5l68 291q3 10 11 10h5q6 0 10 -10l86 -245h1l87 245q4 10 10 10h5q8 0 11 -10l68 -291q2 -6 -0.5 -10.5t-9.5 -4.5h-11q-9 0 -12 10l-53 217h-1l-80 -224q-3 -8 -9 -8h-10q-6 0 -9 8l-81 224h-1l-52 -217q-3 -10 -12 -10h-11zM161 394
q-5 0 -8.5 3.5t-3.5 9.5v260h-87q-6 0 -9.5 4.5t-3.5 10.5v5q0 13 13 13h208q13 0 13 -13v-7q0 -13 -13 -13h-86v-260q0 -13 -13 -13h-10z" />
    <glyph glyph-name="currency" unicode="&#xa4;" horiz-adv-x="491" 
d="M87 174q-5 4 -4.5 9t2.5 7l53 53q-26 35 -26 79t26 78l-53 52q-2 3 -2.5 8t4.5 10l10 11q5 5 10 4.5t9 -2.5l51 -53q36 27 79 26t78 -27l53 53q2 2 7.5 2.5t10.5 -5.5l11 -9q5 -6 4 -10.5t-4 -8.5l-51 -51q26 -35 26 -78.5t-26 -77.5l51 -51q7 -10 -3 -19l-10 -11
q-5 -5 -10 -4t-8 3l-51 51q-35 -26 -78.5 -26t-78.5 26l-51 -53q-9 -5 -19 2zM179 253q14 -14 31.5 -20.5t36.5 -6.5t36.5 6.5t31.5 20.5t21 31.5t7 36.5t-7 36.5t-21 31.5t-31.5 21t-36.5 7t-36.5 -7t-31.5 -21t-21 -31.5t-7 -36.5t7 -36.5t21 -31.5z" />
    <glyph glyph-name="Euro" unicode="&#x20ac;" horiz-adv-x="735" 
d="M32 259q-12 0 -12 13v5q0 13 12 13h47q-2 14 -3.5 28.5t-1.5 30.5v14t1 14h-43q-5 0 -8.5 4.5t-3.5 9.5v5q0 13 12 13h47q10 64 42 119t79.5 95.5t107.5 63.5t128 23q77 0 135.5 -24t107.5 -69q4 -4 4.5 -9t-3.5 -9l-15 -15q-10 -10 -20 0q-86 81 -209 81
q-58 0 -109.5 -19.5t-92 -54t-67.5 -81.5t-37 -101h323q7 0 10 -5t3 -10v-4q0 -13 -13 -13h-328q-1 -7 -1 -13.5v-14.5q0 -15 1 -30t4 -29h285q6 0 9 -5t3 -10v-4q0 -12 -12 -12h-277q14 -49 42.5 -90t67.5 -71t87 -46.5t102 -16.5q36 0 65.5 6t54 17t46.5 26.5t45 34.5
q10 8 16 2l17 -17q9 -9 0 -17q-52 -50 -114.5 -73.5t-129.5 -23.5q-63 0 -120 20t-103 56t-79 85t-48 108h-54v0z" />
    <glyph glyph-name="cent" unicode="&#xa2;" horiz-adv-x="445" 
d="M166 4q-29 11 -53 30t-41 44.5t-27 56t-10 65.5q0 45 17 83.5t45.5 66.5t67 44t80.5 16q16 0 31 -3l10 40q3 10 16 8l5 -1q13 -2 9 -16l-10 -38q35 -10 57 -26.5t30 -26.5t-2 -18l-11 -10q-8 -6 -11.5 -4t-8.5 7q-4 4 -21 16t-44 20l-87 -323q18 -3 36 -3q28 0 49.5 7.5
t37.5 17t25.5 19t14.5 13.5q10 11 19 2l8 -7q9 -9 4 -17q-6 -9 -19.5 -22t-33.5 -25.5t-46.5 -21t-57.5 -8.5q-13 0 -25.5 1t-23.5 4l-23 -90q-3 -10 -16 -8l-5 1q-13 2 -9 15zM264 365q-5 1 -9.5 1.5t-9.5 0.5q-34 0 -64 -12.5t-52.5 -35t-35.5 -52.5t-13 -66
q0 -54 27.5 -95t70.5 -60z" />
    <glyph glyph-name="sterling" unicode="&#xa3;" horiz-adv-x="518" 
d="M82 23q12 27 21.5 55t15.5 54t9 49t2 40q0 26 -2.5 45t-5.5 36h-43q-6 0 -9.5 4.5t-3.5 10.5v4q0 5 4 8.5t9 3.5h36q-8 32 -20 76.5t-12 98.5q0 46 16 83t44 63.5t65 41t78 14.5q34 0 63 -8t52 -19.5t38.5 -24t21.5 -21.5q4 -5 4 -10t-6 -12l-8 -9q-4 -4 -9.5 -4.5
t-12.5 6.5q-3 3 -14.5 12.5t-30 20t-44 19t-56.5 8.5q-32 0 -60.5 -11.5t-50 -32.5t-34 -51t-12.5 -66q0 -53 12.5 -98t19.5 -76h202q7 0 10 -4.5t3 -9.5v-4q0 -13 -13 -13h-194q3 -18 4.5 -39.5t1.5 -41.5q-1 -45 -9 -88.5t-28 -91.5h300q8 0 10 -4.5t2 -9.5v-15
q0 -5 -3.5 -8.5t-8.5 -3.5h-342q-5 0 -9 4.5t-3 9.5v9z" />
    <glyph glyph-name="florin" unicode="&#x192;" horiz-adv-x="336" 
d="M118 361h-87q-7 0 -10 4t-3 9v13q0 13 13 13h87v137q0 44 11.5 76.5t31.5 54t47.5 32t60.5 10.5q19 0 37 -4t33 -10.5t26 -14t16 -14.5q7 -9 2 -16l-10 -14q-7 -11 -17 -1q-11 11 -35 22.5t-52 11.5q-48 0 -77.5 -32t-29.5 -101v-137h148q13 0 13 -12v-15q0 -12 -13 -12
h-148v-496q0 -44 -11.5 -76.5t-31.5 -54t-47.5 -32t-60.5 -10.5q-19 0 -37 4t-33 10.5t-26 14t-16 14.5q-7 9 -2 16l10 14q7 11 17 1q11 -11 35 -22.5t52 -11.5q48 0 77.5 32t29.5 101v496z" />
    <glyph glyph-name="yen" unicode="&#xa5;" horiz-adv-x="620" 
d="M133 139q-12 0 -12 12v6q0 13 12 13h150v88h-150q-12 0 -12 12v6q0 13 12 13h150v51l-255 345q-5 6 -2.5 10.5t10.5 4.5h30q8 0 13 -6l228 -312l232 312q4 6 13 6h30q8 0 10.5 -4.5t-2.5 -10.5l-260 -344v-52h150q12 0 12 -13v-6q0 -12 -12 -12h-150v-88h150q12 0 12 -13
v-6q0 -12 -12 -12h-150v-126q0 -13 -13 -13h-22q-12 0 -12 13v126h-150v0z" />
    <glyph glyph-name="ordfeminine" unicode="&#xaa;" horiz-adv-x="324" 
d="M135 403q-41 0 -68 26.5t-27 71.5q0 42 32.5 69.5t89.5 27.5q23 0 43.5 -4.5t26.5 -6.5q0 24 -2 41t-8 28.5t-18 16.5t-32 5q-36 0 -58.5 -9l-27.5 -11q-9 -3 -11 5l-4 13q-3 8 5 12q2 1 27.5 11.5t70.5 10.5q34 0 52.5 -10.5t27.5 -28.5t10.5 -43t1.5 -54v-154
q0 -10 -10 -10h-11q-8 0 -10 8l-3 23q-14 -12 -38.5 -25t-58.5 -13zM138 434q32 0 57 14.5t36 28.5v80q-8 3 -27 8.5t-44 5.5q-39 0 -64 -20t-25 -49q0 -31 19 -49.5t48 -18.5z" />
    <glyph glyph-name="ordmasculine" unicode="&#xba;" horiz-adv-x="331" 
d="M165 394q-58 0 -90 42t-32 115q0 75 32 117t90 42q59 0 91 -42t32 -117q0 -73 -32 -115t-91 -42zM165 427q42 0 64.5 32.5t22.5 91.5q0 60 -22.5 93.5t-64.5 33.5q-41 0 -63.5 -33.5t-22.5 -93.5q0 -59 22.5 -91.5t63.5 -32.5z" />
    <glyph glyph-name="onesuperior" unicode="&#xb9;" horiz-adv-x="187" 
d="M98 504q-8 0 -8 8v241l-47 -28q-6 -3 -9 2l-6 10q-3 6 3 11l73 52h12q10 0 10 -8v-280q0 -8 -8 -8h-20v0z" />
    <glyph glyph-name="twosuperior" unicode="&#xb2;" horiz-adv-x="320" 
d="M63 504q-9 0 -9 8v9l139 130q17 16 26 32t10 34q0 22 -18 41t-54 19q-28 0 -45 -13.5t-23 -19.5q-2 -3 -5 -3t-5 2l-13 12q-5 5 -1 10q10 12 24 22q12 8 29.5 15.5t40.5 7.5q52 0 79 -27t27 -63q0 -24 -12.5 -46t-33.5 -42l-106 -97h143q7 0 7 -8v-15q0 -8 -7 -8h-193v0z
" />
    <glyph glyph-name="threesuperior" unicode="&#xb3;" horiz-adv-x="316" 
d="M157 494q-23 0 -41 5t-31 11.5t-21.5 13.5t-11.5 11q-6 5 0 11l11 11q6 6 13 0q3 -3 8.5 -8t15 -10.5t23.5 -9.5t33 -4q34 0 55.5 16t21.5 41q0 23 -19.5 40t-61.5 17h-45q-8 0 -8 10v12q0 8 8 8h45q31 0 52 13.5t21 41.5q0 25 -19.5 39.5t-48.5 14.5q-17 0 -29 -4
t-21 -9t-14 -10l-7 -7q-6 -6 -10 -1l-13 11q-6 6 -1 11q11 11 26 20q13 8 30.5 14.5t40.5 6.5q45 0 74 -22t29 -60q0 -25 -16.5 -44.5t-35.5 -27.5q17 -6 30 -17q11 -9 21 -23.5t10 -35.5q0 -37 -31.5 -61.5t-82.5 -24.5z" />
    <glyph glyph-name="fraction" unicode="&#x2044;" horiz-adv-x="144" 
d="M-92 5q-2 -4 -6 -4.5t-7 -0.5h-15q-6 0 -8.5 4t0.5 10l384 681q2 4 6 4.5t7 0.5h15q6 0 8.5 -4t-0.5 -10l-384 -681v0z" />
    <glyph glyph-name="uni2215" unicode="&#x2215;" horiz-adv-x="144" 
d="M-92 5q-2 -4 -6 -4.5t-7 -0.5h-15q-6 0 -8.5 4t0.5 10l384 681q2 4 6 4.5t7 0.5h15q6 0 8.5 -4t-0.5 -10l-384 -681v0z" />
    <glyph glyph-name="onehalf" unicode="&#xbd;" horiz-adv-x="669" 
d="M459 695q2 4 6 4.5t7 0.5h15q6 0 8.5 -4t-0.5 -10l-384 -681q-2 -4 -6 -4.5t-7 -0.5h-15q-6 0 -8.5 4t0.5 10zM117 404q-8 0 -8 8v241l-47 -28q-6 -3 -9 2l-6 10q-3 6 3 11l73 52h12q10 0 10 -8v-280q0 -8 -8 -8h-20zM387 17l139 130q17 16 26 32t10 34q0 22 -18 41
t-54 19q-28 0 -45 -13.5t-23 -19.5q-5 -6 -10 -1l-13 12q-2 2 -2.5 4.5t1.5 5.5q10 12 24 22q12 8 29.5 15.5t40.5 7.5q52 0 79 -27t27 -63q0 -24 -12.5 -46t-33.5 -42l-106 -97h143q7 0 7 -8v-15q0 -8 -7 -8h-193q-9 0 -9 8v9z" />
    <glyph glyph-name="onethird" unicode="&#x2153;" horiz-adv-x="610" 
d="M440 695q2 4 6 4.5t7 0.5h15q6 0 8.5 -4t-0.5 -10l-384 -681q-2 -4 -6 -4.5t-7 -0.5h-15q-6 0 -8.5 4t0.5 10zM98 404q-8 0 -8 8v241l-47 -28q-6 -3 -9 2l-6 10q-3 6 3 11l73 52h12q10 0 10 -8v-280q0 -8 -8 -8h-20zM366 31q-6 5 0 11l11 11q6 6 13 0q3 -3 8.5 -8
t15 -10.5t23.5 -9.5t33 -4q34 0 55.5 16t21.5 41q0 23 -19.5 40t-61.5 17h-45q-8 0 -8 10v12q0 8 8 8h45q31 0 52 13.5t21 41.5q0 25 -19.5 39.5t-48.5 14.5q-17 0 -29 -4t-21 -9t-14 -10l-7 -7q-6 -6 -10 -1l-13 11q-6 6 -1 11q11 11 26 20q13 8 30.5 14.5t40.5 6.5
q45 0 74 -22t29 -60q0 -25 -16.5 -44.5t-35.5 -27.5q17 -6 30 -17q11 -9 21 -23.5t10 -35.5q0 -37 -31.5 -61.5t-82.5 -24.5q-23 0 -41 5t-31 11.5t-21.5 13.5t-11.5 11z" />
    <glyph glyph-name="onequarter" unicode="&#xbc;" horiz-adv-x="635" 
d="M459 695q2 4 6 4.5t7 0.5h15q6 0 8.5 -4t-0.5 -10l-384 -681q-2 -4 -6 -4.5t-7 -0.5h-15q-6 0 -8.5 4t0.5 10zM117 404q-8 0 -8 8v241l-47 -28q-6 -3 -9 2l-6 10q-3 6 3 11l73 52h12q10 0 10 -8v-280q0 -8 -8 -8h-20zM315 87l189 209h14q10 0 10 -9v-185h39q9 0 9 -8v-16
q0 -8 -9 -8h-39v-61q0 -9 -10 -9h-17q-10 0 -10 9v60h-167q-9 0 -9 9v9zM491 103v130l-119 -130h119z" />
    <glyph glyph-name="oneeighth" unicode="&#x215b;" horiz-adv-x="610" 
d="M440 695q2 4 6 4.5t7 0.5h15q6 0 8.5 -4t-0.5 -10l-384 -681q-2 -4 -6 -4.5t-7 -0.5h-15q-6 0 -8.5 4t0.5 10zM98 404q-8 0 -8 8v241l-47 -28q-6 -3 -9 2l-6 10q-3 6 3 11l73 52h12q10 0 10 -8v-280q0 -8 -8 -8h-20zM361 76q0 19 7 33t16.5 23t18.5 13.5t12 5.5v2
q-19 8 -32 27.5t-13 43.5q0 38 29 60t74 22t74 -22t29 -60q0 -24 -14 -43.5t-32 -27.5v-2q3 -1 12 -5.5t18.5 -13.5t17 -23t7.5 -33q0 -37 -30.5 -61.5t-81.5 -24.5t-81.5 24.5t-30.5 61.5zM407 220q0 -26 17.5 -39.5t48.5 -15.5q31 2 48.5 15.5t17.5 39.5q0 25 -18.5 39.5
t-47.5 14.5t-47.5 -14.5t-18.5 -39.5zM399 78q0 -25 20 -41t54 -16t54 16t20 41q0 20 -16 37.5t-58 19.5q-42 -2 -58 -19.5t-16 -37.5z" />
    <glyph glyph-name="twothirds" unicode="&#x2154;" horiz-adv-x="610" 
d="M5 404q-9 0 -9 8v9l139 130q17 16 26 32t10 34q0 22 -18 41t-54 19q-28 0 -45 -13.5t-23 -19.5q-2 -3 -5 -3t-5 2l-13 12q-5 5 -1 10q10 12 24 22q12 8 29.5 15.5t40.5 7.5q52 0 79 -27t27 -63q0 -24 -12.5 -46t-33.5 -42l-106 -97h143q7 0 7 -8v-15q0 -8 -7 -8h-193z
M469 695q2 4 6 4.5t7 0.5h15q6 0 8.5 -4t-0.5 -10l-384 -681q-2 -4 -6 -4.5t-7 -0.5h-15q-6 0 -8.5 4t0.5 10zM395 31q-6 5 0 11l11 11q6 6 13 0q3 -3 8.5 -8t15 -10.5t23.5 -9.5t33 -4q34 0 55.5 16t21.5 41q0 23 -19.5 40t-61.5 17h-45q-8 0 -8 10v12q0 8 8 8h45
q31 0 52 13.5t21 41.5q0 25 -19.5 39.5t-48.5 14.5q-17 0 -29 -4t-21 -9t-14 -10l-7 -7q-6 -6 -10 -1l-13 11q-6 6 -1 11q11 11 26 20q13 8 30.5 14.5t40.5 6.5q45 0 74 -22t29 -60q0 -25 -16.5 -44.5t-35.5 -27.5q17 -6 30 -17q11 -9 21 -23.5t10 -35.5q0 -37 -31.5 -61.5
t-82.5 -24.5q-23 0 -41 5t-31 11.5t-21.5 13.5t-11.5 11z" />
    <glyph glyph-name="threequarters" unicode="&#xbe;" horiz-adv-x="706" 
d="M154 394q-23 0 -41 5t-31 11.5t-21.5 13.5t-11.5 11q-6 5 0 11l11 11q6 6 13 0q3 -3 8.5 -8t15 -10.5t23.5 -9.5t33 -4q34 0 55.5 16t21.5 41q0 23 -19.5 40t-61.5 17h-45q-8 0 -8 10v12q0 8 8 8h45q31 0 52 13.5t21 41.5q0 25 -19.5 39.5t-48.5 14.5q-17 0 -29 -4
t-21 -9t-14 -10l-7 -7q-6 -6 -10 -1l-13 11q-6 6 -1 11q11 11 26 20q13 8 30.5 14.5t40.5 6.5q45 0 74 -22t29 -60q0 -25 -16.5 -44.5t-35.5 -27.5q17 -6 30 -17q11 -9 21 -23.5t10 -35.5q0 -37 -31.5 -61.5t-82.5 -24.5zM529 695q2 4 6 4.5t7 0.5h15q6 0 8.5 -4t-0.5 -10
l-384 -681q-2 -4 -6 -4.5t-7 -0.5h-15q-6 0 -8.5 4t0.5 10zM385 87l189 209h14q10 0 10 -9v-185h39q9 0 9 -8v-16q0 -8 -9 -8h-39v-61q0 -9 -10 -9h-17q-10 0 -10 9v60h-167q-9 0 -9 9v9zM561 103v130l-119 -130h119z" />
    <glyph glyph-name="threeeighths" unicode="&#x215c;" horiz-adv-x="610" 
d="M102 394q-23 0 -41 5t-31 11.5t-21.5 13.5t-11.5 11q-6 5 0 11l11 11q6 6 13 0q3 -3 8.5 -8t15 -10.5t23.5 -9.5t33 -4q34 0 55.5 16t21.5 41q0 23 -19.5 40t-61.5 17h-45q-8 0 -8 10v12q0 8 8 8h45q31 0 52 13.5t21 41.5q0 25 -19.5 39.5t-48.5 14.5q-17 0 -29 -4
t-21 -9t-14 -10l-7 -7q-6 -6 -10 -1l-13 11q-6 6 -1 11q11 11 26 20q13 8 30.5 14.5t40.5 6.5q45 0 74 -22t29 -60q0 -25 -16.5 -44.5t-35.5 -27.5q17 -6 30 -17q11 -9 21 -23.5t10 -35.5q0 -37 -31.5 -61.5t-82.5 -24.5zM477 695q2 4 6 4.5t7 0.5h15q6 0 8.5 -4t-0.5 -10
l-384 -681q-2 -4 -6 -4.5t-7 -0.5h-15q-6 0 -8.5 4t0.5 10zM392 76q0 19 7 33t16.5 23t18.5 13.5t12 5.5v2q-19 8 -32 27.5t-13 43.5q0 38 29 60t74 22t74 -22t29 -60q0 -24 -14 -43.5t-32 -27.5v-2q3 -1 12 -5.5t18.5 -13.5t17 -23t7.5 -33q0 -37 -30.5 -61.5t-81.5 -24.5
t-81.5 24.5t-30.5 61.5zM438 220q0 -26 17.5 -39.5t48.5 -15.5q31 2 48.5 15.5t17.5 39.5q0 25 -18.5 39.5t-47.5 14.5t-47.5 -14.5t-18.5 -39.5zM430 78q0 -25 20 -41t54 -16t54 16t20 41q0 20 -16 37.5t-58 19.5q-42 -2 -58 -19.5t-16 -37.5z" />
    <glyph glyph-name="fiveeighths" unicode="&#x215d;" horiz-adv-x="610" 
d="M476 695q2 4 6 4.5t7 0.5h15q6 0 8.5 -4t-0.5 -10l-384 -681q-2 -4 -6 -4.5t-7 -0.5h-15q-6 0 -8.5 4t0.5 10zM99 394q-41 0 -64.5 14.5t-33.5 23.5q-5 5 -5 7.5t4 7.5l9 11q6 7 13 0q1 -1 7 -6.5t15.5 -11.5t23.5 -10.5t32 -4.5q36 0 58.5 22t22.5 49t-20 44.5t-53 17.5
h-78q-15 0 -15 15v118q0 9 9 9h148q9 0 9 -9v-17q0 -8 -9 -8h-124v-75h59q55 0 83 -24t28 -69q0 -21 -9 -40t-24.5 -33.5t-37.5 -22.5t-48 -8zM391 76q0 19 7 33t16.5 23t18.5 13.5t12 5.5v2q-19 8 -32 27.5t-13 43.5q0 38 29 60t74 22t74 -22t29 -60q0 -24 -14 -43.5
t-32 -27.5v-2q3 -1 12 -5.5t18.5 -13.5t17 -23t7.5 -33q0 -37 -30.5 -61.5t-81.5 -24.5t-81.5 24.5t-30.5 61.5zM437 220q0 -26 17.5 -39.5t48.5 -15.5q31 2 48.5 15.5t17.5 39.5q0 25 -18.5 39.5t-47.5 14.5t-47.5 -14.5t-18.5 -39.5zM429 78q0 -25 20 -41t54 -16t54 16
t20 41q0 20 -16 37.5t-58 19.5q-42 -2 -58 -19.5t-16 -37.5z" />
    <glyph glyph-name="seveneighths" unicode="&#x215e;" horiz-adv-x="610" 
d="M452 695q2 4 6 4.5t7 0.5h15q6 0 8.5 -4t-0.5 -10l-384 -681q-2 -4 -6 -4.5t-7 -0.5h-15q-6 0 -8.5 4t0.5 10zM69 404q-5 0 -9.5 2t-4.5 12l134 248h-161q-9 0 -9 9v16q0 9 9 9h197q9 0 9 -9v-16l-139 -262q-5 -9 -13 -9h-13zM367 76q0 19 7 33t16.5 23t18.5 13.5t12 5.5
v2q-19 8 -32 27.5t-13 43.5q0 38 29 60t74 22t74 -22t29 -60q0 -24 -14 -43.5t-32 -27.5v-2q3 -1 12 -5.5t18.5 -13.5t17 -23t7.5 -33q0 -37 -30.5 -61.5t-81.5 -24.5t-81.5 24.5t-30.5 61.5zM413 220q0 -26 17.5 -39.5t48.5 -15.5q31 2 48.5 15.5t17.5 39.5
q0 25 -18.5 39.5t-47.5 14.5t-47.5 -14.5t-18.5 -39.5zM405 78q0 -25 20 -41t54 -16t54 16t20 41q0 20 -16 37.5t-58 19.5q-42 -2 -58 -19.5t-16 -37.5z" />
    <glyph glyph-name="perthousand" unicode="&#x2030;" horiz-adv-x="1002" 
d="M188 434q-29 0 -54 10.5t-44 29.5t-29.5 44t-10.5 54t10.5 54t29.5 44t44 29.5t54 10.5q28 0 53.5 -10.5t44 -29.5t29.5 -44t11 -54t-11 -54t-29.5 -44t-44 -29.5t-53.5 -10.5zM507 695q2 4 5.5 4.5t6.5 0.5h18q7 0 9.5 -6t-1.5 -13l-381 -674q-4 -7 -12 -7h-18
q-7 0 -9 5.5t2 11.5zM188 471q20 0 38.5 8t32 21.5t21.5 32t8 39.5t-8 39t-21.5 31.5t-32 21.5t-38.5 8q-21 0 -39.5 -8t-32 -21.5t-21.5 -31.5t-8 -39t8 -39.5t21.5 -32t32 -21.5t39.5 -8zM679 127q0 29 11 54.5t29.5 44t44 29.5t54.5 11q28 0 53 -11t44 -29.5t30 -44
t11 -54.5t-11 -54t-30 -43.5t-44 -29.5t-53 -11q-29 0 -54.5 11t-44 29.5t-29.5 43.5t-11 54zM363 127q0 29 10.5 54.5t29.5 44t44 29.5t54 11q28 0 53.5 -11t44 -29.5t29.5 -44t11 -54.5t-11 -54t-29.5 -43.5t-44 -29.5t-53.5 -11q-29 0 -54 11t-44 29.5t-29.5 43.5
t-10.5 54zM717 127q0 -21 8 -39.5t21.5 -32t32 -21t39.5 -7.5q20 0 38 7.5t31.5 21t21.5 32t8 39.5t-8 39t-21.5 31.5t-31.5 21.5t-38 8q-21 0 -39.5 -8t-32 -21.5t-21.5 -31.5t-8 -39zM400 127q0 -21 8 -39.5t21.5 -32t32 -21t39.5 -7.5q20 0 38.5 7.5t32 21t21.5 32
t8 39.5t-8 39t-21.5 31.5t-32 21.5t-38.5 8q-21 0 -39.5 -8t-32 -21.5t-21.5 -31.5t-8 -39z" />
    <glyph glyph-name="minus" unicode="&#x2212;" horiz-adv-x="510" 
d="M63 327q-13 0 -13 13v15q0 13 13 13h385q12 0 12 -13v-15q0 -13 -12 -13h-385v0z" />
    <glyph glyph-name="plusminus" unicode="&#xb1;" horiz-adv-x="614" 
d="M286 382h-171q-13 0 -13 13v15q0 13 13 13h171v168q0 12 13 12h16q13 0 13 -12v-168h172q12 0 12 -13v-15q0 -13 -12 -13h-172v-126q0 -13 -13 -13h-16q-13 0 -13 13v126zM102 102q0 13 13 13h385q12 0 12 -13v-15q0 -13 -12 -13h-385q-13 0 -13 13v15z" />
    <glyph glyph-name="multiply" unicode="&#xd7;" 
d="M91 208q-9 9 0 18l121 121l-121 121q-3 4 -3 9.5t3 9.5l11 11q4 4 9.5 4t9.5 -4l121 -121l121 122q9 8 18 -1l12 -11q3 -4 3.5 -9t-3.5 -9l-121 -122l121 -121q4 -4 4 -9.5t-4 -8.5l-12 -11q-3 -4 -8.5 -4.5t-8.5 3.5l-122 122l-122 -121q-3 -4 -8.5 -4t-8.5 4z" />
    <glyph glyph-name="divide" unicode="&#xf7;" horiz-adv-x="585" 
d="M289 463q-17 0 -29 12t-12 29t12 28.5t29 11.5t28.5 -11.5t11.5 -28.5t-11.5 -29t-28.5 -12zM100 327q-13 0 -13 13v15q0 13 13 13h385q12 0 12 -13v-15q0 -13 -12 -13h-385zM248 190q0 17 12 28.5t29 11.5t28.5 -11.5t11.5 -28.5t-11.5 -29t-28.5 -12t-29 12t-12 29z
" />
    <glyph glyph-name="notequal" unicode="&#x2260;" horiz-adv-x="441" 
d="M118 70q-11 6 -6 16l38 72h-87q-13 0 -13 14v15q0 13 13 13h108l88 166h-196q-13 0 -13 15v14q0 13 13 13h216l37 72q2 5 7.5 6.5t10.5 -0.5l6 -3q3 -2 4.5 -6.5t-0.5 -9.5l-30 -59h64q13 0 13 -13v-16q0 -13 -13 -13h-85l-87 -166h172q13 0 13 -16v-13q0 -13 -13 -13
h-194l-44 -85q-6 -11 -17 -6l-5 3v0z" />
    <glyph glyph-name="approxequal" unicode="&#x2248;" horiz-adv-x="437" 
d="M45 339q-13 9 -5 24q11 23 28 41q14 15 34.5 28t47.5 13q15 0 28 -4.5t23 -10.5t17.5 -12.5t11.5 -10.5q10 -8 24 -20t31 -12q15 0 26 6.5t19 15.5t13 19l8 16q3 7 10 7.5t12 -3.5l13 -8q9 -6 2 -22q-10 -22 -25 -39q-13 -14 -32.5 -26t-45.5 -12q-24 0 -41.5 11
t-32.5 24t-29.5 24t-32.5 11q-14 0 -25.5 -6t-20.5 -14.5t-15 -18t-9 -15.5q-3 -7 -9.5 -12t-14.5 0zM61 171q-13 9 -5 24q11 23 28 41q14 15 34.5 28t47.5 13q15 0 28 -4.5t23 -10.5t17.5 -12.5t11.5 -10.5q10 -8 24 -20t31 -12q15 0 26 6.5t19 15.5t13 19l8 16q3 7 10 7.5
t12 -3.5l13 -8q9 -6 2 -22q-10 -22 -25 -39q-13 -14 -32.5 -26t-45.5 -12q-24 0 -41.5 11t-32.5 24t-29.5 24t-32.5 11q-14 0 -25.5 -6t-20.5 -14.5t-15 -18t-9 -15.5q-3 -7 -9.5 -12t-14.5 0z" />
    <glyph glyph-name="lessequal" unicode="&#x2264;" horiz-adv-x="448" 
d="M30 382q-10 6 -10 17v1q0 9 10 15l387 199q14 7 14 -10v-21q0 -3 -1.5 -7.5t-6.5 -7.5l-343 -169l343 -166q5 -3 6.5 -7.5t1.5 -7.5v-21q0 -17 -14 -10zM34 74q-13 0 -13 13v15q0 13 13 13h385q12 0 12 -13v-15q0 -13 -12 -13h-385z" />
    <glyph glyph-name="greaterequal" unicode="&#x2265;" horiz-adv-x="448" 
d="M34 187q-14 -7 -14 10v21q0 3 1.5 7.5t6.5 7.5l343 166l-343 169q-5 3 -6.5 7.5t-1.5 7.5v21q0 17 14 10l387 -199q10 -6 10 -15v-1q0 -11 -10 -17zM32 74q-12 0 -12 13v15q0 13 12 13h385q13 0 13 -13v-15q0 -13 -13 -13h-385z" />
    <glyph glyph-name="logicalnot" unicode="&#xac;" horiz-adv-x="531" 
d="M61 327q-13 0 -13 13v15q0 13 13 13h385q12 0 12 -13v-200q0 -12 -13 -12h-16q-13 0 -13 12v172h-355v0z" />
    <glyph glyph-name="Delta" unicode="&#x2206;" horiz-adv-x="677" 
d="M44 0q-20 0 -20.5 11.5t6.5 25.5l296 671q3 7 12 7h3q9 0 13 -7l295 -673q2 -5 4 -11t0.5 -11.5t-6.5 -9t-16 -3.5h-587zM593 42l-252 593h-2l-257 -593h511z" />
    <glyph glyph-name="uni0394" unicode="&#x394;" horiz-adv-x="677" 
d="M44 0q-20 0 -20.5 11.5t6.5 25.5l296 671q3 7 12 7h3q9 0 13 -7l295 -673q2 -5 4 -11t0.5 -11.5t-6.5 -9t-16 -3.5h-587zM593 42l-252 593h-2l-257 -593h511z" />
    <glyph glyph-name="Omega" unicode="&#x2126;" horiz-adv-x="780" 
d="M58 28q0 13 13 13h138q-39 23 -72 55t-57 71.5t-37.5 85.5t-13.5 96q0 75 28 141t77 114.5t114.5 77t140.5 28.5t140.5 -28.5t114.5 -77t77 -114.5t28 -141q0 -50 -13.5 -96t-37.5 -85.5t-57 -71.5t-72 -55h138q13 0 13 -13v-15q0 -13 -13 -13h-237q-12 0 -12 13v15
q0 10 12 13q51 13 94.5 42t74.5 69.5t48.5 90.5t17.5 106q0 66 -25 123.5t-67.5 100.5t-100 68t-123.5 25t-123.5 -25t-100 -68t-67.5 -100.5t-25 -123.5q0 -56 17.5 -106t48.5 -90.5t74.5 -69.5t94.5 -42q12 -3 12 -13v-15q0 -13 -12 -13h-237q-13 0 -13 13v15z" />
    <glyph glyph-name="uni03A9" unicode="&#x3a9;" horiz-adv-x="780" 
d="M58 28q0 13 13 13h138q-39 23 -72 55t-57 71.5t-37.5 85.5t-13.5 96q0 75 28 141t77 114.5t114.5 77t140.5 28.5t140.5 -28.5t114.5 -77t77 -114.5t28 -141q0 -50 -13.5 -96t-37.5 -85.5t-57 -71.5t-72 -55h138q13 0 13 -13v-15q0 -13 -13 -13h-237q-12 0 -12 13v15
q0 10 12 13q51 13 94.5 42t74.5 69.5t48.5 90.5t17.5 106q0 66 -25 123.5t-67.5 100.5t-100 68t-123.5 25t-123.5 -25t-100 -68t-67.5 -100.5t-25 -123.5q0 -56 17.5 -106t48.5 -90.5t74.5 -69.5t94.5 -42q12 -3 12 -13v-15q0 -13 -12 -13h-237q-13 0 -13 13v15z" />
    <glyph glyph-name="mu" unicode="&#xb5;" horiz-adv-x="505" 
d="M122 -287q0 -6 -4.5 -9.5t-9.5 -3.5h-17q-13 0 -13 13v674q0 13 13 13h18q13 0 13 -13v-215q0 -70 31 -105t88 -35q31 0 55 10t41 23t26 24t10 13v285q0 13 13 13h18q13 0 13 -13v-374q0 -13 -13 -13h-12q-6 0 -8.5 3.5t-3.5 8.5l-4 39q-4 -5 -15 -15.5t-28.5 -20.5
t-41 -17.5t-53.5 -7.5q-39 0 -70.5 15.5t-45.5 36.5v-329z" />
    <glyph glyph-name="uni03BC" unicode="&#x3bc;" horiz-adv-x="505" 
d="M122 -287q0 -6 -4.5 -9.5t-9.5 -3.5h-17q-13 0 -13 13v674q0 13 13 13h18q13 0 13 -13v-215q0 -70 31 -105t88 -35q31 0 55 10t41 23t26 24t10 13v285q0 13 13 13h18q13 0 13 -13v-374q0 -13 -13 -13h-12q-6 0 -8.5 3.5t-3.5 8.5l-4 39q-4 -5 -15 -15.5t-28.5 -20.5
t-41 -17.5t-53.5 -7.5q-39 0 -70.5 15.5t-45.5 36.5v-329z" />
    <glyph glyph-name="pi" unicode="&#x3c0;" horiz-adv-x="603" 
d="M146 361h-119q-7 0 -10 4t-3 9v13q0 13 13 13h556q13 0 13 -12v-15q0 -12 -13 -12h-119v-348q0 -6 -4.5 -9.5t-9.5 -3.5h-16q-13 0 -13 13v348h-232v-348q0 -6 -4.5 -9.5t-9.5 -3.5h-16q-13 0 -13 13v348z" />
    <glyph glyph-name="degree" unicode="&#xb0;" horiz-adv-x="350" 
d="M175 435q-29 0 -54 10.5t-44 29.5t-29.5 44t-10.5 54t10.5 54t29.5 44t44 29.5t54 10.5q28 0 53 -10.5t44 -29.5t30 -44t11 -54t-11 -54t-30 -44t-44 -29.5t-53 -10.5zM175 470q20 0 38.5 8t32.5 22.5t22.5 33t8.5 39.5t-8.5 39.5t-22.5 32.5t-32.5 22t-38.5 8
q-21 0 -39.5 -8t-33 -22t-22.5 -32.5t-8 -39.5t8 -39.5t22.5 -33t33 -22.5t39.5 -8z" />
    <glyph glyph-name="afii61289" unicode="&#x2113;" horiz-adv-x="505" 
d="M113 145q0 22 2.5 41.5t5.5 39.5q-16 -5 -31.5 -8.5t-24.5 -5.5q-8 -1 -11.5 0.5t-5.5 7.5l-3 12q-3 9 1 13.5t11 5.5q18 3 37.5 7t35.5 9l19 99q16 82 35.5 146t43.5 108t53.5 67t66.5 23q50 0 77.5 -34.5t27.5 -93.5q0 -66 -24.5 -120t-65 -96t-92.5 -73t-108 -52
q-5 -20 -8 -44t-3 -50q0 -22 4 -43t14.5 -37.5t28.5 -26.5t46 -10q37 0 66 6.5t49.5 15t32.5 15.5t15 9q11 7 17 -2l7 -13q3 -5 3 -8t-6 -9q-2 -2 -15.5 -10.5t-37 -18t-56.5 -17.5t-75 -8q-39 0 -64.5 13t-40.5 34.5t-21 49.5t-6 58zM171 281q47 20 91 48.5t77.5 66t54 84
t20.5 102.5q0 41 -17 64.5t-49 23.5q-29 0 -52 -21t-42.5 -61t-35.5 -97.5t-31 -130.5z" />
    <glyph glyph-name="estimated" unicode="&#x212e;" horiz-adv-x="823" 
d="M141 152q20 -30 49 -53t63.5 -39t73 -24t76.5 -8q59 0 115.5 23t104.5 65q4 4 9.5 4.5t10.5 -4.5l8 -9q5 -5 3.5 -9t-6.5 -9q-53 -50 -115.5 -74.5t-129.5 -24.5q-76 0 -142.5 27.5t-115.5 76t-77 114t-28 141.5t28 142t77 114.5t115.5 76.5t142.5 28t142 -27.5t115 -76
t77.5 -114t29.5 -141.5q0 -21 -17 -21h-609v-178zM667 366v178q-44 61 -112.5 94.5t-151.5 33.5q-82 0 -150 -33t-112 -93v-180h526z" />
    <glyph glyph-name="eng" unicode="&#x14b;" horiz-adv-x="496" 
d="M76 387q0 13 14 13h10q10 0 12 -10l4 -43q5 5 17.5 15.5t31.5 21t44 18.5t55 8q84 0 122.5 -49.5t38.5 -133.5v-364q0 -89 -40 -131t-106 -42q-39 0 -69 15t-43 28q-7 7 -2 14l10 16q7 10 17 0q13 -10 35.5 -21.5t51.5 -11.5q48 0 75 31.5t27 101.5v364q0 69 -31 104.5
t-88 35.5q-31 0 -56.5 -10t-44.5 -22.5t-30 -23.5t-12 -13v-285q0 -13 -13 -13h-19q-11 0 -11 13v374z" />
    <glyph glyph-name="Eng" unicode="&#x14a;" horiz-adv-x="771" 
d="M106 697q0 6 4.5 9.5t10.5 3.5h17l480 -628h1v605q0 13 13 13h20q13 0 13 -13v-824q0 -89 -40 -131t-106 -42q-39 0 -69 15t-43 28q-7 7 -2 14l10 16q7 10 17 0q13 -10 35.5 -21.5t51.5 -11.5q48 0 74.5 31.5t26.5 101.5v143q-7 8 -20.5 25t-36.5 47.5t-57.5 76t-84 111
t-116 153t-153.5 202.5h-1v-608q0 -13 -13 -13h-19q-13 0 -13 13v684z" />
    <glyph glyph-name="infinity" unicode="&#x221e;" horiz-adv-x="616" 
d="M188 158q-29 0 -54 11t-44 29.5t-29.5 43.5t-10.5 54t10.5 54.5t29.5 44t44 29.5t54 11q38 0 69.5 -20.5t49.5 -52.5q18 32 50 52.5t71 20.5q28 0 53 -11t44 -29.5t30 -44t11 -54.5t-11 -54t-30 -43.5t-44 -29.5t-53 -11q-39 0 -71 20.5t-50 51.5q-18 -31 -49.5 -51.5
t-69.5 -20.5zM327 296q0 -21 8 -39.5t21.5 -32t32 -21t39.5 -7.5q20 0 38 7.5t31.5 21t21.5 32t8 39.5t-8 39t-21.5 31.5t-31.5 21.5t-38 8q-21 0 -39.5 -8t-32 -21.5t-21.5 -31.5t-8 -39zM188 196q20 0 38.5 7.5t32 21t21.5 32t8 39.5t-8 39t-21.5 31.5t-32 21.5t-38.5 8
q-21 0 -39.5 -8t-32 -21.5t-21.5 -31.5t-8 -39t8 -39.5t21.5 -32t32 -21t39.5 -7.5z" />
    <glyph glyph-name="partialdiff" unicode="&#x2202;" horiz-adv-x="565" 
d="M54 220q0 50 18 90.5t48 69t69 44t82 15.5q38 0 70 -9.5t56 -23t39.5 -27t21.5 -21.5q-12 69 -50 122t-83 91.5t-87.5 61t-64.5 30.5q-16 6 -11 19l7 15q3 10 15 7q22 -8 55 -24.5t69 -41.5t72.5 -59.5t65.5 -79t47 -100.5t18 -124q0 -60 -14.5 -112t-44 -90.5
t-73.5 -60.5t-102 -22q-45 0 -85.5 18t-71 49.5t-48.5 73t-18 89.5zM98 218q0 -38 14 -72.5t38.5 -60t57 -40.5t69.5 -15q48 0 84 20t59.5 53t35.5 76t12 89q0 8 -0.5 15t-1.5 15q-1 1 -14 17t-37.5 34.5t-59.5 33.5t-80 15q-36 0 -68 -13t-56 -37t-38.5 -57t-14.5 -73z" />
    <glyph glyph-name="integral" unicode="&#x222b;" horiz-adv-x="353" 
d="M121 537q0 44 11.5 76.5t31.5 54t47.5 32t60.5 10.5q19 0 37 -4t33 -10.5t26 -14t16 -14.5q7 -9 2 -16l-10 -14q-7 -11 -17 -1q-11 11 -35 22.5t-52 11.5q-48 0 -77.5 -32t-29.5 -101v-672q0 -44 -11.5 -76.5t-31.5 -54t-47.5 -32t-60.5 -10.5q-19 0 -37 4t-33 10.5
t-26 14t-16 14.5q-7 9 -2 16l10 14q7 11 17 1q11 -11 35 -22.5t52 -11.5q48 0 77.5 32t29.5 101v672z" />
    <glyph glyph-name="radical" unicode="&#x221a;" horiz-adv-x="657" 
d="M29 387q-7 13 8 13h27q9 0 11 -7l136 -321h2l272 619q4 9 14 9h128q12 0 12 -13v-15q0 -13 -12 -13h-107l-295 -660q-4 -9 -12 -9h-5q-5 0 -7.5 3.5t-3.5 5.5z" />
    <glyph glyph-name="summation" unicode="&#x2211;" horiz-adv-x="523" 
d="M48 22l328 336l-328 319v10q0 13 13 13h401q13 0 13 -13v-17q0 -13 -13 -13h-330l281 -272q4 -4 8.5 -9.5t4.5 -10.5v-11q0 -5 -4.5 -10.5t-8.5 -9.5l-281 -292h330q13 0 13 -13v-16q0 -13 -13 -13h-401q-13 0 -13 13v9z" />
    <glyph glyph-name="product" unicode="&#x220f;" horiz-adv-x="642" 
d="M49 687q0 13 13 13h517q13 0 13 -13v-674q0 -13 -13 -13h-21q-13 0 -13 13v645h-449v-645q0 -13 -13 -13h-21q-13 0 -13 13v674z" />
    <glyph glyph-name="lozenge" unicode="&#x25ca;" horiz-adv-x="677" 
d="M112 303q-17 22 -20.5 31t-3.5 23q0 7 1 12.5t3.5 11t7 12.5t12.5 18l214 297q3 7 12 7h3q9 0 13 -7l212 -295q6 -10 10.5 -16.5t7.5 -12.5t4.5 -12t1.5 -15q0 -16 -5 -26t-19 -30l-212 -294q-4 -7 -13 -7h-3q-9 0 -12 7zM341 55l212 302l-212 303h-2l-214 -303l214 -302
h2z" />
    <glyph glyph-name="uniF8FF" unicode="&#xf8ff;" horiz-adv-x="599" 
d="M50 670q0 30 30 30h439q30 0 30 -30v-640q0 -30 -30 -30h-439q-30 0 -30 30v640zM262 314q0 -5 4.5 -8.5t9.5 -3.5h36q15 0 15 13v26q0 18 16.5 31.5t36 29t36 36t16.5 53.5q0 24 -9.5 44.5t-26.5 35.5t-39.5 23t-49.5 8q-33 0 -57 -10t-41 -21q-19 -13 -32 -30
q-3 -5 -4 -9.5t4 -8.5l22 -22q8 -6 17 0q5 4 12 11t17 14t23.5 11.5t31.5 4.5q30 0 45.5 -16t15.5 -36q0 -24 -15.5 -39t-34 -30t-34 -32.5t-15.5 -45.5v-29zM245 156q0 -20 14 -34t34 -14t34.5 14t14.5 34t-14.5 34t-34.5 14t-34 -14t-14 -34z" />
    <glyph glyph-name="zero.tf" horiz-adv-x="604" 
d="M302 -10q-59 0 -104.5 24t-76.5 69.5t-47.5 110.5t-16.5 147t16.5 147t47.5 110.5t76.5 69.5t104.5 24q58 0 104 -24t77 -69.5t47.5 -110.5t16.5 -147t-16.5 -147t-47.5 -110.5t-77 -69.5t-104 -24zM302 31q97 0 148.5 80.5t51.5 229.5q0 147 -51.5 228t-148.5 81
t-149 -81t-52 -228q0 -149 52 -229.5t149 -80.5z" />
    <glyph glyph-name="one.tf" horiz-adv-x="604" 
d="M150 0q-12 0 -12 13v11q0 13 12 13h158v577l-141 -115q-9 -7 -15 1l-12 14q-7 8 2 15l182 152h15q6 0 10.5 -3t4.5 -9v-632h132q13 0 13 -13v-11q0 -13 -13 -13h-336v0z" />
    <glyph glyph-name="two.tf" horiz-adv-x="604" 
d="M80 30l265 266q53 53 82 101t29 97q0 28 -10 56t-31 49.5t-52.5 35t-74.5 13.5q-34 0 -60.5 -10.5t-45 -24.5t-30 -27.5t-16.5 -18.5q-9 -11 -20 -3l-12 10q-9 9 -2 18q19 27 46 49q23 19 58 34.5t82 15.5q53 0 93 -16t67 -43t41 -62.5t14 -74.5q0 -66 -36 -119.5
t-90 -107.5l-228 -227h336q13 0 13 -13v-15q0 -13 -13 -13h-392q-6 0 -9.5 3.5t-3.5 8.5v18z" />
    <glyph glyph-name="three.tf" horiz-adv-x="604" 
d="M80 79q-9 10 0 17l16 13q5 5 9 3.5t9 -6.5q9 -8 21.5 -21t32 -25t47.5 -21t69 -9q39 0 71.5 10.5t56 30t36.5 47.5t13 62q0 36 -16 63.5t-41.5 46t-57.5 27.5t-65 9h-93q-13 0 -13 13v18q0 12 14 12h92q27 0 56 7.5t52.5 24t38.5 43t15 64.5q0 31 -12 57t-32.5 45t-48 29
t-59.5 10q-36 0 -63.5 -9.5t-47 -22.5t-31 -25t-15.5 -17q-3 -4 -7.5 -5t-9.5 3l-15 12q-5 3 -5 8t4 9q21 25 50 44q24 17 59.5 31t80.5 14q43 0 79.5 -13t63 -36.5t41.5 -56t15 -72.5q0 -29 -10 -55t-25.5 -47t-36 -36t-41.5 -23v-2q24 -8 47.5 -23.5t42 -37.5t30 -49
t11.5 -57q0 -41 -16 -76.5t-45 -61.5t-71 -40.5t-94 -14.5q-46 0 -80.5 10.5t-58.5 24.5t-39.5 29.5t-23.5 24.5z" />
    <glyph glyph-name="four.tf" horiz-adv-x="604" 
d="M46 156q-17 0 -17 15v17l409 504h18q11 0 11 -11q0 -122 0.5 -243t0.5 -243h76q13 0 13 -12v-13q0 -13 -13 -13h-76v-144q0 -13 -13 -13q-9 0 -20.5 0.5t-11.5 12.5v143h-377zM425 196v416l-340 -416h340z" />
    <glyph glyph-name="five.tf" horiz-adv-x="604" 
d="M98 74q-6 8 -6.5 12t5.5 10q4 3 7 6.5t7 6.5q10 8 17 -2q6 -8 19 -21t33 -25t48 -21t65 -9q42 0 76.5 15.5t59.5 42t38.5 60.5t13.5 71q0 75 -47 120.5t-141 45.5h-166q-9 0 -14 6.5t-5 14.5v261q0 13 13 13h314q13 0 13 -13v-16q0 -13 -13 -13h-285v-211h143
q115 0 174.5 -54t59.5 -154q0 -47 -17.5 -89t-48.5 -73.5t-74.5 -49.5t-94.5 -18q-42 0 -74 9t-55.5 22t-39.5 27.5t-25 25.5z" />
    <glyph glyph-name="six.tf" horiz-adv-x="604" 
d="M78 275q0 68 18 124t47 100.5t65.5 79t72.5 59.5t69 41t55 25q12 3 15 -7l7 -15q5 -13 -11 -19q-22 -8 -64.5 -30.5t-87.5 -61t-83 -91.5t-50 -122q6 8 21.5 21.5t39.5 27t56 23t70 9.5q43 0 82 -15.5t69 -44t48 -69t18 -90.5q0 -48 -18 -89.5t-48.5 -73t-71 -49.5
t-85.5 -18q-59 0 -102.5 22t-73 60.5t-44 90.5t-14.5 112zM121 268q0 -46 12 -89t35.5 -76t59.5 -53t84 -20q37 0 69.5 15t57 40.5t38.5 60t14 72.5q0 40 -14.5 73t-38.5 57t-56 37t-68 13q-45 0 -80 -15t-59.5 -33.5t-37.5 -34.5t-14 -17q-1 -8 -1.5 -15t-0.5 -15z" />
    <glyph glyph-name="seven.tf" horiz-adv-x="604" 
d="M465 639h-369q-8 0 -10.5 4t-2.5 10v15q0 13 13 13h414q7 0 10.5 -3.5t3.5 -8.5v-5l-294 -648q-5 -10 -8 -13t-11 -3h-24q-8 0 -8.5 5.5t1.5 10.5z" />
    <glyph glyph-name="eight.tf" horiz-adv-x="604" 
d="M78 179q0 33 12.5 60.5t33 49.5t47.5 37t57 22v2q-26 7 -50 21.5t-42 35t-29 46t-11 55.5q0 37 13 70t39 57.5t64 39t88 14.5t89 -14.5t65.5 -39t40 -57.5t13.5 -70q0 -30 -11 -55.5t-29 -46t-42 -35t-50 -21.5v-2q30 -7 57 -21.5t47.5 -36t33 -49.5t12.5 -62
q0 -45 -16.5 -80t-46.5 -59t-71.5 -37t-91.5 -13q-49 0 -90 13t-70 37t-45.5 59t-16.5 80zM302 372q75 5 118 41t43 94q0 29 -10.5 55t-31.5 46t-51.5 31.5t-70.5 11.5q-39 0 -68.5 -11.5t-49.5 -31.5t-30 -46t-10 -55q0 -58 43 -94t118 -41zM124 175q0 -36 14 -63.5t38 -46
t56 -28t68 -9.5q38 0 71 9t57 27.5t38 46t14 64.5q0 28 -12.5 53.5t-35.5 45.5t-56 33t-74 16q-84 -7 -131 -48t-47 -100z" />
    <glyph glyph-name="nine.tf" horiz-adv-x="604" 
d="M177 4q-5 14 11 19q14 5 38.5 17t53.5 30.5t59.5 44t57.5 57.5t47 71t28 85q-6 -8 -21.5 -21.5t-39.5 -27t-55.5 -23t-69.5 -9.5q-43 0 -82 15.5t-69 44t-48 69t-18 90.5q0 48 18 89.5t48.5 73t71 49.5t85.5 18q58 0 102 -22t73 -60.5t44 -90.5t15 -112q0 -68 -18 -124
t-47 -100.5t-65.5 -79t-73 -59.5t-69.5 -41.5t-55 -24.5q-10 -3 -15 7zM289 288q45 0 80.5 15t59.5 33.5t37 34t14 17.5q1 8 1.5 15t0.5 15q0 46 -11.5 89t-35.5 76t-59.5 53t-83.5 20q-37 0 -69.5 -15t-57 -40.5t-38.5 -60t-14 -72.5q0 -40 14 -73t38 -57t56 -37t68 -13z
" />
    <glyph glyph-name="zerosuperior" unicode="&#x2070;" horiz-adv-x="345" 
d="M172 494q-58 0 -90 42t-32 115q0 75 32 117t90 42q59 0 91 -42t32 -117q0 -73 -32 -115t-91 -42zM172 527q42 0 64.5 32.5t22.5 91.5q0 60 -22.5 93.5t-64.5 33.5q-41 0 -63.5 -33.5t-22.5 -93.5q0 -59 22.5 -91.5t63.5 -32.5z" />
    <glyph glyph-name="foursuperior" unicode="&#x2074;" horiz-adv-x="342" 
d="M235 504q-10 0 -10 9v60h-167q-9 0 -9 9v9l189 209h14q10 0 10 -9v-185h39q9 0 9 -8v-16q0 -8 -9 -8h-39v-61q0 -9 -10 -9h-17zM225 607v130l-119 -130h119z" />
    <glyph glyph-name="fivesuperior" unicode="&#x2075;" horiz-adv-x="348" 
d="M154 494q-41 0 -64.5 14.5t-33.5 23.5q-5 5 -5 7.5t4 7.5l9 11q6 7 13 0q1 -1 7 -6.5t15.5 -11.5t23.5 -10.5t32 -4.5q36 0 58.5 22t22.5 49t-20 44.5t-53 17.5h-78q-15 0 -15 15v118q0 9 9 9h148q9 0 9 -9v-17q0 -8 -9 -8h-124v-75h59q55 0 83 -24t28 -69q0 -21 -9 -40
t-24.5 -33.5t-37.5 -22.5t-48 -8z" />
    <glyph glyph-name="sixsuperior" unicode="&#x2076;" horiz-adv-x="324" 
d="M164 494q-29 0 -50 11t-35 29t-21 42.5t-7 51.5q0 45 19.5 78.5t46 56t53.5 35t41 17.5q8 3 12 -6l5 -11q2 -5 1.5 -10t-7.5 -7q-18 -5 -38 -15t-38 -24t-33 -33t-24 -43q2 1 7.5 6t16 10t25 9.5t34.5 4.5q19 0 37 -6t32.5 -18.5t23 -31t8.5 -42.5q0 -21 -8.5 -40
t-23.5 -33.5t-35 -22.5t-42 -8zM165 525q30 0 50 20t20 53q0 30 -21 49t-51 19q-29 0 -49 -15.5t-27 -27.5q0 -18 5 -35.5t14.5 -31.5t24.5 -22.5t34 -8.5z" />
    <glyph glyph-name="sevensuperior" unicode="&#x2077;" horiz-adv-x="324" 
d="M100 504q-5 0 -9.5 2t-4.5 12l134 248h-161q-9 0 -9 9v16q0 9 9 9h197q9 0 9 -9v-16l-139 -262q-5 -9 -13 -9h-13v0z" />
    <glyph glyph-name="eightsuperior" unicode="&#x2078;" horiz-adv-x="314" 
d="M160 494q-51 0 -81.5 24.5t-30.5 61.5q0 19 7 33t16.5 23t18.5 13.5t12 5.5v2q-19 8 -32 27.5t-13 43.5q0 38 29 60t74 22t74 -22t29 -60q0 -24 -14 -43.5t-32 -27.5v-2q3 -1 12 -5.5t18.5 -13.5t17 -23t7.5 -33q0 -37 -30.5 -61.5t-81.5 -24.5zM160 669q31 2 48.5 15.5
t17.5 39.5q0 25 -18.5 39.5t-47.5 14.5t-47.5 -14.5t-18.5 -39.5q0 -26 17.5 -39.5t48.5 -15.5zM160 525q34 0 54 16t20 41q0 20 -16 37.5t-58 19.5q-42 -2 -58 -19.5t-16 -37.5q0 -25 20 -41t54 -16z" />
    <glyph glyph-name="ninesuperior" unicode="&#x2079;" horiz-adv-x="325" 
d="M113 487q-8 -3 -12 6l-5 11q-2 5 -1.5 10t7.5 7q18 5 38 14.5t38 24t33 33.5t24 43q-2 -1 -7.5 -6t-16 -10t-25 -9.5t-34.5 -4.5q-19 0 -37 6t-32.5 18.5t-23 31t-8.5 42.5q0 21 8.5 40t23.5 33.5t34.5 22.5t42.5 8q28 0 49.5 -11t35.5 -29t21 -42.5t7 -51.5
q0 -45 -19.5 -78.5t-46 -56t-53.5 -35.5t-41 -17zM161 636q29 0 49 15.5t27 27.5q0 18 -5 35.5t-14.5 31.5t-24.5 22.5t-34 8.5q-30 0 -50 -20t-20 -53q0 -30 21 -49t51 -19z" />
    <glyph glyph-name="zeroinferior" unicode="&#x2080;" horiz-adv-x="345" 
d="M50 7q0 75 32 117t90 42q59 0 91 -42t32 -117q0 -73 -32 -115t-91 -42q-58 0 -90 42t-32 115zM86 7q0 -59 22.5 -91.5t63.5 -32.5q42 0 64.5 32.5t22.5 91.5q0 60 -22.5 93.5t-64.5 33.5q-41 0 -63.5 -33.5t-22.5 -93.5z" />
    <glyph glyph-name="oneinferior" unicode="&#x2081;" horiz-adv-x="199" 
d="M52 93q-3 6 3 11l73 52h12q10 0 10 -8v-280q0 -8 -8 -8h-20q-8 0 -8 8v241l-47 -28q-6 -3 -9 2z" />
    <glyph glyph-name="twoinferior" unicode="&#x2082;" horiz-adv-x="311" 
d="M62 111q-5 5 -1 10q10 12 24 22q12 8 29.5 15.5t40.5 7.5q52 0 79 -27t27 -63q0 -24 -12.5 -46t-33.5 -42l-106 -97h143q7 0 7 -8v-15q0 -8 -7 -8h-193q-9 0 -9 8v9l139 130q17 16 26 32t10 34q0 22 -18 41t-54 19q-28 0 -45 -13.5t-23 -19.5q-2 -3 -5 -3t-5 2z" />
    <glyph glyph-name="threeinferior" unicode="&#x2083;" horiz-adv-x="322" 
d="M100 17q0 8 8 8h45q31 0 52 13.5t21 41.5q0 25 -19.5 39.5t-48.5 14.5q-17 0 -29 -4t-21 -9t-14 -10l-7 -7q-6 -6 -10 -1l-13 11q-6 6 -1 11q11 11 26 20q13 8 30.5 14.5t40.5 6.5q45 0 74 -22t29 -60q0 -25 -16.5 -44.5t-35.5 -27.5q17 -6 30 -17q11 -9 21 -23.5
t10 -35.5q0 -37 -31.5 -61.5t-82.5 -24.5q-23 0 -41 5t-31 11.5t-21.5 13.5t-11.5 11q-6 5 0 11l11 11q6 6 13 0q3 -3 8.5 -8t15 -10.5t23.5 -9.5t33 -4q34 0 55.5 16t21.5 41q0 23 -19.5 40t-61.5 17h-45q-8 0 -8 10v12z" />
    <glyph glyph-name="fourinferior" unicode="&#x2084;" horiz-adv-x="342" 
d="M238 156h14q10 0 10 -9v-185h39q9 0 9 -8v-16q0 -8 -9 -8h-39v-61q0 -9 -10 -9h-17q-10 0 -10 9v60h-167q-9 0 -9 9v9zM225 -37v130l-119 -130h119z" />
    <glyph glyph-name="fiveinferior" unicode="&#x2085;" horiz-adv-x="348" 
d="M70 147q0 9 9 9h148q9 0 9 -9v-17q0 -8 -9 -8h-124v-75h59q55 0 83 -24t28 -69q0 -21 -9 -40t-24.5 -33.5t-37.5 -22.5t-48 -8q-41 0 -64.5 14.5t-33.5 23.5q-5 5 -5 7.5t4 7.5l9 11q6 7 13 0q1 -1 7 -6.5t15.5 -11.5t23.5 -10.5t32 -4.5q36 0 58.5 22t22.5 49t-20 44.5
t-53 17.5h-78q-15 0 -15 15v118z" />
    <glyph glyph-name="sixinferior" unicode="&#x2086;" horiz-adv-x="324" 
d="M51 -16q0 45 19.5 78.5t46 56t53.5 35t41 17.5q8 3 12 -6l5 -11q2 -5 1.5 -10t-7.5 -7q-18 -5 -38 -15t-38 -24t-33 -33t-24 -43q2 1 7.5 6t16 10t25 9.5t34.5 4.5q19 0 37 -6t32.5 -18.5t23 -31t8.5 -42.5q0 -21 -8.5 -40t-23.5 -33.5t-35 -22.5t-42 -8q-29 0 -50 11
t-35 29t-21 42.5t-7 51.5zM87 -21q0 -18 5 -35.5t14.5 -31.5t24.5 -22.5t34 -8.5q30 0 50 20t20 53q0 30 -21 49t-51 19q-29 0 -49 -15.5t-27 -27.5z" />
    <glyph glyph-name="seveninferior" unicode="&#x2087;" horiz-adv-x="324" 
d="M59 122q-9 0 -9 9v16q0 9 9 9h197q9 0 9 -9v-16l-139 -262q-5 -9 -13 -9h-13q-5 0 -9.5 2t-4.5 12l134 248h-161v0z" />
    <glyph glyph-name="eightinferior" unicode="&#x2088;" horiz-adv-x="314" 
d="M48 -64q0 19 7 33t16.5 23t18.5 13.5t12 5.5v2q-19 8 -32 27.5t-13 43.5q0 38 29 60t74 22t74 -22t29 -60q0 -24 -14 -43.5t-32 -27.5v-2q3 -1 12 -5.5t18.5 -13.5t17 -23t7.5 -33q0 -37 -30.5 -61.5t-81.5 -24.5t-81.5 24.5t-30.5 61.5zM94 80q0 -26 17.5 -39.5
t48.5 -15.5q31 2 48.5 15.5t17.5 39.5q0 25 -18.5 39.5t-47.5 14.5t-47.5 -14.5t-18.5 -39.5zM86 -62q0 -25 20 -41t54 -16t54 16t20 41q0 20 -16 37.5t-58 19.5q-42 -2 -58 -19.5t-16 -37.5z" />
    <glyph glyph-name="nineinferior" unicode="&#x2089;" horiz-adv-x="325" 
d="M51 60q0 21 8.5 40t23.5 33.5t34.5 22.5t42.5 8q28 0 49.5 -11t35.5 -29t21 -42.5t7 -51.5q0 -45 -19.5 -78.5t-46 -56t-53.5 -35.5t-41 -17q-8 -3 -12 6l-5 11q-2 5 -1.5 10t7.5 7q18 5 38 14.5t38 24t33 33.5t24 43q-2 -1 -7.5 -6t-16 -10t-25 -9.5t-34.5 -4.5
q-19 0 -37 6t-32.5 18.5t-23 31t-8.5 42.5zM89 60q0 -30 21 -49t51 -19q29 0 49 15.5t27 27.5q0 18 -5 35.5t-14.5 31.5t-24.5 22.5t-34 8.5q-30 0 -50 -20t-20 -53z" />
    </font>
</defs>
</svg>
